<svg width="176" height="30" viewBox="0 0 176 30" fill="none" xmlns="http://www.w3.org/2000/svg">
<g clip-path="url(#clip0_274_2563)">
<path d="M68.915 2.65862C68.9167 2.13114 69.0758 1.61523 69.3709 1.17869C69.666 0.740502 70.0853 0.399871 70.5743 0.199791C71.0634 -0.00028803 71.6021 -0.051548 72.1209 0.0542791C72.6398 0.158453 73.1155 0.414753 73.4885 0.790108C73.8615 1.16381 74.1134 1.64169 74.2162 2.15925C74.3173 2.67681 74.2626 3.21421 74.0587 3.70035C73.8548 4.1865 73.51 4.60319 73.0691 4.89421C72.6282 5.18524 72.111 5.34067 71.5822 5.33902C71.2308 5.33902 70.8827 5.26792 70.5594 5.13233C70.2362 4.99674 69.9411 4.79996 69.6941 4.55028C69.4471 4.30224 69.2499 4.00626 69.1173 3.68216C68.9847 3.35807 68.9167 3.01082 68.9167 2.66027L68.915 2.65862Z" fill="#283A81"/>
<path d="M113.72 23.1365C114.25 23.1381 114.771 22.9827 115.215 22.69C115.657 22.3973 116.002 21.979 116.208 21.4896C116.412 21.0001 116.466 20.461 116.364 19.9418C116.261 19.421 116.006 18.9431 115.631 18.5677C115.256 18.1924 114.777 17.9361 114.257 17.8319C113.736 17.7277 113.196 17.7806 112.705 17.9824C112.215 18.1841 111.795 18.528 111.498 18.9679C111.203 19.4077 111.046 19.9269 111.046 20.4561C111.046 21.1638 111.328 21.8434 111.828 22.3461C112.329 22.8488 113.01 23.1315 113.72 23.1332V23.1365Z" fill="#4D9DDF"/>
<path d="M32.9491 11.621C32.5363 10.5892 31.9164 9.6533 31.124 8.87117C30.3317 8.08904 29.3868 7.47888 28.3491 7.07872C27.3098 6.67856 26.1991 6.49667 25.0868 6.54463C23.4391 6.56116 21.8345 7.06384 20.4736 7.98983C19.1127 8.91416 18.0568 10.2205 17.4384 11.7434C16.8201 13.2663 16.6676 14.938 16.9992 16.5469C17.3307 18.1558 18.133 19.6308 19.3033 20.7866C20.4736 21.9425 21.9605 22.7262 23.5784 23.0404C25.1946 23.3546 26.8672 23.1843 28.3872 22.5526C29.9073 21.9193 31.2052 20.8528 32.1186 19.4853C33.032 18.1178 33.5193 16.5122 33.5193 14.8702C33.5558 13.7591 33.3618 12.6528 32.9491 11.621ZM25.0868 19.3001C22.7927 19.3001 21.1814 17.4795 21.1814 14.8702C21.1814 12.2609 22.7827 10.4387 25.0868 10.4387C27.391 10.4387 28.9906 12.2593 28.9906 14.8702C28.9906 17.4812 27.4391 19.3001 25.0868 19.3001Z" fill="#283A81"/>
<path d="M63.7417 15.2869C63.5776 14.9579 63.3638 14.6553 63.1069 14.3907L62.961 14.2353L63.1168 14.0898C63.3621 13.8252 63.5876 13.5408 63.7898 13.2432L68.0748 6.86542H62.8715L59.6407 11.8608C59.5031 12.0113 59.3307 12.1254 59.1385 12.1948C58.9462 12.2643 58.7406 12.2874 58.5384 12.2593H57.8057V2.82415C57.8057 0.944066 56.6238 0.681152 55.3557 0.681152H53.1792V22.9495H57.7958V16.2691H58.2251C58.7522 16.2691 59.1136 16.327 59.2794 16.6197L61.8371 21.3819C62.0592 21.9061 62.4504 22.3426 62.9494 22.6188C63.4483 22.8966 64.0252 22.9991 64.5905 22.9098H68.1345L65.4889 18.5577L63.7417 15.2853V15.2869Z" fill="#283A81"/>
<path d="M86.1628 6.50507C85.2892 6.48523 84.4206 6.64893 83.6134 6.9846C82.8061 7.32027 82.0784 7.81964 81.4767 8.45295L81.1932 8.73571L81.0954 8.34547C80.9446 7.86594 80.6296 7.45586 80.2036 7.18799C79.7776 6.92011 79.2703 6.81263 78.773 6.88373H76.6943V22.9397H81.3009V15.5401C81.286 14.8803 81.3822 14.2222 81.5844 13.5922C81.7966 12.7737 82.279 12.0527 82.9553 11.5418C83.6299 11.0308 84.4571 10.763 85.3042 10.7778C86.7297 10.7778 87.2569 11.5269 87.2569 13.4847V20.4858C87.2038 20.8182 87.2287 21.1605 87.3331 21.4813C87.4376 21.802 87.6166 22.0947 87.8553 22.3328C88.094 22.5709 88.3874 22.7495 88.709 22.8537C89.0306 22.9579 89.372 22.9843 89.7069 22.9298H91.8734V12.7158C91.9033 8.65468 89.9207 6.50342 86.1628 6.50342V6.50507Z" fill="#283A81"/>
<path d="M71.6387 6.86516H69.4722V22.9509H74.0605V9.31737C74.1119 8.98666 74.0871 8.64768 73.9843 8.3302C73.8815 8.01107 73.7058 7.7217 73.4704 7.48193C73.235 7.24382 72.9466 7.06358 72.6283 6.9561C72.3101 6.84862 71.9719 6.8172 71.6404 6.8635L71.6387 6.86516Z" fill="#283A81"/>
<path d="M50.9693 11.621C50.5566 10.5892 49.9349 9.6533 49.1442 8.87117C48.3519 8.08904 47.407 7.47888 46.3677 7.07872C45.3283 6.67856 44.2177 6.49667 43.1054 6.54463C41.4594 6.56116 39.8531 7.06384 38.4922 7.98983C37.1313 8.91416 36.0753 10.2205 35.457 11.7434C34.8387 13.2663 34.6862 14.938 35.0194 16.5469C35.3509 18.1558 36.1516 19.6308 37.3235 20.7866C38.4938 21.9425 39.9808 22.7262 41.597 23.0404C43.2132 23.3546 44.8874 23.1843 46.4075 22.5526C47.9275 21.9193 49.2255 20.8528 50.1388 19.4853C51.0522 18.1178 51.5396 16.5122 51.5396 14.8702C51.576 13.7591 51.3804 12.6528 50.9693 11.621ZM43.1054 19.3001C40.8112 19.3001 39.2017 17.4795 39.2017 14.8702C39.2017 12.2609 40.8013 10.4387 43.1054 10.4387C45.4096 10.4387 47.0109 12.2593 47.0109 14.8702C47.0109 17.4812 45.4576 19.3001 43.1054 19.3001Z" fill="#283A81"/>
<path d="M149.294 11.621C148.883 10.5892 148.262 9.6533 147.469 8.87117C146.677 8.08904 145.732 7.47888 144.694 7.07872C143.655 6.67856 142.544 6.49667 141.432 6.54463C139.784 6.56116 138.18 7.06384 136.819 7.98983C135.458 8.91416 134.402 10.2205 133.784 11.7434C133.165 13.2663 133.013 14.938 133.344 16.5469C133.676 18.1558 134.478 19.6308 135.649 20.7866C136.819 21.9425 138.307 22.7262 139.924 23.0404C141.54 23.3546 143.214 23.1843 144.732 22.5526C146.253 21.9193 147.552 20.8528 148.465 19.4853C149.379 18.1178 149.866 16.5122 149.866 14.8702C149.901 13.7591 149.707 12.6528 149.294 11.621ZM141.432 19.3001C139.138 19.3001 137.527 17.4795 137.527 14.8702C137.527 12.2609 139.128 10.4387 141.432 10.4387C143.736 10.4387 145.336 12.2593 145.336 14.8702C145.336 17.4812 143.784 19.3001 141.432 19.3001Z" fill="#4D9DDF"/>
<path d="M107.121 6.82601C106.746 6.79129 106.37 6.86404 106.035 7.03601C105.7 7.20798 105.423 7.4742 105.238 7.79995L105.12 8.04468L104.904 7.85948C103.718 6.88885 102.212 6.38947 100.679 6.45727C96.3924 6.45727 93.4932 9.68004 93.4932 14.4704C93.4932 19.2607 96.4902 22.6009 100.767 22.6009C102.027 22.6587 103.27 22.295 104.299 21.569L104.651 21.2962V21.7443C104.651 23.8956 103.255 25.0845 100.747 25.0845C99.6928 25.0696 98.6501 24.8745 97.6621 24.5091C97.4732 24.4132 97.2643 24.3635 97.0521 24.3619C96.8383 24.3619 96.6294 24.4098 96.4405 24.5057C96.2498 24.6 96.0841 24.7372 95.9581 24.9076C95.8321 25.0779 95.7459 25.2746 95.7094 25.483L94.8209 27.7037L95.1442 27.8691C96.8897 28.7355 98.8159 29.182 100.767 29.1737C104.671 29.1737 109.229 27.168 109.229 21.5492V6.82601H107.121ZM101.576 18.5993C99.0778 18.5993 98.1793 16.4083 98.1793 14.3629C98.1793 13.4584 98.4031 10.4688 101.332 10.4688C102.788 10.4688 104.739 10.8772 104.739 14.4604C104.739 18.0437 103.021 18.5993 101.576 18.5993Z" fill="#283A81"/>
<path d="M14.7498 13.602C14.2906 12.7471 13.6093 12.0328 12.7772 11.5301L12.1042 11.1597L12.6893 10.6719C13.2844 10.1494 13.7585 9.50285 14.0751 8.7786C14.3917 8.05269 14.5459 7.26726 14.5243 6.47521C14.5243 2.97134 11.8008 0.710938 7.60364 0.710938H2.25441C1.65434 0.734087 1.08742 0.985426 0.668033 1.41204C0.248648 1.84031 0.00828825 2.41079 0 3.00937V22.8734H7.6915C12.3677 22.8734 15.3929 20.3319 15.3929 16.3882C15.4327 15.4192 15.2106 14.4569 14.7498 13.602ZM4.26513 5.91135C4.26513 4.87953 4.70441 4.39174 5.66088 4.33386H7.61359C7.96501 4.30244 8.31975 4.34874 8.65294 4.46945C8.98612 4.59016 9.28782 4.78197 9.53646 5.03166C9.78677 5.28135 9.9774 5.58394 10.0968 5.91465C10.2178 6.24702 10.2625 6.60253 10.2294 6.95308C10.2675 7.31025 10.2277 7.67072 10.1133 8.01135C9.99895 8.35033 9.81163 8.6612 9.56464 8.92246C9.31765 9.18372 9.01762 9.38876 8.68443 9.5227C8.35124 9.65663 7.99153 9.71616 7.63348 9.69963H4.26513V5.91135ZM10.0321 18.1741C9.5 18.7346 8.7756 19.0703 8.00314 19.1149H4.26513V14.6553C4.26513 13.6814 4.64639 13.2051 5.45533 13.0877H8.00314C8.7756 13.1307 9.5 13.4681 10.0321 14.0286C10.5625 14.5892 10.8576 15.33 10.8576 16.1005C10.8576 16.8711 10.5625 17.6135 10.0321 18.1741Z" fill="#283A81"/>
<path d="M170.365 6.55283C169.417 6.55613 168.48 6.77275 167.628 7.18614C166.775 7.59952 166.025 8.19811 165.435 8.9389L165.104 9.36717L164.84 8.88929C164.417 8.12535 163.782 7.49866 163.013 7.08362C162.244 6.66858 161.369 6.48503 160.497 6.55283C159.7 6.56606 158.914 6.74133 158.188 7.06708C157.46 7.39283 156.809 7.86409 156.27 8.4511L155.841 8.91905L155.675 8.30559C155.522 7.84921 155.214 7.46062 154.803 7.20929C154.394 6.95629 153.906 6.85543 153.429 6.92322H151.476V22.9411H155.829V15.8722C155.836 15.2422 155.914 14.6155 156.063 14.0021C156.482 12.289 157.634 10.4486 159.567 10.6338C160.757 10.7512 161.344 11.6656 161.344 13.4481V22.9411H165.757V15.8722C165.739 15.2141 165.82 14.5577 166 13.9243C166.352 12.2989 167.552 10.6239 169.417 10.6239C170.765 10.6239 171.262 11.3828 171.262 13.4382V20.6047C171.262 22.2219 171.985 22.9411 173.604 22.9411H175.703V12.7173C175.703 8.62803 173.897 6.55283 170.363 6.55283H170.365Z" fill="#4D9DDF"/>
<path d="M130.5 17.3805C129.348 18.5826 127.79 19.3151 126.127 19.4358C125.526 19.4722 124.921 19.3813 124.355 19.1696C123.79 18.958 123.276 18.6289 122.847 18.2056C122.418 17.7823 122.083 17.273 121.864 16.7108C121.645 16.1502 121.547 15.5483 121.577 14.9464C121.526 14.3528 121.602 13.7559 121.798 13.192C121.995 12.6298 122.308 12.1139 122.718 11.6823C123.129 11.2491 123.626 10.9068 124.178 10.6803C124.73 10.4521 125.323 10.343 125.92 10.3612C126.741 10.3612 127.677 10.6538 127.823 11.1499V11.2375C127.919 11.5765 128.123 11.8758 128.407 12.0891C128.688 12.3024 129.032 12.4165 129.386 12.4165H131.778V10.3231C131.778 7.55839 128.254 6.55469 125.922 6.55469C120.856 6.55469 117.136 10.09 117.136 14.9382C117.136 19.7864 120.776 23.3316 125.784 23.3316C127.071 23.3184 128.34 23.0422 129.516 22.5197C130.691 21.9972 131.747 21.2398 132.617 20.294L130.802 17.1093L130.499 17.3821L130.5 17.3805Z" fill="#4D9DDF"/>
</g>
<defs>
<clipPath id="clip0_274_2563">
<rect width="175.704" height="29.1735" fill="white"/>
</clipPath>
</defs>
</svg>
