<svg width="132" height="30" viewBox="0 0 132 30" fill="none" xmlns="http://www.w3.org/2000/svg">
<g clip-path="url(#clip0_274_2594)">
<mask id="mask0_274_2594" style="mask-type:luminance" maskUnits="userSpaceOnUse" x="0" y="2" width="131" height="28">
<path d="M130.603 2.91748H0.155273V29.1737H130.603V2.91748Z" fill="white"/>
</mask>
<g mask="url(#mask0_274_2594)">
<path d="M18.7745 26.3638H4.97217C2.3167 26.3638 0.155273 24.2024 0.155273 21.5366V7.73434C0.155273 5.07891 2.3167 2.91748 4.97217 2.91748H18.7745C21.4402 2.91748 23.5913 5.07891 23.5913 7.73434V21.5366C23.6016 24.2024 21.4402 26.3638 18.7745 26.3638Z" fill="#FDDB32"/>
<path d="M7.31716 21.8047V19.53C7.31716 19.3448 7.17303 19.2007 6.98781 19.2007H4.71315C4.52788 19.2007 4.38379 19.3448 4.38379 19.53V21.8047C4.38379 21.99 4.52788 22.1341 4.71315 22.1341H6.98781C7.17303 22.1341 7.31716 21.99 7.31716 21.8047Z" fill="#191E3B"/>
<path d="M19.3722 19.8485V8.63996C19.3722 7.80621 18.7032 7.13721 17.8695 7.13721H6.66094C6.43451 7.13721 6.30073 7.21958 6.15663 7.36364L3.92316 9.6177C3.75847 9.78238 3.87169 10.0294 4.11872 10.0294H14.2569L7.96811 16.3181C7.85489 16.4313 7.80343 16.5446 7.80343 16.7298V18.387C7.80343 18.5825 7.93726 18.7163 8.13278 18.7163H9.7899C9.98543 18.7163 10.0986 18.6649 10.2016 18.5516L16.4903 12.2629V22.401C16.4903 22.648 16.7373 22.7613 16.902 22.5966L19.1561 20.3528C19.2899 20.2087 19.3722 20.0749 19.3722 19.8485Z" fill="#191E3B"/>
<path d="M53.3988 16.9564L57.9893 10.6163C58.1231 10.4207 58.0202 10.2251 57.7937 10.2251H55.2926C55.1589 10.2251 54.9839 10.2766 54.9015 10.4207L51.8756 14.8362L48.7775 10.4207C48.6951 10.2869 48.5305 10.2251 48.3864 10.2251H45.7206C45.5869 10.2251 45.4942 10.3383 45.4942 10.4515C45.4942 10.5031 45.4942 10.5648 45.5456 10.6163L50.1464 16.977L45.0722 23.9553C44.9384 24.1509 45.0413 24.3465 45.2369 24.3465H47.7585C47.8924 24.3465 48.0673 24.295 48.1497 24.1509L51.6594 19.0973L55.2206 24.1509C55.3029 24.295 55.4676 24.3465 55.6118 24.3465H58.2981C58.4319 24.3465 58.5245 24.2332 58.5245 24.12C58.5245 24.0686 58.4936 24.0068 58.4731 23.9553L53.3988 16.9564Z" fill="#191E3B"/>
<path d="M43.1474 4.92432C43.3429 4.92432 43.4767 5.05812 43.4767 5.25368V7.13723C43.4767 7.33275 43.3429 7.46658 43.1474 7.46658H34.1826V13.0657H42.2314C42.4269 13.0657 42.5607 13.1995 42.5607 13.3951V15.2683C42.5607 15.4639 42.4269 15.5976 42.2314 15.5976H34.1826V21.732H43.1474C43.3429 21.732 43.4767 21.8658 43.4767 22.0614V24.0066C43.4767 24.2022 43.3429 24.336 43.1474 24.336H32.6593C31.8565 24.336 31.2493 23.7287 31.2493 22.9259V6.3344C31.2493 5.53158 31.8565 4.92432 32.6593 4.92432H43.1474Z" fill="#191E3B"/>
<path d="M67.972 9.78271C65.2552 9.78271 63.8139 10.9766 62.9803 12.0882V10.5546C62.9803 10.359 62.8468 10.2253 62.6513 10.2253H60.4587C60.2632 10.2253 60.1294 10.3694 60.1294 10.5546V28.8341C60.1294 29.0297 60.2632 29.1635 60.4587 29.1635H62.6817C62.8772 29.1635 63.0113 29.0297 63.0113 28.8341V22.5351C63.8139 23.6467 65.2552 24.7583 67.972 24.7583C72.3878 24.7583 74.9607 21.4338 74.9607 17.2654C74.9607 13.0969 72.3878 9.78271 67.972 9.78271ZM67.478 22.3704C64.7611 22.3704 62.8983 20.5384 62.8983 17.2962C62.8983 14.0541 64.7611 12.1602 67.478 12.1602C70.1954 12.1602 72.0278 14.0438 72.0278 17.2962C72.0278 20.5384 70.1954 22.3704 67.478 22.3704Z" fill="#191E3B"/>
<path d="M83.7096 9.78271C79.85 9.78271 76.7725 12.5617 76.7725 17.1624C76.7725 21.8764 79.4893 24.7686 84.0696 24.7686C86.7045 24.7686 88.8969 23.6055 90.2556 21.9896C90.3375 21.9072 90.3686 21.8249 90.3686 21.7426C90.3686 21.6603 90.3375 21.5779 90.2556 21.4956L88.9794 20.2399C88.8969 20.1575 88.8143 20.1267 88.7324 20.1267C88.6498 20.1267 88.5673 20.1781 88.4853 20.2605C87.4351 21.4029 86.0664 22.3704 84.1006 22.3704C81.2286 22.3704 79.85 20.6001 79.6333 18.0476H90.286C90.4815 18.0476 90.6156 17.9035 90.6156 17.7182V17.1624C90.6156 12.9425 88.0632 9.78271 83.7096 9.78271ZM79.7364 15.8861C80.066 13.5703 81.2801 12.0573 83.6891 12.0573C86.1589 12.0573 87.4661 13.4674 87.6511 15.8861H79.7364Z" fill="#191E3B"/>
<path d="M130.283 10.2252H128.09C127.895 10.2252 127.761 10.359 127.761 10.5545V12.1087C126.927 10.9971 125.487 9.80322 122.708 9.80322C118.354 9.80322 115.771 13.1277 115.771 17.2962C115.771 21.4646 118.354 24.7891 122.708 24.7891C125.487 24.7891 126.927 23.5952 127.761 22.4836V24.0069C127.761 24.2024 127.895 24.3362 128.09 24.3362H130.283C130.478 24.3362 130.612 24.2024 130.612 24.0069V10.5545C130.622 10.359 130.478 10.2252 130.283 10.2252ZM123.263 22.4012C120.546 22.4012 118.714 20.5177 118.714 17.2653C118.714 14.0231 120.546 12.191 123.263 12.191C125.981 12.191 127.843 14.0231 127.843 17.2653C127.843 20.5177 125.981 22.4012 123.263 22.4012Z" fill="#191E3B"/>
<path d="M106.931 4.92432H104.708C104.512 4.92432 104.379 5.05812 104.379 5.25368V12.1085C103.545 10.9969 102.135 9.80295 99.356 9.80295C95.0024 9.80295 92.4189 13.1274 92.4189 17.2959C92.4189 21.4644 95.0024 24.7888 99.356 24.7888C102.135 24.7888 103.576 23.595 104.409 22.4833V24.0066C104.409 24.2022 104.543 24.336 104.739 24.336H106.931C107.127 24.336 107.26 24.2022 107.26 24.0066V5.25368C107.26 5.05812 107.127 4.92432 106.931 4.92432ZM99.9116 22.401C97.1947 22.401 95.3624 20.5175 95.3624 17.265C95.3624 14.0229 97.1947 12.1908 99.9116 12.1908C102.629 12.1908 104.492 14.0229 104.492 17.265C104.492 20.5175 102.629 22.401 99.9116 22.401Z" fill="#191E3B"/>
<path d="M112.973 4.92432C113.168 4.92432 113.302 5.05812 113.302 5.25368V7.52834C113.302 7.72387 113.168 7.85769 112.973 7.85769H110.698C110.502 7.85769 110.369 7.72387 110.369 7.52834V5.25368C110.369 5.05812 110.502 4.92432 110.698 4.92432H112.973Z" fill="#191E3B"/>
<path d="M112.95 10.2251C113.146 10.2251 113.279 10.3589 113.279 10.5545V24.0068C113.279 24.2023 113.146 24.3362 112.95 24.3362H110.727C110.531 24.3362 110.397 24.2023 110.397 24.0068V10.5545C110.397 10.3589 110.531 10.2251 110.727 10.2251H112.95Z" fill="#191E3B"/>
</g>
</g>
<defs>
<clipPath id="clip0_274_2594">
<rect width="131.281" height="29.1735" fill="white"/>
</clipPath>
</defs>
</svg>
