<svg width="191" height="30" viewBox="0 0 191 30" fill="none" xmlns="http://www.w3.org/2000/svg">
<g clip-path="url(#clip0_274_2592)">
<path d="M189.015 22.5285C188.881 22.5285 188.748 22.5549 188.624 22.6063C188.499 22.6576 188.387 22.733 188.292 22.8279C188.197 22.9229 188.121 23.0357 188.07 23.1598C188.018 23.2839 187.992 23.4169 187.992 23.5513C187.992 23.6856 188.018 23.8187 188.069 23.9428C188.121 24.067 188.196 24.1798 188.291 24.2748C188.386 24.3699 188.499 24.4453 188.623 24.4967C188.747 24.5482 188.88 24.5747 189.014 24.5747C189.286 24.5748 189.546 24.4671 189.738 24.2753C189.93 24.0835 190.038 23.8233 190.038 23.552C190.038 23.2806 189.93 23.0203 189.738 22.8284C189.547 22.6365 189.286 22.5286 189.015 22.5285ZM189.015 24.4146C188.786 24.4146 188.567 24.3237 188.405 24.1618C188.243 24 188.152 23.7805 188.152 23.5516C188.152 23.3227 188.243 23.1032 188.405 22.9414C188.567 22.7795 188.786 22.6886 189.015 22.6886C189.244 22.6886 189.463 22.7795 189.625 22.9414C189.787 23.1032 189.878 23.3227 189.878 23.5516C189.878 23.7805 189.787 24 189.625 24.1618C189.463 24.3237 189.244 24.4146 189.015 24.4146ZM189.347 23.3776C189.347 23.1914 189.214 23.0808 189.02 23.0808H188.692V24.013H188.854V23.6748H189.028L189.197 24.013H189.37L189.187 23.6398C189.237 23.6174 189.28 23.5804 189.308 23.5335C189.337 23.4867 189.35 23.4324 189.347 23.3776ZM189.013 23.5323H188.855V23.2236H189.013C189.121 23.2236 189.186 23.2779 189.186 23.3776C189.186 23.4773 189.121 23.5336 189.013 23.5336V23.5323ZM68.5492 9.67484H70.3243V13.1889H68.247C66.6473 13.1889 65.6206 13.9739 65.6206 15.5743V24.4082H61.8232V9.67552H65.6206V12.1509C65.953 10.3998 67.1606 9.67484 68.5492 9.67484ZM76.1761 6.17198C76.1761 6.47333 76.1166 6.77172 76.0012 7.05009C75.8858 7.32846 75.7167 7.58138 75.5035 7.79439C75.2904 8.00739 75.0374 8.17633 74.7589 8.29154C74.4805 8.40674 74.1821 8.46597 73.8808 8.46584C73.2725 8.46566 72.6893 8.22392 72.2592 7.79377C71.8292 7.36361 71.5875 6.78027 71.5874 6.17198C71.5874 4.87342 72.5833 3.84692 73.8818 3.84692C75.1799 3.84692 76.1761 4.87342 76.1761 6.17198ZM71.988 9.67451H75.7738V24.4075H71.9867L71.988 9.67451ZM86.2046 9.42585C84.5905 9.41802 83.0191 9.94343 81.7343 10.9205V9.67451H77.9478V28.7323H81.7343V23.1622C83.019 24.1394 84.5905 24.6649 86.2046 24.6572C90.4103 24.6572 93.8173 21.2476 93.8173 17.0415C93.8173 12.8361 90.4103 9.42653 86.2046 9.42653M85.8712 21.1787C83.5863 21.1787 81.7343 19.3265 81.7343 17.0418C81.7343 14.7571 83.5863 12.9046 85.8712 12.9046C88.156 12.9046 90.0077 14.7568 90.0077 17.0418C90.0077 19.3269 88.1557 21.1784 85.8712 21.1787ZM163.249 19.7543C163.249 22.595 160.813 24.6572 157.455 24.6572C154.098 24.6572 151.538 22.5461 151.538 19.5236V19.4415H155.244V19.5236C155.244 20.7849 156.144 21.6326 157.486 21.6326C158.828 21.6326 159.636 21.005 159.636 20.0715C159.636 19.1871 159.038 18.6925 157.43 18.2478L155.314 17.6704C153.09 17.0683 151.815 15.6191 151.815 13.6943C151.815 11.2214 154.147 9.42653 157.363 9.42653C160.579 9.42653 162.789 11.2224 162.789 13.8965V13.9803H159.298V13.8965C159.298 12.9888 158.448 12.2777 157.363 12.2777C156.224 12.2777 155.428 12.8008 155.428 13.5502C155.428 14.2999 155.995 14.7646 157.448 15.1429L159.659 15.749C162.627 16.5411 163.249 18.3645 163.249 19.7543ZM107.259 10.9208C105.974 9.94323 104.401 9.41767 102.787 9.42585C98.581 9.42585 95.172 12.8358 95.172 17.0415C95.172 21.2472 98.582 24.6568 102.787 24.6568C104.401 24.6646 105.972 24.139 107.257 23.1618V24.4078H111.044V9.67518H107.257L107.259 10.9208ZM107.259 17.0418C107.259 19.3265 105.407 21.1787 103.122 21.1784C100.837 21.1784 98.9853 19.3259 98.9856 17.0412C98.9856 14.7561 100.838 12.9043 103.123 12.9043C105.407 12.9053 107.258 14.7575 107.258 17.0418H107.259ZM124.724 10.9208C123.44 9.94372 121.868 9.41819 120.254 9.42585C116.049 9.42585 112.639 12.8358 112.639 17.0415C112.639 21.2472 116.049 24.6568 120.254 24.6568C121.868 24.6645 123.44 24.1389 124.724 23.1618V24.4078H128.512V4.43073H124.724V10.9208ZM120.588 21.1784C118.304 21.1784 116.452 19.3265 116.451 17.0418C116.451 14.7571 118.303 12.905 120.588 12.9043C122.872 12.9043 124.724 14.7565 124.724 17.0412C124.725 19.3259 122.873 21.1784 120.588 21.1784ZM146.101 9.67654H149.888V24.4078H146.101V9.67654ZM150.289 6.17334C150.289 6.47466 150.23 6.77304 150.114 7.05142C149.999 7.32981 149.83 7.58275 149.617 7.79582C149.404 8.00889 149.151 8.1779 148.873 8.29321C148.594 8.40852 148.296 8.46787 147.995 8.46787C147.693 8.46787 147.395 8.40852 147.117 8.29321C146.838 8.1779 146.585 8.00889 146.372 7.79582C146.159 7.58275 145.99 7.32981 145.875 7.05142C145.76 6.77304 145.7 6.47466 145.7 6.17334C145.7 4.87478 146.696 3.84828 147.995 3.84828C149.293 3.84828 150.287 4.87308 150.287 6.17164L150.289 6.17334ZM172.01 9.42755C167.805 9.42755 164.396 12.8371 164.396 17.0432C164.396 21.2493 167.805 24.6585 172.01 24.6585C176.216 24.6585 179.623 21.2489 179.623 17.0429C179.623 12.8375 176.213 9.42619 172.008 9.42619L172.01 9.42755ZM172.01 21.1801C169.726 21.1801 167.874 19.3279 167.874 17.0432C167.874 14.7585 169.726 12.906 172.01 12.906C174.295 12.906 176.147 14.7582 176.147 17.0432C176.146 19.3276 174.294 21.1794 172.01 21.1784H172.008L172.01 21.1801ZM63.6814 7.81045H58.303V24.4078H54.5288V7.81045H49.1501V4.43073H63.68L63.6814 7.81045ZM140.536 9.67484H144.514L139.431 24.4078H134.875L129.819 9.67518H133.797L137.167 20.3734L140.536 9.67484ZM188.103 9.67484H189.878V13.1889H187.801C186.201 13.1889 185.174 13.9739 185.174 15.5743V24.4082H181.377V9.67552H185.174V12.1509C185.506 10.3998 186.714 9.67484 188.103 9.67484ZM15.0971 16.8461C15.0971 19.0294 13.3272 20.7995 11.1444 20.7995C8.96166 20.7995 7.19171 19.0294 7.19171 16.8461C7.19171 14.6632 8.96166 12.8928 11.1444 12.8928C13.3272 12.8928 15.0971 14.6632 15.0971 16.8461ZM33.4234 12.8928C31.2406 12.8928 29.4707 14.6632 29.4707 16.8461C29.4707 19.0294 31.2406 20.7995 33.4234 20.7995C35.6061 20.7995 37.3761 19.0294 37.3761 16.8461C37.3754 14.6642 35.6072 12.8951 33.4254 12.8941L33.4234 12.8928ZM44.5678 16.8461C44.5678 22.9983 39.5765 27.9863 33.4234 27.9863C30.6166 27.9912 27.9124 26.9317 25.8558 25.0215L22.2888 28.9022L18.7204 25.0171C16.6639 26.9294 13.9586 27.9904 11.1505 27.986C5.00184 27.986 0.0122112 22.9983 0.0122112 16.8458C0.0100347 15.296 0.332122 13.7628 0.95777 12.3449C1.58342 10.927 2.49879 9.65572 3.64504 8.61272L0 4.64648H8.09873C16.6679 -1.1862 27.9307 -1.1862 36.4999 4.64648H44.5776L40.9329 8.61272C42.0796 9.65557 42.9954 10.9269 43.6214 12.3448C44.2474 13.7628 44.5698 15.2961 44.5678 16.8461ZM18.6852 16.8461C18.6852 12.6828 15.3101 9.30678 11.1471 9.30678C6.98412 9.30678 3.60909 12.6828 3.60909 16.8461C3.60909 21.0094 6.98412 24.3854 11.1471 24.3854C15.3101 24.3854 18.6848 21.0108 18.6852 16.8475V16.8461ZM30.6532 5.59055C28.0024 4.48608 25.1591 3.91745 22.2875 3.91745C19.4158 3.91745 16.5726 4.48608 13.9218 5.59055C18.6808 7.4122 22.2888 11.6675 22.2888 16.629C22.2888 11.6678 25.8959 7.4122 30.6532 5.59055ZM40.9635 16.8458C40.9635 12.6821 37.5884 9.30644 33.4254 9.30644C29.2624 9.30644 25.8874 12.6818 25.8874 16.8458C25.8874 21.0091 29.2624 24.3851 33.4254 24.3851C37.5884 24.3851 40.9635 21.0091 40.9635 16.8458Z" fill="#002B11"/>
</g>
<defs>
<clipPath id="clip0_274_2592">
<rect width="190.291" height="29.1735" fill="white"/>
</clipPath>
</defs>
</svg>
