<svg width="121" height="30" viewBox="0 0 121 30" fill="none" xmlns="http://www.w3.org/2000/svg">
<g clip-path="url(#clip0_274_2576)">
<path d="M46.1469 6.8291C44.423 6.8291 42.8317 7.55844 41.7045 8.88451V7.55844H37.2622V29.1734H42.1687V21.6148C43.2958 22.543 44.6219 23.0735 46.0806 23.0735C50.4566 23.0072 53.9707 19.4268 53.9044 14.9844C54.037 10.5421 50.5229 6.96171 46.1469 6.8291ZM53.9707 14.9181C54.037 10.5421 50.5229 6.89541 46.1469 6.8291L53.9707 14.9181ZM45.6165 18.5648C43.6273 18.6311 41.9698 17.1061 41.9035 15.117C41.8372 13.1279 43.3621 11.4703 45.3512 11.404C47.3403 11.3377 48.9979 12.8627 49.0642 14.8518C49.0642 14.9181 49.0642 14.9181 49.0642 14.9844C49.1305 16.9072 47.6056 18.4985 45.6165 18.5648Z" fill="#287DFA"/>
<path d="M62.0597 20.0897C62.0597 21.7472 60.7336 23.0733 59.1423 23.0733C57.4848 23.0733 56.1587 21.7472 56.1587 20.156C56.1587 18.4984 57.4848 17.1723 59.076 17.1723C60.7336 17.106 62.0597 18.4321 62.0597 20.0897Z" fill="#FCB404"/>
<path fill-rule="evenodd" clip-rule="evenodd" d="M31.3614 5.50319C29.8364 5.50319 28.5767 4.30973 28.5767 2.78475C28.5767 1.25977 29.8364 0 31.3614 0C32.8864 0 34.1462 1.19346 34.1462 2.71844C34.1462 4.24343 32.8864 5.50319 31.3614 5.50319Z" fill="#287DFA"/>
<path d="M33.8811 7.55859H28.9746V22.278H33.8811V7.55859Z" fill="#287DFA"/>
<path fill-rule="evenodd" clip-rule="evenodd" d="M0 0.729492V4.84031H6.36514V22.2781H11.2716V4.84031H17.6367V0.729492H0Z" fill="#287DFA"/>
<path d="M72.4031 18.4987C70.414 18.4987 68.8228 16.9074 68.8228 14.9183C68.8228 12.9292 70.414 11.3379 72.4031 11.3379C73.3314 11.3379 74.2597 11.7357 74.8564 12.4651L78.1053 9.21618C74.9227 6.09992 69.8173 6.09992 66.701 9.28249C63.5848 12.4651 63.5848 17.5704 66.7673 20.6867C69.8836 23.803 74.989 23.803 78.1716 20.6867L74.9227 17.4378C74.1933 18.1009 73.3314 18.4987 72.4031 18.4987Z" fill="#287DFA"/>
<path fill-rule="evenodd" clip-rule="evenodd" d="M115.302 6.82894C113.445 6.69633 111.655 7.62458 110.727 9.21586C109.798 7.69088 108.141 6.76263 106.351 6.82894C104.561 6.76263 102.903 7.69088 102.041 9.21586V7.55828H97.5986V22.2777H102.505V13.1278C102.439 11.9343 103.301 10.9398 104.494 10.8071C105.688 10.7408 106.682 11.6028 106.815 12.7963C106.815 12.8626 106.815 12.9952 106.815 13.0615V22.2114H111.456V13.1278C111.39 11.9343 112.252 10.9398 113.445 10.8071C114.639 10.6745 115.633 11.6028 115.766 12.7963C115.766 12.8626 115.766 12.9952 115.766 13.0615V22.2114H120.672V12.1995C120.672 8.88435 118.617 6.82894 115.302 6.82894Z" fill="#287DFA"/>
<path d="M87.1227 6.8291C82.6804 6.8291 79.0337 10.4095 79.0337 14.9181C79.0337 19.4268 82.6141 23.0072 87.1227 23.0072C91.5651 23.0072 95.2118 19.4268 95.2118 14.9181C95.2118 10.4095 91.5651 6.8291 87.1227 6.8291ZM87.1227 18.4985C85.1336 18.5648 83.476 17.0398 83.4097 15.0507C83.3434 13.0616 84.8684 11.404 86.8575 11.3377C88.8466 11.2714 90.5042 12.7964 90.5705 14.7855C90.5705 14.8518 90.5705 14.8518 90.5705 14.9181C90.5705 16.8409 89.0455 18.4322 87.1227 18.4985Z" fill="#287DFA"/>
<path d="M25.5268 7.49219C23.7366 7.49219 22.079 8.35413 21.0844 9.87911V7.55849H16.6421V22.2779H21.5486V16.1116C21.4822 13.9236 23.1398 12.0671 25.3279 12.0008C25.4605 12.0008 25.5268 12.0008 25.6594 12.0008C25.9246 12.0008 26.1898 12.0008 26.455 12.0671V7.55849C26.1898 7.55849 25.8583 7.55849 25.5268 7.49219Z" fill="#287DFA"/>
</g>
<defs>
<clipPath id="clip0_274_2576">
<rect width="120.672" height="29.1735" fill="white"/>
</clipPath>
</defs>
</svg>
