<svg width="116" height="29" viewBox="0 0 116 29" fill="none" xmlns="http://www.w3.org/2000/svg">
<g clip-path="url(#clip0_274_2588)">
<path d="M112.856 24.5805C113.184 24.5643 113.51 24.6465 113.791 24.8163C114.073 24.9862 114.296 25.236 114.433 25.5334C114.57 25.8309 114.614 26.1624 114.56 26.4851C114.506 26.8078 114.356 27.1069 114.129 27.3438C113.902 27.5808 113.609 27.7446 113.287 27.8143C112.966 27.8839 112.631 27.8561 112.326 27.7345C112.02 27.6129 111.758 27.403 111.574 27.132C111.39 26.861 111.291 26.5412 111.292 26.214C111.282 25.7912 111.441 25.3816 111.734 25.0754C112.027 24.7691 112.431 24.5911 112.856 24.5805ZM112.856 24.3471C112.485 24.3471 112.122 24.4566 111.813 24.6618C111.504 24.8669 111.264 25.1585 111.122 25.4996C110.98 25.8407 110.942 26.2161 111.015 26.5782C111.087 26.9404 111.266 27.273 111.529 27.5341C111.791 27.7952 112.126 27.973 112.49 28.045C112.854 28.1171 113.231 28.0801 113.574 27.9388C113.917 27.7975 114.21 27.5582 114.417 27.2512C114.623 26.9442 114.733 26.5833 114.733 26.214C114.733 25.7189 114.535 25.244 114.183 24.8939C113.831 24.5438 113.354 24.3471 112.856 24.3471ZM113.128 26.2545C113.242 26.2318 113.345 26.1709 113.419 26.0821C113.494 25.9932 113.536 25.8817 113.538 25.766C113.538 25.4237 113.241 25.2806 112.815 25.2806H112.271V27.1475H112.584V26.3074H112.834L113.228 26.9297C113.353 27.1257 113.375 27.1381 113.541 27.1381H113.7V27.1195L113.128 26.2545ZM112.79 26.2234H112.577V25.3646H112.768C113.081 25.3646 113.209 25.4828 113.209 25.7909C113.209 26.0989 113.122 26.2078 112.79 26.2078V26.2234ZM25.0205 5.66268H31.9499V28.0654H25.0205V5.66268ZM69.8939 25.8251C67.8573 25.8251 66.8875 24.6085 66.8875 22.53V7.52957H72.3903V5.66268H66.8875V0.0620117H60.2303L59.9175 5.66268H56.9643V7.52957H59.9175V22.2873C59.9175 26.0896 62.1074 28.5694 66.5934 28.5694C69.9564 28.5694 71.9461 27.2035 72.7595 25.3801L72.4466 25.0254C71.7061 25.5616 70.8097 25.8424 69.8939 25.8251Z" fill="#008768"/>
<path d="M84.372 5.15584C76.9827 5.15584 72.2933 10.2742 72.2933 16.9795C72.2933 23.6163 76.673 28.5822 84.2187 28.5822C91.9145 28.5822 96.2942 23.4669 96.2942 16.7741C96.2942 10.1249 91.708 5.15584 84.372 5.15584ZM84.3219 26.9518C80.5991 26.9518 80.0861 23.9585 80.0861 16.8021C80.0861 9.75773 80.5929 6.7147 84.2625 6.7147C87.9821 6.7147 88.492 9.75773 88.492 16.9017C88.4983 23.9087 88.0415 26.9518 84.3219 26.9518ZM105.992 9.51503L105.839 5.66301H99.1128V28.0657H106.052V10.1249C106.468 9.99442 106.901 9.92523 107.337 9.91952C108.573 9.91952 110.012 10.4267 114.332 12.4554L114.742 12.3029V6.01772C113.944 5.44271 112.981 5.14032 111.995 5.15584C110.053 5.15584 107.791 6.37243 105.992 9.51503ZM47.9733 25.3805L48.7711 28.0657H54.6993V10.8343C54.6993 7.03207 51.693 5.15584 46.7501 5.15584C43.4372 5.15584 39.3609 6.06751 36.5579 6.98228L36.2451 10.8841L36.6549 11.0863C41.9543 7.53924 43.5373 6.73025 45.1641 6.73025C47.0411 6.73025 47.8138 7.69481 47.8138 9.72039V14.3876C39.9678 16.0087 35.1752 17.1879 35.1752 22.4961C35.1752 26.1459 37.6216 28.5791 41.5477 28.5791C44.5603 28.5729 46.8002 27.154 47.9733 25.3805ZM42.0107 21.2235C42.0107 17.776 43.1838 16.9141 47.82 15.9527V24.5808C46.9825 25.244 45.9335 25.5863 44.8637 25.5454C42.8772 25.5329 42.0107 24.4159 42.0107 21.2235ZM13.2609 28.0657L15.4664 23.1402L7.64236 5.66301H0.234375L10.2639 28.0657H13.2609Z" fill="#008768"/>
<path d="M17.9098 13.5973C20.2423 13.5973 22.1331 11.7167 22.1331 9.39679C22.1331 7.07692 20.2423 5.19629 17.9098 5.19629C15.5774 5.19629 13.6865 7.07692 13.6865 9.39679C13.6865 11.7167 15.5774 13.5973 17.9098 13.5973Z" fill="#008768"/>
</g>
<defs>
<clipPath id="clip0_274_2588">
<rect width="115.368" height="28.5105" fill="white"/>
</clipPath>
</defs>
</svg>
