<svg width="46" height="46" viewBox="0 0 46 46" fill="none" xmlns="http://www.w3.org/2000/svg">
<path d="M35.9375 10.7812C38.3192 10.7812 40.25 8.85048 40.25 6.46875C40.25 4.08702 38.3192 2.15625 35.9375 2.15625C33.5558 2.15625 31.625 4.08702 31.625 6.46875C31.625 8.85048 33.5558 10.7812 35.9375 10.7812Z" fill="#62C4C3"/>
<path d="M33.0625 25.875L30.9062 35.2188L26.5938 41.6875L30.1875 44.5625L35.9375 36.6562L38.0938 29.4688L33.0625 25.875Z" fill="#42A5B2"/>
<path d="M31.625 15.8125L26.5938 22.2812L29.4688 25.1562L34.5 18.6875L31.625 15.8125Z" fill="#42A5B2"/>
<path d="M40.9688 25.875V13.6562C40.9688 12.0685 39.6815 10.7812 38.0938 10.7812H33.7812C32.1935 10.7812 30.9062 12.0685 30.9062 13.6562V22.3021C30.9062 24.5899 31.8147 26.7835 33.4327 28.4007L39.5312 34.5V44.5625H43.8438V33.0625L40.9688 25.875Z" fill="#62C4C3"/>
<path d="M40.9687 25.8751V23.1899L37.0414 21.2262L34.3763 15.2283L31.7485 16.3962L34.8334 23.3365L41.2332 26.5364L40.9687 25.8751Z" fill="#42A5B2"/>
<path d="M27.715 21.9656L19.4497 30.231L20.4662 31.2474L28.7315 22.9821L27.715 21.9656Z" fill="#3A4249"/>
<path d="M10.0422 42.688L2.92725 35.5731L14.1081 24.3915C14.6695 23.8301 15.5801 23.8301 16.1407 24.3915L21.2237 29.4737C21.7844 30.0351 21.7844 30.9457 21.2237 31.5071L10.0422 42.688Z" fill="#EF941D"/>
<path d="M2.92697 35.573L1.65622 36.8437C1.23504 37.2649 1.23504 37.947 1.65622 38.3682C2.07741 38.7894 2.76022 38.7894 3.18141 38.3682L4.45216 37.0975L2.92697 35.573Z" fill="#E0C494"/>
<path d="M8.51779 41.1636L7.24704 42.4343C6.82586 42.8555 6.82586 43.5376 7.24704 43.9588C7.66823 44.38 8.35104 44.38 8.77223 43.9588L10.0423 42.688L8.51779 41.1636Z" fill="#E0C494"/>
<path d="M13.8661 31.117L10.2725 34.7107L11.2889 35.7271L14.8826 32.1335L13.8661 31.117Z" fill="#3A4249"/>
<path d="M16.7415 28.2419L15.3042 29.6792L16.3207 30.6957L17.7579 29.2584L16.7415 28.2419Z" fill="#3A4249"/>
<path d="M33.0625 15.8125L35.9375 22.2812L41.6875 25.1562L43.8438 21.5625L38.8125 18.6875L37.375 14.375L34.5 13.6562L33.0625 15.8125Z" fill="#62C4C3"/>
</svg>
