<svg width="34" height="34" viewBox="0 0 34 34" fill="none" xmlns="http://www.w3.org/2000/svg">
<path d="M6.60799 25.0526L1.65363 21.1557C1.383 20.9522 1.29439 20.5928 1.45682 20.3576C2.2509 19.2076 3.78058 18.8148 5.28358 19.375L9.76431 21.9167L6.60799 25.0526Z" fill="#42A8C3"/>
<path d="M8.27051 26.7152L12.1776 31.6798C12.3812 31.9504 12.7406 32.0391 12.9758 31.8766L13.2712 31.6727C14.2439 31.001 14.576 29.7072 14.1022 28.4359L11.4166 23.5691L8.27051 26.7152Z" fill="#42A8C3"/>
<path d="M6.89687 20.29L4.09375 23.075L6.60781 25.0525L9.76419 21.9165L6.89687 20.29Z" fill="#219FC0"/>
<path d="M7.95044 9.79024C7.32824 9.16804 7.27902 8.17663 7.83488 7.49454C8.62994 6.51889 9.62603 5.43249 10.2236 4.83497C11.041 4.01752 11.1124 4.11518 11.9858 3.57983C12.1144 3.50099 12.2803 3.52 12.387 3.62664L14.1141 5.35378C14.2208 5.46042 14.2397 5.62637 14.1609 5.75496C13.6256 6.62833 13.7232 6.69968 12.9058 7.51713C12.3083 8.11465 11.2219 9.11075 10.2462 9.9058C9.56405 10.4616 8.57258 10.4124 7.95044 9.79024Z" fill="#FFBFAB"/>
<path d="M23.5432 25.383C22.921 24.7608 22.8718 23.7694 23.4277 23.0873C24.2227 22.1117 25.2188 21.0253 25.8163 20.4277C26.6338 19.6103 26.7051 19.708 27.5786 19.1726C27.7071 19.0938 27.8731 19.1128 27.9797 19.2194L29.7069 20.9466C29.8135 21.0532 29.8325 21.2191 29.7537 21.3477C29.2183 22.2211 29.316 22.2925 28.4985 23.11C27.901 23.7075 26.8146 24.7036 25.839 25.4986C25.1568 26.0544 24.1654 26.0052 23.5432 25.383Z" fill="#FFBFAB"/>
<path d="M15.7501 15.6798L21.8626 9.56734L2.92755 3.61813C2.53764 3.51858 2.15001 3.61338 1.89207 3.87132L0.292331 5.47106C-0.243411 6.0068 -0.0134629 6.98889 0.742852 7.39501L15.7501 15.6798Z" fill="#42A8C3"/>
<path d="M17.5842 8.22314L12.1274 13.6799L15.7502 15.6798L21.8626 9.56735L17.5842 8.22314Z" fill="#219FC0"/>
<path d="M17.6533 17.5831L23.7658 11.4707L29.715 30.4057C29.8145 30.7956 29.7197 31.1833 29.4618 31.4412L27.862 33.041C27.3263 33.5767 26.3442 33.3467 25.9381 32.5904L17.6533 17.5831Z" fill="#42A8C3"/>
<path d="M29.1907 8.90124L18.922 19.1699C17.1989 20.893 15.3671 22.5001 13.4492 23.9714L8.56355 27.7193C7.43249 28.587 6.08731 28.6919 5.36433 27.9689C4.64134 27.246 4.74629 25.9008 5.614 24.7697L9.36192 19.884C10.8331 17.9662 12.4402 16.1344 14.1634 14.4113L24.4321 4.14264C25.8359 2.73887 27.4481 1.56927 29.1513 0.766274C30.6181 0.0748029 32.1771 -0.3584 32.9344 0.398891C33.6917 1.15618 33.2585 2.71523 32.567 4.18196C31.7641 5.88528 30.5945 7.49746 29.1907 8.90124Z" fill="#E0F3FC"/>
<path d="M32.9341 0.39904C32.6676 0.132503 32.3014 0.0138835 31.8752 0.00170898C31.9059 0.790381 31.5639 1.79064 31.111 2.75132C30.308 4.45451 29.1384 6.06675 27.7346 7.47052L17.4659 17.7392C15.7429 19.4623 13.911 21.0694 11.9932 22.5406L7.10752 26.2885C6.38812 26.8404 5.58226 27.0832 4.90479 27.0011C4.9557 27.3771 5.10745 27.7123 5.36409 27.969C6.08708 28.6919 7.43226 28.587 8.56331 27.7193L13.449 23.9714C15.3668 22.5001 17.1986 20.893 18.9217 19.1699L29.1904 8.90132C30.5942 7.49754 31.7638 5.8853 32.5668 4.18211C33.2582 2.71538 33.6914 1.15633 32.9341 0.39904Z" fill="#C3D3DB"/>
<path d="M30.0414 6.93472L29.6908 7.28537C29.3651 7.61102 25.7223 3.96819 26.0479 3.64254L26.3986 3.29188C26.6196 3.07086 26.944 3.00119 27.2082 3.11806C28.5246 3.70035 29.633 4.80881 30.2153 6.12515C30.332 6.38928 30.2624 6.71369 30.0414 6.93472Z" fill="#51C4F5"/>
<path d="M6.47362 27.3478C6.34868 27.3478 6.22368 27.3001 6.12837 27.2048C5.93768 27.0141 5.93768 26.7049 6.12837 26.5143L10.3924 22.2502C10.5831 22.0595 10.8923 22.0595 11.0829 22.2502C11.2736 22.4409 11.2736 22.7501 11.0829 22.9407L6.81886 27.2048C6.72355 27.3001 6.59862 27.3478 6.47362 27.3478Z" fill="#42A8C3" fill-opacity="0.92"/>
</svg>
