<svg width="40" height="40" viewBox="0 0 40 40" fill="none" xmlns="http://www.w3.org/2000/svg">
<g clip-path="url(#clip0_308_634)">
<path d="M8.83336 13H0V40H8.83336V13Z" fill="#E8EAEA"/>
<path d="M39.9999 13H31.1665V40H39.9999V13Z" fill="#E8EAEA"/>
<path d="M0 13.5001H40C40 12.5001 39.1666 11.6667 38.1666 11.6667H1.83336C0.833359 11.6667 0 12.5001 0 13.5001Z" fill="#FFA679"/>
<path d="M31.1669 8.49976H8.8335V39.9998H31.1669V8.49976Z" fill="#F2F2F2"/>
<path d="M32.4164 6.66675H7.58314C7.08314 6.66675 6.6665 7.08339 6.6665 7.58339C6.6665 8.08339 7.08314 8.50011 7.58314 8.50011H32.4165C32.9165 8.50011 33.3331 8.08347 33.3331 7.58347C33.3331 7.08347 32.9164 6.66675 32.4164 6.66675Z" fill="#FFA679"/>
<path d="M6.33336 15.5H2.5V19.75H6.33336V15.5Z" fill="#42A8C3"/>
<path d="M6.33336 21.4167H2.5V25.6667H6.33336V21.4167Z" fill="#42A8C3"/>
<path d="M6.33336 27.3333H2.5V31.5833H6.33336V27.3333Z" fill="#42A8C3"/>
<path d="M6.33336 33.25H2.5V37.5H6.33336V33.25Z" fill="#42A8C3"/>
<path d="M37.4999 15.5H33.6665V19.75H37.4999V15.5Z" fill="#42A8C3"/>
<path d="M37.4999 21.4167H33.6665V25.6667H37.4999V21.4167Z" fill="#42A8C3"/>
<path d="M37.4999 27.3333H33.6665V31.5833H37.4999V27.3333Z" fill="#42A8C3"/>
<path d="M37.4999 33.25H33.6665V37.5H37.4999V33.25Z" fill="#42A8C3"/>
<path d="M15.5001 22.9167H11.3335V27.1667H15.5001V22.9167Z" fill="#8ECBDB"/>
<path d="M24.4166 29.5833H15.5V39.9999H24.4166V29.5833Z" fill="#056D8A"/>
<path d="M40 38.25H0V40H40V38.25Z" fill="#ACB3BA"/>
<path d="M15.5001 11.0833H11.3335V15.3333H15.5001V11.0833Z" fill="#8ECBDB"/>
<path d="M15.5001 17H11.3335V21.25H15.5001V17Z" fill="#8ECBDB"/>
<path d="M22.0836 11.0833H17.917V15.3333H22.0836V11.0833Z" fill="#8ECBDB"/>
<path d="M22.0836 17H17.917V21.25H22.0836V17Z" fill="#8ECBDB"/>
<path d="M22.0836 22.9167H17.917V27.1667H22.0836V22.9167Z" fill="#8ECBDB"/>
<path d="M28.6666 11.0833H24.5V15.3333H28.6666V11.0833Z" fill="#8ECBDB"/>
<path d="M28.6666 17H24.5V21.25H28.6666V17Z" fill="#8ECBDB"/>
<path d="M28.6666 22.9167H24.5V27.1667H28.6666V22.9167Z" fill="#8ECBDB"/>
</g>
<defs>
<clipPath id="clip0_308_634">
<rect width="40" height="40" fill="white"/>
</clipPath>
</defs>
</svg>
