<svg width="36" height="36" viewBox="0 0 36 36" fill="none" xmlns="http://www.w3.org/2000/svg">
<path d="M15.1875 0H6.1875C5.60531 0 5.13281 0.4725 5.13281 1.05469V6.70289C5.13281 7.28578 5.60531 7.75758 6.1875 7.75758H15.1875C15.7697 7.75758 16.2422 7.28578 16.2422 6.70289V1.05469C16.2422 0.4725 15.7697 0 15.1875 0ZM14.1328 5.6482L10.6588 7.26539L7.24219 5.6482V2.10938H14.1328V5.6482Z" fill="#525C74"/>
<path d="M16.2422 1.05469V6.70289C16.2422 7.28578 15.7697 7.75758 15.1875 7.75758H10.6587V7.3357L14.1328 5.6482V2.10938H10.6587V0H15.1875C15.7697 0 16.2422 0.4725 16.2422 1.05469Z" fill="#444E66"/>
<path d="M20.3203 9.56243L19.8984 32.414C19.8984 34.4376 18.6173 34.664 16.5938 34.664L10.1672 35.9999H7.19578L6.25781 35.6484L5.08641 35.9999H3.67031C1.64672 35.9999 0 34.3532 0 32.3296V12.2765L0.421875 11.2499L0 10.1671V9.31774C0 7.29415 1.64672 5.64673 3.67031 5.64673H5.13L6.11719 6.32806L7.24219 5.64673H10.1672L13.9922 7.17181L17.5078 6.39837C19.0388 11.0538 20.314 7.59881 20.3203 9.56243Z" fill="#68B9CF"/>
<path d="M21.3175 9.31757V32.3293C21.3175 34.353 19.6707 35.9999 17.6469 35.9999H10.6587V6.27979L11.7881 5.64697H17.647C19.6707 5.64697 21.3175 7.29376 21.3175 9.31757Z" fill="#68B9CF"/>
<path d="M21.3173 10.1671H12.2766V5.64673H10.1672V10.1671H7.23291L7.23938 5.64673H5.13L5.12353 10.1671H0V12.2765H5.12051L5.08641 35.9999H7.19578L7.22988 12.2765H10.1672V35.9999H12.2766V12.2765H21.3173V10.1671Z" fill="#4AB7D3"/>
<path d="M21.3175 10.1646H11.7881V5.64697H10.6587V35.9999H11.7881V12.2822H21.3175V10.1646Z" fill="#42A8C3"/>
<path d="M26.1657 14.6824H19.999C18.0014 14.6824 16.3765 16.3073 16.3765 18.3049V20.2588C16.3765 20.8433 16.8508 21.3177 17.4353 21.3177H28.7294C29.3139 21.3177 29.7882 20.8434 29.7882 20.2588V18.3049C29.7882 16.3073 28.1633 14.6824 26.1657 14.6824ZM27.6706 19.2L23.0823 20.2547L18.4941 19.2V18.3049C18.4941 17.4748 19.1689 16.8 19.999 16.8H26.1657C26.9958 16.8 27.6706 17.4748 27.6706 18.3049V19.2H27.6706Z" fill="#525C74"/>
<path d="M29.7884 18.305V20.2589C29.7884 20.8434 29.3141 21.3178 28.7296 21.3178H23.0825V20.536L27.6708 19.2001V18.305C27.6708 17.4749 26.9959 16.8 26.1658 16.8H23.0825V14.6824H26.1658C28.1635 14.6824 29.7884 16.3074 29.7884 18.305Z" fill="#444E66"/>
<path d="M36.0003 22.2409V32.959C36.0003 34.6354 34.6358 35.9999 32.9594 35.9999H13.206C11.5295 35.9999 10.165 34.6354 10.165 32.959V22.2409C10.165 20.5644 11.5295 19.2 13.206 19.2H32.9594C34.6358 19.2 36.0003 20.5644 36.0003 22.2409Z" fill="#FFCAAF"/>
<path d="M36.0002 22.2409V32.959C36.0002 34.6354 34.6357 35.9999 32.9592 35.9999H23.0825V19.2H32.9592C34.6357 19.2 36.0002 20.5644 36.0002 22.2409Z" fill="#FFBFAB"/>
</svg>
