<?xml version="1.0" encoding="UTF-8"?>
<svg id="Layer_1" xmlns="http://www.w3.org/2000/svg" version="1.1" viewBox="0 0 436 592.6">
  <!-- Generator: Adobe Illustrator 29.3.1, SVG Export Plug-In . SVG Version: 2.1.0 Build 151)  -->
  <defs>
    <style>
      .st0 {
        fill: #2e37db;
      }

      .st1 {
        fill: #f48c37;
      }
    </style>
  </defs>
  <path class="st0" d="M259.8,434.3l1.8-184.6-16.3-11.3c-22.5,19.3-45.2,38.2-69.8,54.4l-1,150.4c0,91.8,51.1,149.4,147.7,149.4h65v-75.5h-47.9c-51.1,0-79.5-29.3-79.5-82.8Z"/>
  <path class="st1" d="M436,19.5c.2,4.2-.8,9-2.5,13.8-5.1,13.9-16.8,29-24.6,37.7-27,29.9-61.7,53.7-91,81.3l8.4,14.7,66.2,116.3c1.6,6.4-.8,10.7-4.4,14.4-2.8,3-6.4,5.8-9.1,9l-116.8-80.6-16.7-11.5c-22.4,19.3-45,38.1-69.5,54.2-19.3,12.7-39.9,23.6-62.3,31.7-53.5,19.2-105.9-4.2-112.8-57.2-.8-6-.9-12.7-.2-20,59.8,53.1,139.9-8.5,139.9-8.5,10.3-6.8,20-14.4,29.4-22.3,2.4-2,4.8-4,7.1-6.1,2.5-2.2,4.9-4.3,7.3-6.5l-7.1-4.7L17.6,70l-14.4-9.5c-.7-.6-.6-.8,0-1.3,11.8-10.1,20.7-19,37.8-15.5l137.1,45.3,109.1,36s-13.1-13.9-18.3-27.8c-.8-2.2-1.5-4.5-1.9-6.9-1.3-7.5-1.2-12.7,4.5-18.3,22.8-21.6,61.3-59.7,91.9-68,15.7-4.2,56.5-8.1,68.4,4.8,2.1,2.1,4,7.8,4.1,10.7Z"/>
</svg>