<?xml version="1.0" encoding="UTF-8"?>
<svg id="Layer_1" xmlns="http://www.w3.org/2000/svg" version="1.1" viewBox="0 0 676.9 175.4">
  <!-- Generator: Adobe Illustrator 29.3.1, SVG Export Plug-In . SVG Version: 2.1.0 Build 151)  -->
  <defs>
    <style>
      .st0 {
        fill: #2e37db;
      }

      .st1 {
        fill: #f48c37;
      }
    </style>
  </defs>
  <g>
    <path class="st0" d="M56.7,94.8l.4-40.3-3.6-2.5c-4.9,4.2-9.9,8.3-15.2,11.9l-.2,32.8c0,20,11.2,32.6,32.2,32.6h14.2v-16.5h-10.5c-11.2,0-17.4-6.4-17.4-18.1Z"/>
    <path class="st0" d="M112.9,47.8v-11.9h-17.7v93.4h18.8v-54.7c0-13.1,11-23,27.6-23.2v-17.5c-12.2,0-22.5,6-28.7,14Z"/>
    <path class="st0" d="M222.9,35.9v15.8c-7.1-10.6-18.4-16.7-33-16.7-26.6,0-46.1,19.9-46.1,47.5s19.3,48.9,46.1,48.9,25.9-6.6,33-17.4v15.2h17.4V35.9h-17.4ZM192.2,114.8c-17.2,0-29.8-13.6-29.8-32.3s12.7-32.1,29.8-32.1,29.9,13.3,29.9,32.1-12.2,32.3-29.9,32.3Z"/>
    <polygon class="st0" points="297.5 111.4 269.3 35.9 249.8 35.9 286.6 129.3 308.1 129.3 344.9 35.9 325.4 35.9 297.5 111.4"/>
    <path class="st0" d="M439.4,80.6c0-24.1-17.9-46.8-46.8-46.8s-47.5,21.8-47.5,48.9,19.5,48.7,48.9,48.7,34.9-9.4,42-21.8l-15.4-9.7c-4.3,9.7-12,14.9-26.1,14.9s-28-9.9-30.8-25.9h75.3c.2-1.8.4-5.1.4-8.3ZM363.9,74.6c2.8-16.1,14.9-25.5,29.4-25.5s25.2,9.7,27.6,25.5h-57Z"/>
    <path class="st0" d="M469.3,59.7c0-6.6,5.3-10.8,14.9-10.8s14.7,3.7,17.5,11.3l17-6.6c-4.1-12.6-16.7-19.7-34.2-19.7s-35.1,10.1-35.1,26.8c0,32.1,52.6,22.9,52.6,43.2s-6.7,12-17.2,12-20-5.3-22.9-14.5l-17,6.6c5,15.2,19.5,23.4,39.3,23.4s37.6-10.6,37.6-28.9c0-34.2-52.6-23.7-52.6-42.9Z"/>
    <rect class="st0" x="536.5" y="6.2" width="18.8" height="123.1"/>
    <path class="st0" d="M633.2,6.2h-22.7l-43.6,123.1h18.6l11.3-32.2h50.1l11.3,32.2h18.6l-43.8-123.1ZM602.4,81.7l19.7-55.6,19.5,55.6h-39.2Z"/>
  </g>
  <path class="st1" d="M95.1,4.2c0,.9-.2,2-.6,3-1.1,3-3.7,6.3-5.4,8.2-5.9,6.5-13.5,11.7-19.9,17.7l1.8,3.2,14.4,25.4c.4,1.4-.2,2.3-1,3.1-.6.7-1.4,1.3-2,2l-25.5-17.6-3.6-2.5c-4.9,4.2-9.8,8.3-15.2,11.8-4.2,2.8-8.7,5.1-13.6,6.9-11.7,4.2-23.1-.9-24.6-12.5-.2-1.3-.2-2.8,0-4.4,13.1,11.6,30.5-1.9,30.5-1.9,2.2-1.5,4.4-3.1,6.4-4.9.5-.4,1-.9,1.6-1.3.5-.5,1.1-.9,1.6-1.4l-1.6-1L3.8,15.3l-3.1-2.1c-.2-.1-.1-.2,0-.3,2.6-2.2,4.5-4.1,8.2-3.4l29.9,9.9,23.8,7.9s-2.9-3-4-6.1c-.2-.5-.3-1-.4-1.5-.3-1.6-.3-2.8,1-4,5-4.7,13.4-13,20.1-14.8,3.4-.9,12.3-1.8,14.9,1,.5.5.9,1.7.9,2.3Z"/>
  <g>
    <path class="st1" d="M141.9,140.4h-10.7v27.7h4.2v-11.2h6.4c5.6,0,9.2-3.2,9.2-8.3s-3.6-8.3-9.2-8.3ZM141.7,153.2h-6.2v-9.1h6.2c3.4,0,5.2,1.9,5.2,4.6s-1.8,4.6-5.2,4.6Z"/>
    <rect class="st1" x="154.7" y="138.9" width="4.2" height="29.2"/>
    <path class="st1" d="M180.8,150.6c-1.6-2.4-4.2-3.8-7.4-3.8-6,0-10.4,4.5-10.4,10.7s4.4,11,10.4,11,5.8-1.5,7.4-3.9v3.4h3.9v-21h-3.9v3.6ZM173.9,164.9c-3.9,0-6.7-3.1-6.7-7.3s2.9-7.2,6.7-7.2,6.7,3,6.7,7.2-2.8,7.3-6.7,7.3Z"/>
    <path class="st1" d="M200.8,146.6c-3.1,0-5.5,1.3-6.9,3.2v-2.7h-4v21h4.2v-12.8c0-2.6,2.4-4.9,5.5-4.9,3.4,0,5.4,2,5.4,5.5v12.2h4.2v-13c0-5.2-3.2-8.5-8.5-8.5Z"/>
    <path class="st1" d="M223.6,146.6c-5.9,0-10.7,4.9-10.7,11s4.4,11,11,11,7.9-2.1,9.5-4.9l-3.5-2.2c-1,2.2-2.7,3.4-5.9,3.4s-6.3-2.2-6.9-5.8h17c0-.4,0-1.2,0-1.9,0-5.4-4-10.5-10.5-10.5ZM217.1,155.8c.6-3.6,3.4-5.7,6.6-5.7s5.7,2.2,6.2,5.7h-12.9Z"/>
    <path class="st1" d="M254.6,150.6c-1.6-2.4-4.2-3.8-7.4-3.8-6,0-10.4,4.5-10.4,10.7s4.4,11,10.4,11,5.8-1.5,7.4-3.9v3.4h3.9v-21h-3.9v3.6ZM247.7,164.9c-3.9,0-6.7-3.1-6.7-7.3s2.9-7.2,6.7-7.2,6.7,3,6.7,7.2-2.8,7.3-6.7,7.3Z"/>
    <path class="st1" d="M297.2,146.6c-3.7,0-6.2,1.8-7.3,3.9-1.2-2.4-3.4-3.9-6.9-3.9s-5.3,1.4-6.6,3.2v-2.7h-4v21h4.2v-13c0-2.2,2-4.7,5.2-4.7,3.2,0,5,2.3,5,5.5v12.3h4.2v-13c0-2.2,1.9-4.7,5.2-4.7,3.2,0,5,2.3,5,5.5v12.3h4.2v-13c0-4.8-2.9-8.5-8.1-8.5Z"/>
    <path class="st1" d="M319.6,146.6c-5.9,0-10.7,4.9-10.7,11s4.4,11,11,11,7.9-2.1,9.5-4.9l-3.5-2.2c-1,2.2-2.7,3.4-5.9,3.4s-6.3-2.2-6.9-5.8h17c0-.4,0-1.2,0-1.9,0-5.4-4-10.5-10.5-10.5ZM313.1,155.8c.6-3.6,3.4-5.7,6.6-5.7s5.7,2.2,6.2,5.7h-12.9Z"/>
    <path class="st1" d="M344.9,146.6c-3.1,0-5.5,1.3-6.9,3.2v-2.7h-4v21h4.2v-12.8c0-2.6,2.4-4.9,5.5-4.9,3.4,0,5.4,2,5.4,5.5v12.2h4.2v-13c0-5.2-3.2-8.5-8.5-8.5Z"/>
    <path class="st1" d="M368.2,146.7c-6.5,0-11.1,4.7-11.1,11s4.6,11,11.1,11,11.1-4.7,11.1-11-4.6-11-11.1-11ZM368.2,164.8c-4.1,0-6.9-3-6.9-7.2s2.8-7.2,6.9-7.2,6.8,3,6.8,7.2-2.8,7.2-6.8,7.2Z"/>
    <path class="st1" d="M387,152.4c0-1.5,1.2-2.4,3.4-2.4s3.3.8,4,2.6l3.8-1.5c-.9-2.8-3.8-4.4-7.7-4.4s-7.9,2.3-7.9,6c0,7.2,11.9,5.2,11.9,9.7s-1.5,2.7-3.9,2.7-4.5-1.2-5.2-3.3l-3.8,1.5c1.1,3.4,4.4,5.3,8.9,5.3s8.5-2.4,8.5-6.5c0-7.7-11.9-5.3-11.9-9.7Z"/>
    <path class="st1" d="M404.2,163.2c-1.5,0-2.6,1.1-2.6,2.7s1.2,2.6,2.6,2.6,2.6-1.1,2.6-2.6-1.1-2.7-2.6-2.7Z"/>
    <polygon class="st1" points="430 163.2 421.8 140.4 417.4 140.4 427.4 168.1 432.6 168.1 442.6 140.4 438.2 140.4 430 163.2"/>
    <path class="st1" d="M447.5,137.5c-1.7,0-3.1,1.3-3.1,3s1.4,3,3.1,3,3.1-1.2,3.1-3-1.4-3-3.1-3Z"/>
    <rect class="st1" x="445.4" y="147.1" width="4.2" height="21"/>
    <path class="st1" d="M471.4,150.6c-1.6-2.4-4.2-3.8-7.4-3.8-6,0-10.4,4.5-10.4,10.7s4.4,11,10.4,11,5.8-1.5,7.4-3.9v3.4h3.9v-21h-3.9v3.6ZM464.5,164.9c-3.9,0-6.7-3.1-6.7-7.3s2.9-7.2,6.7-7.2,6.7,3,6.7,7.2-2.8,7.3-6.7,7.3Z"/>
    <path class="st1" d="M480.6,167.4c0,2.6-1.6,4.4-4,4.4h-.4v3.7h.9c4.5,0,7.7-3.1,7.7-8.1v-20.3h-4.2v20.3Z"/>
    <path class="st1" d="M482.8,137.5c-1.8,0-3.1,1.3-3.1,3s1.3,3,3.1,3,3-1.2,3-3-1.3-3-3-3Z"/>
    <path class="st1" d="M506.6,150.6c-1.6-2.4-4.2-3.8-7.4-3.8-6,0-10.4,4.5-10.4,10.7s4.4,11,10.4,11,5.8-1.5,7.4-3.9v3.4h3.9v-21h-3.9v3.6ZM499.7,164.9c-3.9,0-6.7-3.1-6.7-7.3s2.9-7.2,6.7-7.2,6.7,3,6.7,7.2-2.8,7.3-6.7,7.3Z"/>
    <path class="st1" d="M549.2,146.6c-3.7,0-6.2,1.8-7.3,3.9-1.2-2.4-3.4-3.9-6.9-3.9s-5.3,1.4-6.6,3.2v-2.7h-4v21h4.2v-13c0-2.2,2-4.7,5.2-4.7,3.2,0,5,2.3,5,5.5v12.3h4.2v-13c0-2.2,1.9-4.7,5.2-4.7,3.2,0,5,2.3,5,5.5v12.3h4.2v-13c0-4.8-2.9-8.5-8.1-8.5Z"/>
    <path class="st1" d="M578.9,150.6c-1.6-2.4-4.2-3.8-7.4-3.8-6,0-10.4,4.5-10.4,10.7s4.4,11,10.4,11,5.8-1.5,7.4-3.9v3.4h3.9v-21h-3.9v3.6ZM572,164.9c-3.9,0-6.7-3.1-6.7-7.3s2.9-7.2,6.7-7.2,6.7,3,6.7,7.2-2.8,7.3-6.7,7.3Z"/>
    <polygon class="st1" points="577.9 139.5 576 136.4 567.3 141.9 569 144.7 577.9 139.5"/>
    <path class="st1" d="M591.8,152.4c0-1.5,1.2-2.4,3.4-2.4s3.3.8,4,2.6l3.8-1.5c-.9-2.8-3.8-4.4-7.7-4.4s-7.9,2.3-7.9,6c0,7.2,11.9,5.2,11.9,9.7s-1.5,2.7-3.9,2.7-4.5-1.2-5.2-3.3l-3.8,1.5c1.1,3.4,4.4,5.3,8.9,5.3s8.5-2.4,8.5-6.5c0-7.7-11.9-5.3-11.9-9.7Z"/>
    <path class="st1" d="M609,163.2c-1.5,0-2.6,1.1-2.6,2.7s1.2,2.6,2.6,2.6,2.6-1.1,2.6-2.6-1.1-2.7-2.6-2.7Z"/>
  </g>
</svg>