<svg width="167" height="32" viewBox="0 0 167 32" fill="none" xmlns="http://www.w3.org/2000/svg">
<path d="M13.9456 22.667L14.0442 13.0297L13.1714 12.4404C11.9621 13.4498 10.7442 14.4367 9.42476 15.2769L9.37256 23.1294C9.37256 27.9198 12.1187 30.9283 17.3037 30.9283H20.7922V26.9894H18.2201C15.4739 26.9894 13.9485 25.4612 13.9485 22.6641L13.9456 22.667Z" fill="#2E37DB"/>
<path d="M27.7628 11.4368V8.59468H23.4043V30.9312H28.0209V17.8372C28.0209 14.699 30.7265 12.325 34.824 12.2827V8.08716C31.8139 8.08716 29.2881 9.53077 27.7628 11.4368Z" fill="#2E37DB"/>
<path d="M54.8333 8.59428V12.3697C53.0905 9.82361 50.2979 8.38281 46.7253 8.38281C40.1861 8.38281 35.3926 13.1338 35.3926 19.7428C35.3926 26.3519 40.1426 31.4412 46.7253 31.4412C50.2979 31.4412 53.0905 29.8735 54.8333 27.288V30.9308H59.1048V8.59428H54.8333ZM47.2907 27.4571C43.0656 27.4571 39.9686 24.1949 39.9686 19.7428C39.9686 15.2907 43.1062 12.0708 47.2907 12.0708C51.6927 12.0708 54.6564 15.2541 54.6564 19.7428C54.6564 24.2316 51.6521 27.4571 47.2907 27.4571Z" fill="#2E37DB"/>
<path d="M73.1865 26.6512L66.253 8.59473H61.4595L70.5245 30.9313H75.7993L84.8643 8.59473H80.0708L73.1865 26.6512Z" fill="#2E37DB"/>
<path d="M108.101 19.2751C108.101 13.5119 103.699 8.08423 96.5913 8.08423C90.0985 8.08423 84.9077 13.2976 84.9077 19.7826C84.9077 26.2676 89.7012 31.4386 96.9393 31.4386C102.429 31.4386 105.526 29.1914 107.269 26.2253L103.476 23.8963C102.429 26.2253 100.512 27.4546 97.0669 27.4546C93.1868 27.4546 90.1826 25.0805 89.4808 21.2657H108.011C108.052 20.8399 108.098 20.0363 108.098 19.2722L108.101 19.2751ZM89.5301 17.8371C90.2261 13.9771 93.1897 11.7327 96.7653 11.7327C100.341 11.7327 102.956 14.0617 103.568 17.8371H89.533H89.5301Z" fill="#2E37DB"/>
<path d="M115.532 14.2733C115.532 12.7057 116.84 11.6878 119.192 11.6878C121.326 11.6878 122.811 12.5788 123.507 14.4002L127.691 12.8326C126.691 9.82126 123.594 8.12671 119.279 8.12671C114.048 8.12671 110.652 10.5431 110.652 14.5271C110.652 22.1991 123.597 19.9942 123.597 24.8692C123.597 26.6935 121.941 27.7508 119.369 27.7508C116.405 27.7508 114.448 26.4792 113.746 24.2771L109.562 25.8448C110.782 29.4877 114.355 31.4388 119.241 31.4388C124.818 31.4388 128.483 28.8928 128.483 24.5281C128.483 16.3485 115.535 18.8495 115.535 14.2705L115.532 14.2733Z" fill="#2E37DB"/>
<path d="M136.613 1.47534H131.99V30.9313H136.613V1.47534Z" fill="#2E37DB"/>
<path d="M155.786 1.47534H150.21L139.483 30.9313H144.062L146.849 23.2198H159.188L161.978 30.9313H166.554L155.786 1.47534ZM148.203 19.5318L153.043 6.22066L157.837 19.5318H148.203Z" fill="#2E37DB"/>
<path d="M23.4018 1.01282C23.4134 1.23274 23.3612 1.48087 23.2655 1.73463C22.99 2.45925 22.3637 3.24873 21.9432 3.70268C20.4932 5.26189 18.6286 6.50814 17.0569 7.94611L17.5064 8.71303L21.0587 14.7864C21.1457 15.1191 21.0123 15.3446 20.8238 15.5392C20.6701 15.6943 20.4816 15.8409 20.3337 16.0072L14.0642 11.7976L13.1711 11.1971C11.9676 12.2036 10.7555 13.1849 9.44184 14.0279C8.40369 14.6905 7.30174 15.2572 6.09539 15.683C3.22163 16.6839 0.408753 15.4631 0.0375704 12.6971C-0.00882749 12.3841 -0.0117274 12.0345 0.0259709 11.6538C3.23612 14.4283 7.53663 11.2083 7.53663 11.2083C8.0876 10.8503 8.61248 10.4583 9.11416 10.041C9.24175 9.93672 9.36934 9.8324 9.49694 9.71962C9.62743 9.60683 9.76083 9.49405 9.88842 9.37845L9.50564 9.13315L0.939429 3.64911L0.165165 3.15286C0.127466 3.12185 0.133266 3.11339 0.168064 3.08519C0.803136 2.56076 1.27581 2.09553 2.19507 2.27598L9.55784 4.64159L15.4156 6.52224C15.4156 6.52224 14.7109 5.79761 14.4354 5.07016C14.389 4.95456 14.3542 4.83332 14.331 4.70926C14.2614 4.31734 14.2643 4.04384 14.5688 3.75625C15.7926 2.63125 17.8573 0.637817 19.5044 0.209244C20.3453 -0.0106812 22.5376 -0.21087 23.1785 0.457366C23.2887 0.570148 23.3931 0.863382 23.4018 1.01564V1.01282Z" fill="#F48C37"/>
</svg>
