<svg width="190" height="160" viewBox="0 0 190 160" fill="none" xmlns="http://www.w3.org/2000/svg">
<path d="M75.2735 30.1903C69.4142 9.51713 47.6757 -2.36718 27.0327 4.01466C7.18367 10.1503 -4.22325 31.3209 1.53549 51.2805C6.47012 68.3758 22.284 79.4059 39.309 78.9788C41.8668 78.9134 44.1532 80.5566 44.8516 83.0189L60.9671 139.898C61.7661 142.727 64.7107 144.37 67.5399 143.566C70.369 142.767 72.0122 139.822 71.2082 136.993L55.0928 80.1144C54.3943 77.6572 55.4696 75.0592 57.6807 73.7728C72.4594 65.1799 80.1478 47.3911 75.2735 30.1853V30.1903ZM46.4144 68.9989C30.7563 73.4361 14.46 64.3357 10.0228 48.6775C5.5857 33.0194 14.6861 16.7231 30.3443 12.2859C46.0024 7.8488 62.2987 16.9492 66.7359 32.6073C71.173 48.2655 62.0726 64.5618 46.4144 68.9989Z" fill="black"/>
<path d="M53.002 34.9493C53.002 34.9493 65.429 17.9997 75.9666 11.5073H68.8912C68.8912 11.5073 56.4039 20.8138 53.002 34.9493Z" fill="white"/>
<path d="M14.4897 37.8034C14.4897 37.8034 31.1278 48.1148 39.1227 63.371C39.1227 63.371 52.6904 24.4568 78.3836 6.17554C78.3836 6.17554 53.8662 12.0097 37.0272 45.9741C37.0272 45.9741 26.3238 37.8034 14.4897 37.8034Z" fill="#2E37DB"/>
<path d="M184.207 140.375C180.745 138.451 174.202 130.35 174.202 130.35C165.921 119.37 146.016 104.496 99.9666 109.657C53.9168 104.496 34.0125 119.365 25.7312 130.35C25.7312 130.35 19.1885 138.451 15.7262 140.375C12.264 142.3 9.666 145.114 10.0178 146.149C11.0127 149.069 21.294 147.561 28.2538 154.626C29.1834 155.646 30.2186 156.682 31.3643 157.712H168.579C169.725 156.682 170.755 155.646 171.689 154.626C178.644 147.561 188.931 149.064 189.926 146.149C190.277 145.114 187.679 142.3 184.217 140.375H184.207Z" fill="url(#paint0_linear_274_2175)"/>
<mask id="mask0_274_2175" style="mask-type:luminance" maskUnits="userSpaceOnUse" x="9" y="108" width="181" height="50">
<path d="M184.207 140.375C180.745 138.451 174.202 130.35 174.202 130.35C165.921 119.37 146.016 104.496 99.9666 109.657C53.9168 104.496 34.0125 119.365 25.7312 130.35C25.7312 130.35 19.1885 138.451 15.7262 140.375C12.264 142.3 9.666 145.114 10.0178 146.149C11.0127 149.069 21.294 147.561 28.2538 154.626C29.1834 155.646 30.2186 156.682 31.3643 157.712H168.579C169.725 156.682 170.755 155.646 171.689 154.626C178.644 147.561 188.931 149.064 189.926 146.149C190.277 145.114 187.679 142.3 184.217 140.375H184.207Z" fill="white"/>
</mask>
<g mask="url(#mask0_274_2175)">
<path d="M13.5503 124.717C13.5503 124.717 26.9823 138.17 38.5701 131.552C51.4645 124.19 41.0726 107.456 41.0726 107.456" stroke="white" stroke-width="0.502508" stroke-miterlimit="10"/>
<path d="M55.8913 105.215C55.8913 105.215 43.4693 121.747 54.3385 130.556C65.4188 139.536 82.3182 124.19 75.6398 120.421C67.464 115.803 62.1023 144.828 82.288 150.41C105.444 156.817 121.996 135.883 111.559 129.647C99.1773 122.25 85.8156 163.526 111.559 163.526" stroke="white" stroke-width="0.502508" stroke-miterlimit="10"/>
<path d="M127.544 102.325C127.544 102.325 123.469 120.159 137.62 124.893C154.172 130.43 162.127 112.767 162.127 112.767" stroke="white" stroke-width="0.502508" stroke-miterlimit="10"/>
<path d="M134.122 159.556C134.122 159.556 132.006 143.179 144.559 141.159C156.689 139.21 158.765 152.541 153.348 152.049C148.076 151.566 146.398 133.385 158.016 127.798C169.659 122.2 177.81 130.205 182.041 135.305" stroke="white" stroke-width="0.502508" stroke-miterlimit="10"/>
<path d="M21.9219 152.672C21.9219 152.672 25.4093 142.355 39.2433 143.401C54.3386 144.541 54.3386 159.039 54.3386 159.039" stroke="white" stroke-width="0.502508" stroke-miterlimit="10"/>
</g>
<path d="M187.981 145.697C187.981 145.697 175.84 148.581 159.865 148.581C148.323 148.581 140.122 145.697 132.041 145.697C127.996 145.697 108.63 147.184 99.9664 147.184C91.3031 147.184 71.9415 145.697 67.8913 145.697C59.811 145.697 51.6101 148.581 40.0675 148.581C24.0927 148.581 11.9521 145.697 11.9521 145.697" stroke="black" stroke-width="0.221103" stroke-linecap="round" stroke-linejoin="round"/>
<path d="M74.9468 150.511L76.9166 143.4L84.3135 145.757L81.8362 152.606L74.9468 150.511Z" fill="url(#paint1_linear_274_2175)"/>
<path d="M78.7961 138.285L76.3237 131.994L83.0423 129.652L85.1126 136.431L78.7961 138.285Z" fill="url(#paint2_linear_274_2175)"/>
<path d="M95.2579 113.119L79.7756 112.3C81.4188 114.541 83.4992 122.104 85.66 130.044C84.5745 131.622 79.6248 133.546 76.3786 133.873C73.5847 127.039 67.0471 111.049 64.9315 105.868C62.816 100.687 66.5345 97.5063 69.5948 97.5063H105.68C110.866 97.5315 114.464 97.5465 114.464 97.5465L95.2579 113.119Z" fill="url(#paint3_linear_274_2175)"/>
<path d="M84.6953 112.561L99.4389 102.149L88.64 112.772L84.6953 112.561Z" fill="black"/>
<path d="M74.2583 105.813C78.1326 108.099 79.208 111.813 79.208 111.813" stroke="black" stroke-width="0.251254" stroke-linecap="round" stroke-linejoin="round"/>
<path d="M81.2785 126.511C79.7207 121.275 75.364 108.999 74.2534 105.813C80.8463 106.099 93.0271 107.129 93.0271 107.129" stroke="black" stroke-width="0.251254" stroke-linecap="round" stroke-linejoin="round"/>
<path d="M102.379 99.5918C102.379 99.5918 85.7407 113.803 83.6452 117.727C82.9417 119.039 75.6353 145.933 75.6353 145.933C77.7508 147.526 84.3889 149.054 86.0321 149.054C86.0321 149.054 93.2331 131.29 94.6753 124.446L109.967 115.24C112.313 113.828 115.002 113.079 117.74 113.079H120.62C120.62 113.079 123.775 106.3 121.846 102.205L102.374 99.5918H102.379Z" fill="url(#paint4_linear_274_2175)"/>
<path d="M92.3237 121.124C92.3237 121.124 94.0926 122.32 94.4393 124.195" stroke="black" stroke-width="0.251254" stroke-linecap="round" stroke-linejoin="round"/>
<path d="M82.2681 147.114C82.2681 147.114 90.7554 122.928 92.3232 121.124C93.8911 119.32 109.896 109.712 112.383 108.074C118.062 104.335 117.765 102.325 117.765 102.325" stroke="black" stroke-width="0.251254" stroke-linecap="round" stroke-linejoin="round"/>
<path d="M112.966 101.697C112.966 101.697 108.228 105.104 111.343 108.737" stroke="black" stroke-width="0.502508" stroke-miterlimit="10"/>
<path d="M96.8055 83.2853C96.2628 83.1547 95.7402 83.014 95.2427 82.8632C90.1272 81.3607 88.7051 79.5668 88.7051 79.5668C91.9161 70.5568 93.2327 66.9287 94.7352 65.2704C95.8457 64.0443 102.223 62.8333 103.579 62.6775C103.926 64.8785 96.0015 73.6472 95.8055 73.7528L96.8005 83.2853H96.8055Z" fill="#F48C37"/>
<path d="M95.5794 72.8633L93.9814 79.9486L98.0518 85.7024L95.5794 72.8633Z" fill="black"/>
<path d="M122.73 103.873C122.459 104.752 120.047 106.315 118.293 107.305C118.293 107.305 111.017 105.029 103.796 99.0288C100.318 96.1444 95.9466 97.6117 95.9667 97.5062C97.3687 89.9535 96.1878 89.2047 96.1024 83.4259C96.1024 83.2802 96.0923 83.1395 96.0923 82.9938C95.9416 74.0843 95.0371 69.6321 95.4541 66.8783C97.5194 64.5718 103.218 62.7578 103.58 62.6824C103.595 62.6774 109.575 62.6372 110.881 62.6824C113.866 63.4512 119.152 65.0392 121.781 69.5165C121.635 73.0943 121.866 77.441 121.434 83.0138C121.358 83.853 121.293 97.2248 122.725 103.873H122.73Z" fill="#F48C37"/>
<path d="M97.213 48.1096C97.213 48.1096 96.0421 52.185 98.5848 52.6372L99.1526 49.2001" fill="black"/>
<path d="M110.886 62.6473C110.288 62.5569 110.152 56.0745 110.152 56.0745H110.137C110.338 55.8333 110.504 55.5519 110.605 55.165C111.112 53.175 111.826 49.5017 110.916 47.2907C109.62 44.1399 98.4288 41.15 98.3082 48.8233C98.3082 48.8233 96.9665 59.0544 101.479 60.7327C101.479 60.7327 102.534 60.8282 103.916 60.5317C103.755 61.5669 103.59 62.6473 103.59 62.6473H103.584C103.213 63.1146 101.64 66.6824 105.142 67.0995C110.584 67.7478 111.795 63.0694 110.891 62.6473H110.886Z" fill="url(#paint5_linear_274_2175)"/>
<path style="mix-blend-mode:multiply" d="M108.082 58.2405C107.996 58.4515 106.579 61.8636 103.62 62.4063L103.916 60.5269C105.213 60.2505 106.801 59.6224 108.082 58.2405Z" fill="url(#paint6_linear_274_2175)"/>
<path d="M110.841 58.3309L110.263 58.6676C110.112 56.9942 110.162 55.4666 110.062 54.2957C110.388 53.0244 110.117 51.3711 109.027 51.2757C107.268 51.1199 107.208 53.6575 107.208 53.6575C105.67 53.3862 105.378 50.7732 105.268 49.7782C104.273 50.1149 96.0518 51.4113 96.4538 46.7229C96.4538 46.7229 96.087 45.9993 95.9664 45.2657C94.9966 39.4466 101.318 41.6426 101.318 41.6426C101.318 41.6426 102.368 39.2105 105.61 40.3662C107.871 41.1753 109.032 42.8587 109.032 42.8587C109.032 42.8587 109.936 42.125 110.765 43.2506C111.303 43.9843 110.956 45.5421 110.956 45.5421C116.338 46.527 110.906 57.964 110.841 58.3359V58.3309Z" fill="black"/>
<path d="M113.258 76.3557L116.012 85.9787C117.358 85.9787 120.353 85.3958 121.303 84.7275L113.253 76.3557H113.258Z" fill="black"/>
<path d="M102.992 92.019C102.992 92.019 100.464 92.6723 99.9665 92.8934C99.7303 92.9989 97.2178 94.9838 96.8811 95.2502C96.5444 95.5165 97.2178 96.019 98.1323 95.9235C99.0469 95.8281 101.474 94.3105 101.474 94.3105L102.992 92.4361" fill="url(#paint7_linear_274_2175)"/>
<path d="M123.996 73.0293L115.137 77.1298C115.137 77.1298 118.162 83.1699 120.172 87.396C118.237 87.8683 107.901 91.3758 107.901 91.3758C107.901 91.3758 103.619 91.7025 102.991 92.0191C102.288 92.3708 98.2275 96.4311 98.2275 96.4311H99.7501L103.233 95.4864C103.233 95.4864 105.182 95.9889 106.263 95.9386C107.343 95.8884 108.579 94.9587 108.509 94.9587C108.509 94.9587 126.348 94.9336 127.383 94.5718C129.237 93.9336 130.021 92.3206 130.107 90.3859C130.232 87.5518 123.996 73.0293 123.996 73.0293Z" fill="url(#paint8_linear_274_2175)"/>
<path d="M105.8 97.5063H94.8257V96.4309H105.8C106.097 96.4309 106.338 96.6721 106.338 96.9686C106.338 97.2651 106.097 97.5063 105.8 97.5063Z" fill="white"/>
<path d="M99.8613 97.5063H73.6304C73.3038 97.5063 73.0123 97.2852 72.9269 96.9686L67.3038 76.7176C67.1782 76.2703 67.5149 75.8281 67.9822 75.8281H93.3086C93.9267 75.8281 94.4694 76.2402 94.6352 76.8382L100.238 97.0138C100.309 97.2601 100.123 97.5063 99.8663 97.5063H99.8613Z" fill="white"/>
<path d="M98.8657 97.5063H72.6348C72.3082 97.5063 72.0167 97.2852 71.9313 96.9686L66.3082 76.7176C66.1826 76.2703 66.5193 75.8281 66.9866 75.8281H92.313C92.9311 75.8281 93.4738 76.2402 93.6396 76.8382L99.2426 97.0138C99.3129 97.2601 99.127 97.5063 98.8707 97.5063H98.8657Z" fill="#7050D9"/>
<path d="M84.3231 87.4762C84.3231 88.3054 83.1773 88.9737 81.7653 88.9737C80.3532 88.9737 79.2075 88.3054 79.2075 87.4762C79.2075 86.6471 80.3532 85.9788 81.7653 85.9788C83.1773 85.9788 84.3231 86.6471 84.3231 87.4762Z" stroke="white" stroke-width="0.251254" stroke-miterlimit="10"/>
<path d="M112.162 73.6372C114.991 80.7627 116.197 83.1999 116.197 83.1999C123.026 82.2602 127.539 79.2401 127.539 79.2401C125.539 73.7377 122.504 66.9086 120.77 65.5116C118.871 63.979 111.554 62.8584 111.554 62.8584" fill="#F48C37"/>
<path d="M120.519 87.2602C120.519 87.2602 124.625 86.1396 127.097 88.2551" stroke="black" stroke-width="0.125627" stroke-linecap="round" stroke-linejoin="round"/>
<path d="M73.7308 147.752C73.0675 148.069 71.7007 150.169 71.7007 150.169C71.7007 150.169 69.0525 151.043 66.5098 151.903C60.5048 152.29 61.4445 157.712 61.4445 157.712H83.3036C83.3036 157.712 84.2081 153.486 82.2584 151.425L77.6202 150.395C77.6202 150.395 77.7861 148.697 77.5097 148.265C77.2283 147.822 74.3941 147.44 73.7308 147.752Z" fill="#F48C37"/>
<path d="M83.5044 155.928C83.4642 156.958 83.3034 157.712 83.3034 157.712H61.4444C61.4444 157.712 61.3087 156.928 61.4745 155.928H83.5044Z" fill="black"/>
<defs>
<linearGradient id="paint0_linear_274_2175" x1="99.9666" y1="111.059" x2="99.9666" y2="158.415" gradientUnits="userSpaceOnUse">
<stop stop-color="#6F95ED"/>
<stop offset="1" stop-color="#5873EC"/>
</linearGradient>
<linearGradient id="paint1_linear_274_2175" x1="81.3889" y1="143.114" x2="77.3488" y2="152.928" gradientUnits="userSpaceOnUse">
<stop stop-color="#FFD2B6"/>
<stop offset="1" stop-color="#FFB793"/>
</linearGradient>
<linearGradient id="paint2_linear_274_2175" x1="79.2885" y1="128.642" x2="82.1779" y2="139.898" gradientUnits="userSpaceOnUse">
<stop stop-color="#FFD2B6"/>
<stop offset="1" stop-color="#FFB793"/>
</linearGradient>
<linearGradient id="paint3_linear_274_2175" x1="89.3886" y1="156.033" x2="89.3886" y2="110.195" gradientUnits="userSpaceOnUse">
<stop stop-color="#3F2DD1"/>
<stop offset="1" stop-color="#4B3FFA"/>
</linearGradient>
<linearGradient id="paint4_linear_274_2175" x1="99.0571" y1="148.968" x2="99.0571" y2="102.396" gradientUnits="userSpaceOnUse">
<stop stop-color="#3F2DD1"/>
<stop offset="1" stop-color="#4B3FFA"/>
</linearGradient>
<linearGradient id="paint5_linear_274_2175" x1="104.735" y1="46.7781" x2="104.735" y2="62.8031" gradientUnits="userSpaceOnUse">
<stop stop-color="#FFD2B6"/>
<stop offset="1" stop-color="#FFB793"/>
</linearGradient>
<linearGradient id="paint6_linear_274_2175" x1="103.62" y1="60.3209" x2="108.082" y2="60.3209" gradientUnits="userSpaceOnUse">
<stop stop-color="#FFD2B6"/>
<stop offset="1" stop-color="#FFB793"/>
</linearGradient>
<linearGradient id="paint7_linear_274_2175" x1="99.8911" y1="95.8884" x2="99.8911" y2="93.0492" gradientUnits="userSpaceOnUse">
<stop stop-color="#FFD2B6"/>
<stop offset="1" stop-color="#FFB793"/>
</linearGradient>
<linearGradient id="paint8_linear_274_2175" x1="114.167" y1="96.1446" x2="114.167" y2="79.175" gradientUnits="userSpaceOnUse">
<stop stop-color="#FFD2B6"/>
<stop offset="1" stop-color="#FFB793"/>
</linearGradient>
</defs>
</svg>
