<svg width="214" height="161" viewBox="0 0 214 161" fill="none" xmlns="http://www.w3.org/2000/svg">
<g clip-path="url(#clip0_274_2349)">
<path d="M73.0491 25.8246L73.5042 25.3482C73.8953 24.9357 83.1109 15.2223 83.1678 9.88923C83.2247 4.39968 78.8089 -0.108586 73.3265 -0.165472C67.844 -0.222359 63.3358 4.19346 63.2718 9.67591C63.2149 15.009 72.2172 24.9215 72.6012 25.341L73.0491 25.8246ZM73.3122 1.0647C78.1192 1.11448 81.9874 5.06809 81.9305 9.87501C81.8879 14.0988 74.9335 21.9705 73.0634 24.0113C71.243 21.935 64.4522 13.914 64.5019 9.69013C64.5517 4.88321 68.5053 1.01492 73.3122 1.07181V1.0647Z" fill="#2E37DB"/>
<path d="M73.163 15.002C76.3842 15.0376 79.0294 12.4421 79.065 9.22803C79.1006 6.00682 76.5051 3.3616 73.291 3.32604C70.0769 3.29049 67.4246 5.88594 67.389 9.10003C67.3535 12.3212 69.9489 14.9665 73.163 15.002ZM73.2768 4.55622C75.8154 4.58466 77.8633 6.66813 77.8348 9.2138C77.8064 11.7524 75.7229 13.8003 73.1772 13.7718C70.6387 13.7434 68.5908 11.6528 68.6192 9.11425C68.6477 6.57569 70.7311 4.52777 73.2768 4.55622Z" fill="#2E37DB"/>
<path d="M86.9649 231.484C87.4343 232.038 87.9605 232.536 88.5364 232.956C90.627 234.563 93.2651 235.402 95.4837 235.971C98.1929 236.667 100.703 237.151 103.121 237.435H103.171C103.206 237.45 103.256 237.457 103.291 237.457C108.944 238.118 114.185 237.777 119.76 236.355C120.492 236.17 121.154 235.843 121.737 235.388C121.744 235.38 121.758 235.366 121.765 235.359C123.102 234.3 123.856 232.671 123.799 231.014C123.692 228.412 123.763 225.759 123.842 223.2V222.844C123.963 218.848 124.098 214.723 123.607 210.699C122.576 208.857 121.73 207.243 121.054 205.856C120.379 204.47 119.874 203.303 119.54 202.329C113.012 183.436 109.926 161.485 110.352 137.023L110.367 136.184C110.402 134.791 110.445 133.383 110.488 131.982C110.502 131.712 110.715 131.52 110.971 131.52C111.106 131.52 111.227 131.584 111.312 131.676C111.398 131.761 111.44 131.889 111.44 132.01C110.488 158.406 113.524 181.957 120.45 202.016C121.09 203.851 122.37 206.503 124.261 209.902C124.396 209.981 124.496 210.109 124.524 210.272C124.524 210.322 124.531 210.357 124.531 210.4V210.421C126.629 214.14 129.132 218.272 131.543 222.197C133.42 225.269 135.205 228.184 136.314 230.204C137.352 232.088 138.526 234.001 140.403 234.804C143.098 235.978 146.269 234.484 148.73 233.048C150.749 231.882 152.612 230.552 154.44 229.03L154.511 228.974C157.327 226.613 159.751 223.96 162.333 221.159C163.413 219.964 164.722 218.542 166.151 217.07C166.606 216.594 167.182 215.968 167.73 215.307C167.758 215.271 167.787 215.243 167.815 215.2C169.856 212.718 170.745 210.578 170.61 208.445C170.396 205.259 167.9 202.806 165.476 200.424C165.077 200.047 164.679 199.648 164.281 199.243C158.542 193.398 154.482 185.135 152.548 175.351C150.756 166.228 150.913 156.77 151.19 148.621C151.688 134.215 149.626 123.093 144.854 114.596C143.29 116.061 141.228 116.843 139.052 116.829L114.967 116.594L93.0091 116.381H92.9523C92.6394 116.381 92.3194 116.352 92.0136 116.31L84.469 217.667C84.1064 222.716 83.9855 227.942 86.9721 231.484H86.9649Z" fill="#F48C37"/>
<path d="M88.5366 232.956C90.6272 234.563 93.2653 235.402 95.4839 235.971C98.1931 236.668 100.703 237.151 103.121 237.436H103.171C103.206 237.45 103.256 237.457 103.292 237.457C108.945 238.118 114.185 237.777 119.76 236.355C120.493 236.17 121.154 235.843 121.737 235.388C121.744 235.381 121.758 235.366 121.766 235.359C123.102 234.3 123.856 232.671 123.799 231.014C123.693 228.412 123.764 225.76 123.842 223.2V222.844C123.963 218.848 124.098 214.724 123.607 210.699C122.576 208.857 121.73 207.243 121.054 205.856C120.379 204.47 119.874 203.304 119.54 202.329C113.012 183.436 109.926 161.485 110.353 137.024L110.367 136.185C110.26 136.135 110.175 136.121 110.09 136.163C106.427 137.507 107.338 165.047 107.082 169.385C106.285 182.696 105.489 195.994 104.692 209.305C104.316 215.62 103.533 222.752 98.5202 226.613C96.4794 228.191 93.948 229.002 91.7081 230.289C90.5206 230.979 89.3686 231.875 88.5295 232.956H88.5366Z" fill="#C6681B"/>
<path d="M146.461 177.527C147.037 188.727 147.507 200.502 142.579 210.585C140.261 215.307 136.84 219.467 134.942 224.38C134.665 225.091 134.423 225.845 134.231 226.613C135.041 227.971 135.752 229.194 136.307 230.197C137.345 232.081 138.519 233.994 140.396 234.798C143.091 235.971 146.262 234.478 148.723 233.041C150.742 231.875 152.605 230.545 154.433 229.024L154.504 228.967C157.32 226.606 159.744 223.954 162.326 221.152C163.406 219.957 164.715 218.535 166.144 217.063C166.599 216.587 167.175 215.961 167.723 215.3C167.751 215.264 167.78 215.236 167.808 215.193C169.849 212.711 170.738 210.571 170.603 208.438C170.389 205.252 167.893 202.799 165.469 200.417C165.07 200.04 164.672 199.642 164.274 199.236C158.536 193.391 154.475 185.128 152.541 175.344C150.749 166.221 150.906 156.763 151.183 148.614C151.681 134.208 149.619 123.087 144.847 114.589C143.283 116.054 141.221 116.836 139.045 116.822L114.96 116.587C119.76 116.843 124.567 117.185 129.353 117.611C133.37 117.967 137.722 118.543 140.552 121.401C143.567 124.445 143.965 129.138 144.186 133.411L146.461 177.52V177.527Z" fill="#C6681B"/>
<path d="M86.247 232.102C88.6078 234.918 92.2912 236.134 95.2351 236.895C97.8803 237.585 100.326 238.054 102.716 238.332C102.943 238.374 103.171 238.396 103.413 238.417H103.42C104.877 238.595 106.342 238.687 107.885 238.716C110.879 238.765 113.823 238.524 116.809 237.983C117.862 237.784 118.928 237.549 119.995 237.286C120.571 237.144 121.133 236.916 121.645 236.611C121.666 236.604 121.694 236.582 121.709 236.575C121.922 236.447 122.142 236.284 122.356 236.106C122.356 236.106 122.406 236.056 122.434 236.042C123.956 234.819 124.823 232.92 124.759 230.979C124.653 228.405 124.724 225.781 124.802 223.228V222.873C124.901 219.545 124.994 216.11 124.745 212.711C126.444 215.662 128.293 218.691 130.078 221.614L130.846 222.88C132.759 226.023 134.423 228.732 135.482 230.652C136.549 232.593 137.864 234.748 140.019 235.679C140.766 235.999 141.569 236.177 142.401 236.191C144.847 236.234 147.329 234.968 149.206 233.873C151.197 232.714 153.025 231.434 154.81 229.969H154.817C154.994 229.813 155.165 229.678 155.343 229.528C155.343 229.528 155.35 229.521 155.364 229.507H155.371C158.173 227.096 160.534 224.522 163.03 221.785L163.613 221.166C164.118 220.611 164.637 220.05 165.17 219.474C165.703 218.898 166.258 218.307 166.834 217.717C167.389 217.141 167.858 216.636 168.277 216.146H168.285C168.384 216.025 168.469 215.911 168.569 215.797C168.626 215.719 168.676 215.655 168.733 215.591H168.74C170.78 213.038 171.705 210.685 171.548 208.388C171.314 204.811 168.683 202.237 166.137 199.748C165.931 199.542 165.732 199.35 165.533 199.144C165.334 198.959 165.134 198.767 164.95 198.568C159.332 192.858 155.364 184.759 153.473 175.159C151.702 166.142 151.851 156.749 152.129 148.65C152.641 133.959 150.486 122.596 145.565 113.928C145.558 113.921 145.544 113.899 145.537 113.892C145.53 113.864 145.509 113.842 145.501 113.814C145.48 113.778 145.452 113.736 145.437 113.686C145.373 113.579 145.281 113.501 145.153 113.473C145.096 113.451 145.039 113.451 144.968 113.458C144.897 113.537 144.833 113.608 144.762 113.672C144.762 113.679 144.755 113.679 144.755 113.679C144.684 113.764 144.62 113.828 144.549 113.885C144.534 113.977 144.549 114.077 144.613 114.162C144.677 114.269 144.741 114.404 144.826 114.568C144.833 114.575 144.833 114.589 144.833 114.596C149.604 123.094 151.667 134.215 151.169 148.621C150.891 156.77 150.735 166.228 152.527 175.351C154.461 185.135 158.521 193.398 164.26 199.243C164.651 199.642 165.056 200.04 165.454 200.424C167.879 202.806 170.382 205.259 170.588 208.445C170.724 210.578 169.835 212.725 167.794 215.2C167.765 215.236 167.737 215.264 167.709 215.307C167.161 215.968 166.585 216.587 166.13 217.07C164.701 218.549 163.392 219.964 162.311 221.159C159.73 223.961 157.305 226.613 154.49 228.974L154.418 229.031C152.598 230.559 150.728 231.882 148.708 233.048C146.248 234.485 143.077 235.978 140.382 234.805C138.504 234.001 137.331 232.088 136.293 230.204C135.738 229.201 135.02 227.985 134.217 226.62C133.392 225.248 132.467 223.74 131.522 222.197C129.111 218.272 126.608 214.14 124.51 210.422V210.4C124.51 210.365 124.503 210.322 124.51 210.272C124.482 210.109 124.382 209.981 124.247 209.902C122.356 206.503 121.076 203.851 120.436 202.017C113.51 181.957 110.474 158.399 111.426 132.01C111.426 131.89 111.384 131.762 111.298 131.676C111.213 131.577 111.092 131.52 110.957 131.52C110.701 131.52 110.488 131.712 110.474 131.982C110.431 133.383 110.388 134.791 110.353 136.185L110.338 137.024C109.912 161.485 112.998 183.436 119.526 202.329C119.86 203.304 120.365 204.463 121.04 205.856C121.716 207.243 122.562 208.857 123.593 210.699C124.077 214.724 123.949 218.848 123.828 222.844V223.2C123.749 225.76 123.671 228.419 123.778 231.014C123.835 232.671 123.081 234.3 121.744 235.359C121.737 235.366 121.723 235.381 121.716 235.388C121.133 235.843 120.471 236.17 119.739 236.355C114.164 237.777 108.923 238.118 103.27 237.457C103.235 237.457 103.185 237.443 103.149 237.443H103.1C100.675 237.151 98.1719 236.668 95.4626 235.971C93.2441 235.395 90.6131 234.556 88.5154 232.956C87.9394 232.536 87.4132 232.038 86.9439 231.484C83.9573 227.943 84.0782 222.716 84.4409 217.667L91.9854 116.324C91.9997 116.175 91.9641 116.054 91.8788 115.961C91.7935 115.876 91.6797 115.812 91.5588 115.812C91.3028 115.762 91.1179 115.947 91.0681 116.146C91.061 116.175 83.616 217.611 83.616 217.611L83.4951 217.596C83.104 222.844 83.0045 228.284 86.2328 232.102H86.247Z" fill="#0B128D"/>
<path d="M115.103 82.6545C115.266 83.202 115.544 83.7353 115.956 84.2188C121.886 91.1732 127.767 96.4281 133.961 100.282C138.227 102.935 142.671 104.918 147.144 106.163C150.33 107.059 153.522 107.571 156.665 107.699C160.925 107.869 163.968 107.059 166.009 105.246C168.185 103.304 169.301 100.161 169.429 95.6388C169.543 91.2657 168.917 87.049 167.787 83.0669C165.006 73.2611 159.197 64.8632 154.042 58.883C152.605 57.2262 150.714 55.4982 148.723 53.8556C148.723 53.8556 148.72 53.8533 148.715 53.8485C148.637 53.8272 148.573 53.7703 148.524 53.6992C144.968 50.798 141.135 48.2025 139.002 46.8159C138.824 46.9724 138.625 47.0861 138.44 47.143C136.72 47.6692 135.191 49.1483 134.337 51.0682C135.056 52.0637 135.56 53.2868 136.008 54.2681C139.166 61.1371 142.174 68.0702 145.245 74.9677C145.615 75.7854 145.978 76.6316 145.992 77.5347C146.006 78.2813 145.701 79.0777 145.096 79.4973C145.267 79.6181 145.437 79.7319 145.594 79.8528C145.757 79.9737 145.8 80.1941 145.679 80.3506C145.558 80.5141 145.331 80.5425 145.174 80.4288C144.883 80.2226 144.598 80.0092 144.307 79.8101H144.3C141.384 77.7124 138.369 75.7427 135.276 73.9081C133.797 73.0335 132.311 72.1873 130.81 71.3767C130.007 70.9358 129.203 70.5092 128.386 70.0896C126.814 69.279 125.179 68.575 123.621 68.4968H123.614C122.967 68.4684 122.334 68.5395 121.716 68.767C121.573 68.8239 121.424 68.8879 121.282 68.9519C121.254 68.9732 121.225 68.9875 121.197 68.9946C121.197 68.9946 121.19 68.9946 121.175 69.0017C119.995 69.6417 118.971 70.8718 118.132 72.6851C117.862 73.2611 117.57 73.8584 117.271 74.4699C116.61 75.7996 115.935 77.1436 115.48 78.4449C114.968 79.9381 114.719 81.3674 115.11 82.6545H115.103Z" fill="#5A63FA"/>
<path d="M106.619 47.6619L106.74 48.2165L106.946 49.0627L107.217 50.2076V50.2716L109.442 59.7218L109.471 59.8356C109.826 59.8712 110.196 59.9992 110.537 60.2267C110.978 60.5183 111.327 60.9022 111.668 61.272L111.825 61.4356C113.46 63.1848 115.487 64.5785 117.698 65.4674C117.982 65.5883 118.288 65.6523 118.601 65.7234C119.127 65.8372 119.668 65.9651 120.158 66.3207C120.905 66.8753 121.325 67.4655 121.417 68.1126C121.438 68.1055 121.445 68.1055 121.467 68.0913C122.021 67.878 122.597 67.7784 123.18 67.7642C121.858 62.5235 121.844 57.361 123.102 51.5586C123.913 47.7685 126.082 44.6042 129.182 42.6488C129.203 42.6416 129.218 42.6203 129.239 42.6132C128.251 42.3928 127.312 42.2079 126.267 42.1226C126.267 42.1439 126.259 42.151 126.245 42.1723C125.044 44.398 123.145 46.0833 120.912 46.9508C120.443 47.1357 119.952 47.285 119.44 47.3917C118.672 47.5623 117.89 47.6334 117.101 47.6192C114.896 47.5837 112.692 46.8441 110.929 45.4931C110.836 45.422 110.786 45.3153 110.793 45.1944C110.829 44.3838 110.857 43.5163 110.907 42.6274C110.089 42.5777 109.314 42.5919 108.39 42.6772C108.12 42.6985 107.842 42.7341 107.558 42.7768C107.501 42.9119 107.451 43.0612 107.394 43.2105C107.11 44.1207 106.904 45.0664 106.769 46.0264C106.69 46.5597 106.648 47.093 106.619 47.6406V47.6619Z" fill="#5A63FA"/>
<path d="M85.358 107.464C85.2371 109.604 85.9624 111.645 87.4272 113.195C88.8707 114.752 90.8333 115.627 92.9594 115.663H93.0163L120.834 115.94L139.059 116.111C141.235 116.132 143.283 115.257 144.769 113.686C144.769 113.686 144.776 113.679 144.776 113.664C144.925 113.522 145.06 113.366 145.188 113.202C146.646 111.375 147.194 109.042 146.703 106.767C142.252 105.501 137.829 103.524 133.584 100.879C127.326 96.9967 121.381 91.692 115.408 84.6807C115.344 84.6025 115.28 84.5243 115.231 84.439L117.108 92.4813C117.115 92.5311 117.115 92.5737 117.108 92.6235C117.108 92.6449 117.108 92.6591 117.101 92.6804C117.094 92.7017 117.079 92.7302 117.072 92.7444C117.065 92.7586 117.051 92.7729 117.044 92.78C117.015 92.8155 116.973 92.8582 116.937 92.8724C116.937 92.8724 116.93 92.8795 116.916 92.8795C116.887 92.9008 116.866 92.908 116.838 92.908C116.752 92.9222 116.653 92.908 116.582 92.8653L116.532 92.8368L108.468 88.1153L101.492 93.1142C101.379 93.1853 101.229 93.2066 101.108 93.1355L91.0324 87.7882L86.9579 90.2129C86.8655 90.3907 86.6664 91.1089 86.3677 93.875C86.1046 96.3638 85.7633 100.517 85.358 107.45V107.464Z" fill="#5A63FA"/>
<path d="M106.619 47.6619L106.74 48.2165L106.946 49.0627L107.217 50.2076V50.2716L109.442 59.7218L109.471 59.8356C109.826 59.8712 110.196 59.9992 110.537 60.2267C110.978 60.5183 111.327 60.9022 111.668 61.272L111.825 61.4356C113.46 63.1848 115.487 64.5785 117.698 65.4674C117.982 65.5883 118.288 65.6523 118.601 65.7234C119.127 65.8372 119.668 65.9651 120.158 66.3207C120.905 66.8753 121.325 67.4655 121.417 68.1126C121.438 68.1055 121.445 68.1055 121.467 68.0913C122.021 67.878 122.597 67.7784 123.18 67.7642C121.858 62.5235 121.844 57.361 123.102 51.5586C123.913 47.7685 126.082 44.6042 129.182 42.6488C129.203 42.6416 129.218 42.6203 129.239 42.6132C128.251 42.3928 127.312 42.2079 126.267 42.1226C126.267 42.1439 126.259 42.151 126.245 42.1723C125.044 44.398 123.145 46.0833 120.912 46.9508L120.891 46.9793C120.173 49.0912 119.469 51.2102 118.758 53.315C118.174 55.0714 117.2 57.1335 115.366 57.2828C113.908 57.3895 112.699 56.1878 111.945 54.9363C110.943 53.2723 110.374 51.3808 109.535 49.6245C109.002 48.5152 108.312 47.4272 107.43 46.5882C107.224 46.3819 107.003 46.1971 106.783 46.0335C106.705 46.5668 106.662 47.1001 106.634 47.6477L106.619 47.6619Z" fill="#2E37DB"/>
<path d="M135.774 73.3821C138.96 75.2807 142.088 77.3215 145.089 79.4974C145.686 79.0779 145.999 78.2815 145.985 77.5348C145.971 76.6389 145.601 75.7856 145.238 74.9678C142.167 68.0703 139.159 61.1373 136.002 54.2682C135.554 53.2869 135.049 52.0639 134.33 51.0684C134.16 51.4452 134.01 51.8434 133.897 52.2559C133.235 54.6309 132.446 64.0314 135.774 73.3821Z" fill="#2E37DB"/>
<path d="M115.103 82.6544C115.266 83.2019 115.544 83.7352 115.956 84.2188C121.887 91.1732 127.767 96.4281 133.961 100.282C138.227 102.934 142.672 104.918 147.144 106.163C150.33 107.059 153.523 107.571 156.666 107.699C160.925 107.869 163.968 107.059 166.009 105.245C168.185 103.304 169.302 100.161 169.43 95.6388C169.543 91.2656 168.918 87.0489 167.787 83.0668C167.467 82.9388 167.119 82.8819 166.777 82.9459C165.284 83.209 164.936 85.1219 164.516 86.5796C163.264 90.9101 158.714 93.6122 154.234 94.0744C149.761 94.5437 145.31 93.2282 141.008 91.9411C131.65 89.1324 121.709 85.9467 115.487 78.4519C114.975 79.9452 114.726 81.3745 115.117 82.6615L115.103 82.6544Z" fill="#2E37DB"/>
<path d="M86.368 93.8964L86.759 94.4083C88.2808 91.948 92.0566 92.5524 94.5667 93.9959C97.0626 95.4323 99.6296 97.4944 102.474 96.9896C104.671 96.6056 106.861 95.0341 110.282 95.091C114.207 95.1621 120.806 97.338 123.657 100.083C126.494 102.82 127.817 107.563 125.534 110.785C124.525 112.193 121.069 115.378 120.827 115.94L139.052 116.111C141.228 116.132 143.276 115.257 144.762 113.686C144.762 113.686 144.769 113.679 144.769 113.664C144.918 113.522 145.054 113.366 145.182 113.202C146.639 111.375 147.187 109.042 146.696 106.767C142.245 105.501 137.822 103.524 133.577 100.879C127.319 96.9967 121.375 91.692 115.401 84.6807C115.337 84.6025 115.273 84.5243 115.224 84.439L117.101 92.4813C117.108 92.5311 117.108 92.5737 117.101 92.6235C117.101 92.6449 117.101 92.6591 117.094 92.6804C117.087 92.7017 117.072 92.7302 117.065 92.7444C117.058 92.7586 117.044 92.7729 117.037 92.78C117.008 92.8155 116.966 92.8582 116.93 92.8724C116.93 92.8724 116.923 92.8795 116.909 92.8795C116.88 92.9008 116.859 92.908 116.831 92.908C116.745 92.9222 116.646 92.908 116.575 92.8653L116.525 92.8368L108.461 88.1153L101.486 93.1142C101.372 93.1853 101.222 93.2066 101.102 93.1355L91.0255 87.7882L86.951 90.2129C86.8586 90.3907 86.6595 91.1089 86.3608 93.875L86.368 93.8964Z" fill="#2E37DB"/>
<path d="M135.774 73.3821C138.96 75.2807 142.088 77.3215 145.089 79.4974C145.686 79.0779 145.999 78.2815 145.985 77.5348C145.971 76.6389 145.601 75.7856 145.238 74.9678C142.167 68.0703 139.159 61.1373 136.002 54.2682C135.554 53.2869 135.049 52.0639 134.33 51.0684C134.16 51.4452 134.01 51.8434 133.897 52.2559C133.235 54.6309 132.446 64.0314 135.774 73.3821Z" fill="#2E37DB"/>
<path d="M126.288 41.9592C126.295 42.016 126.288 42.0729 126.267 42.1298C127.319 42.2151 128.251 42.4 129.239 42.6205C129.58 42.4142 129.922 42.2578 130.277 42.1298C128.891 41.7885 127.668 41.5183 126.231 41.4116C126.245 41.5965 126.26 41.7743 126.288 41.9592Z" fill="#0B128D"/>
<path d="M108.39 42.6914C109.307 42.599 110.083 42.5848 110.907 42.6417C110.907 42.4497 110.907 42.2577 110.929 42.0657C110.929 42.0159 110.929 41.9732 110.943 41.9235H110.936C110.509 41.895 110.083 41.8879 109.649 41.9021H109.585C109.549 41.9021 109.521 41.9092 109.478 41.9021C109.421 41.9519 109.35 41.9732 109.286 41.9732C108.895 41.9946 108.611 42.3146 108.404 42.6843L108.39 42.6914Z" fill="#0B128D"/>
<path d="M86.0834 90.7536L86.9509 90.2416C86.894 90.3554 86.7873 90.6683 86.6522 91.5642C86.6309 91.6851 86.6167 91.8344 86.5954 91.9766C86.5598 92.1757 86.5314 92.4033 86.51 92.6522C86.4958 92.7446 86.4887 92.8442 86.4674 92.9508C86.4318 93.2353 86.3963 93.5552 86.3678 93.8966C86.3536 93.9748 86.3536 94.0459 86.3465 94.1241C86.3252 94.373 86.2896 94.629 86.2683 94.9134C86.2683 94.9632 86.254 95.0059 86.254 95.0556C86.2327 95.2476 86.2185 95.4467 86.1972 95.6672C86.1474 96.2076 86.0905 96.8049 86.0407 97.4591C86.0194 97.7009 86.0052 97.9569 85.9767 98.2128C85.9127 98.9879 85.8558 99.8483 85.7776 100.78C85.7634 101.093 85.7349 101.42 85.7136 101.747C85.6994 102.081 85.671 102.415 85.6496 102.771C85.6141 103.354 85.5714 103.951 85.5287 104.591C85.4719 105.487 85.4079 106.44 85.351 107.464C85.2301 109.604 85.9554 111.645 87.4202 113.195C88.8637 114.753 90.8263 115.627 92.9524 115.663H93.0093L120.827 115.94L139.052 116.111C139.308 116.111 139.571 116.104 139.827 116.075C140.083 116.061 140.332 116.018 140.581 115.976C140.83 115.933 141.078 115.869 141.32 115.798C141.548 115.727 141.782 115.656 142.01 115.563C142.017 115.556 142.031 115.542 142.038 115.542C142.266 115.449 142.494 115.35 142.714 115.229C142.899 115.137 143.084 115.037 143.262 114.902C143.311 114.881 143.361 114.845 143.404 114.817C143.56 114.717 143.702 114.61 143.852 114.49C143.923 114.44 143.98 114.397 144.037 114.34C144.193 114.226 144.335 114.098 144.485 113.935C144.513 113.928 144.534 113.899 144.556 113.878C144.627 113.821 144.691 113.757 144.762 113.679C144.762 113.679 144.769 113.672 144.769 113.658C144.84 113.594 144.904 113.515 144.975 113.444C145.046 113.366 145.11 113.281 145.181 113.202C146.639 111.375 147.187 109.043 146.696 106.767C142.245 105.501 137.822 103.525 133.577 100.879C127.319 96.9969 121.374 91.6922 115.401 84.6809C115.337 84.6027 115.273 84.5245 115.224 84.4392C114.896 84.0196 114.655 83.6001 114.498 83.145C114.399 82.8961 114.328 82.633 114.292 82.377C114.15 81.7157 114.15 81.0331 114.264 80.3433C114.541 78.3025 115.608 76.1408 116.61 74.1427C116.909 73.5454 117.207 72.9552 117.471 72.3863C118.352 70.4877 119.44 69.158 120.713 68.4398C120.934 68.3118 121.168 68.1981 121.41 68.1056C121.431 68.0985 121.438 68.0985 121.46 68.0843C122.014 67.871 122.59 67.7714 123.173 67.7572C123.415 67.743 123.664 67.7572 123.906 67.7785C125.499 67.9136 127.134 68.6247 128.706 69.4424C130.768 70.502 132.809 71.6255 134.821 72.8059C135.134 72.9836 135.454 73.1685 135.767 73.3676C137.665 74.4982 139.528 75.6786 141.37 76.9159C141.953 77.2999 142.543 77.691 143.119 78.0963C143.781 78.5443 144.442 79.0207 145.082 79.49C145.253 79.6109 145.423 79.7247 145.58 79.8456C145.743 79.9665 145.786 80.1869 145.665 80.3433C145.544 80.5069 145.317 80.5353 145.16 80.4216C144.869 80.2082 144.577 80.002 144.278 79.8029C143.553 79.2625 142.814 78.7576 142.067 78.2528C141.37 77.7621 140.659 77.2928 139.948 76.8306C139.237 76.3613 138.511 75.8991 137.786 75.444C137.04 74.9747 136.286 74.5125 135.525 74.0645C135.432 74.0076 135.347 73.9578 135.248 73.8938C134.444 73.4103 133.619 72.941 132.809 72.4859C132.14 72.1019 131.465 71.725 130.782 71.3624C130.377 71.1348 129.978 70.9286 129.573 70.7082C129.168 70.4877 128.77 70.2815 128.357 70.0753C126.786 69.2647 125.15 68.5607 123.593 68.4825H123.586C122.939 68.454 122.306 68.5252 121.687 68.7527C121.545 68.8096 121.396 68.8736 121.254 68.9376C121.225 68.9589 121.197 68.9731 121.168 68.9802C121.168 68.9802 121.161 68.9802 121.147 68.9874C119.966 69.6273 118.942 70.8575 118.103 72.6708C117.833 73.2467 117.542 73.844 117.243 74.4556C117.165 74.6262 117.072 74.7969 116.994 74.9604C116.866 75.2235 116.724 75.4938 116.61 75.7498C116.532 75.892 116.461 76.0413 116.404 76.1835C115.927 77.1861 115.508 78.1817 115.224 79.1558C115.16 79.3834 115.103 79.6109 115.06 79.8385C115.039 79.9451 115.017 80.0589 114.996 80.1727C114.975 80.2865 114.953 80.4002 114.939 80.514C114.925 80.6278 114.918 80.7344 114.904 80.8482C114.861 81.4669 114.911 82.0713 115.081 82.6401C115.245 83.1877 115.522 83.721 115.935 84.2045C121.865 91.1589 127.746 96.4138 133.939 100.268C138.206 102.92 142.65 104.904 147.123 106.149C150.308 107.044 153.501 107.556 156.644 107.684C160.903 107.855 163.947 107.044 165.988 105.231C168.164 103.29 169.28 100.147 169.408 95.6245C169.429 95.0343 169.429 94.437 169.408 93.8539C169.408 93.5837 169.401 93.3277 169.387 93.0717C169.387 92.7873 169.365 92.4957 169.351 92.2113C169.344 92.0762 169.337 91.9553 169.323 91.8202C169.301 91.5144 169.273 91.2016 169.244 90.8887C169.216 90.4976 169.173 90.1136 169.124 89.7296C169.074 89.2816 169.017 88.8265 168.939 88.3786C168.882 87.9732 168.811 87.575 168.74 87.1697C168.462 85.6622 168.107 84.1832 167.68 82.7468C167.552 82.2988 167.417 81.8437 167.261 81.4029C167.225 81.2677 167.182 81.1326 167.133 81.0118C166.777 79.9238 166.386 78.8643 165.952 77.8261C165.924 77.7479 165.895 77.6697 165.86 77.5986C165.405 76.4822 164.914 75.3942 164.388 74.3347C164.118 73.7729 163.833 73.2183 163.549 72.6779C163.293 72.173 163.022 71.6824 162.745 71.1917C162.724 71.1562 162.71 71.1135 162.681 71.085C162.397 70.566 162.091 70.0398 161.778 69.542C161.479 69.03 161.167 68.5252 160.847 68.0345C160.847 68.0274 160.839 68.0061 160.825 67.999C160.519 67.5154 160.214 67.039 159.894 66.5768C159.574 66.0933 159.254 65.6311 158.927 65.1617C158.891 65.112 158.856 65.0551 158.813 64.9982C158.521 64.5929 158.237 64.1947 157.945 63.8107C157.547 63.256 157.142 62.7227 156.729 62.2107C156.488 61.8836 156.225 61.5637 155.976 61.2437C155.777 60.9948 155.585 60.7459 155.378 60.5041C155.151 60.2197 154.916 59.9495 154.696 59.6793C154.468 59.4091 154.248 59.146 154.02 58.8829C152.584 57.2261 150.692 55.4981 148.701 53.8555C148.701 53.8555 148.699 53.8532 148.694 53.8484C148.63 53.7986 148.559 53.7489 148.502 53.6991C144.947 50.7979 141.114 48.2024 138.981 46.8158C139.159 46.6594 139.315 46.4603 139.386 46.2185C141.462 47.5767 145.153 50.0655 148.637 52.8671C148.851 53.0449 149.064 53.2156 149.27 53.3933C151.261 55.0217 153.138 56.7496 154.575 58.4065C161.899 66.9039 170.56 80.258 170.14 95.6458C170.012 100.375 168.818 103.681 166.485 105.765C164.409 107.62 161.394 108.495 157.27 108.424C157.056 108.424 156.85 108.41 156.63 108.403C153.615 108.282 150.536 107.812 147.471 106.98C147.869 109.348 147.258 111.745 145.743 113.643C145.686 113.729 145.615 113.807 145.551 113.878C145.523 113.914 145.501 113.942 145.473 113.97C145.309 114.155 145.132 114.34 144.947 114.504C144.918 114.532 144.89 114.561 144.847 114.589C143.283 116.054 141.221 116.836 139.045 116.822L93.0022 116.374H92.9453C92.6325 116.374 92.3125 116.345 92.0067 116.303C91.9711 116.303 91.9285 116.303 91.8929 116.289C91.6512 116.253 91.4236 116.21 91.1961 116.161C91.1605 116.153 91.1178 116.139 91.0823 116.132C89.4895 115.748 88.046 114.916 86.9011 113.686C85.3083 111.979 84.5048 109.747 84.6399 107.414C85.2799 96.5205 85.7492 92.3677 86.0834 90.7394V90.7536Z" fill="#0B128D"/>
<path d="M102.787 42.8908C102.858 42.7131 103.014 42.5282 103.213 42.4002C103.434 42.2438 103.704 42.1513 104.01 42.0802C104.145 42.0447 104.287 42.0162 104.443 41.9949C105.659 41.7887 106.84 41.7389 108.106 41.8456C108.056 41.9024 108.006 41.9593 107.978 42.0162C107.814 42.2367 107.672 42.4855 107.551 42.7913C107.494 42.9264 107.444 43.0757 107.387 43.2251C107.103 44.1352 106.897 45.081 106.762 46.0409C106.683 46.5743 106.641 47.1076 106.612 47.6551L106.143 45.6427L105.965 44.8961V44.8463L105.958 44.825V44.7965C105.937 44.761 105.93 44.7326 105.915 44.697C105.908 44.6686 105.887 44.6472 105.859 44.6259C105.859 44.6188 105.851 44.6046 105.837 44.6046C105.816 44.5832 105.802 44.569 105.773 44.5548L105.723 44.5334H105.716L103.64 43.4455H103.633L102.73 42.9691C102.737 42.9406 102.758 42.9122 102.78 42.8766L102.787 42.8908Z" fill="#F48C37"/>
<path d="M102.097 42.6491L102.616 42.9264C102.673 42.9193 102.723 42.898 102.779 42.8909C102.85 42.7131 103.007 42.5282 103.206 42.4002C103.426 42.2438 103.697 42.1514 104.002 42.0803C104.138 42.0447 104.28 42.0163 104.436 41.9949C105.652 41.7887 106.833 41.7389 108.098 41.8456C108.049 41.9025 107.999 41.9594 107.97 42.0163C107.807 42.2367 107.665 42.4856 107.544 42.7913C107.487 42.9264 107.437 43.0758 107.38 43.2251C107.096 44.1353 106.889 45.081 106.754 46.041C106.676 46.5743 106.633 47.1076 106.605 47.6551L106.726 48.2098L106.932 49.056L107.202 50.2008C107.302 50.1226 107.359 50.0088 107.352 49.8808C107.266 48.8 107.288 47.6907 107.409 46.6027C107.529 45.5219 107.75 44.4695 108.063 43.4384C108.134 43.218 108.233 42.9478 108.368 42.6918C108.575 42.322 108.859 42.002 109.25 41.9807C109.314 41.9807 109.385 41.9523 109.442 41.9096C109.528 41.8527 109.577 41.7603 109.592 41.6465C109.592 41.4616 109.464 41.2981 109.286 41.2767C107.522 41.0065 105.944 41.0065 104.308 41.2838C104.273 41.291 104.244 41.3052 104.202 41.2981C103.725 41.3976 103.234 41.5114 102.808 41.8029C102.467 42.0163 102.225 42.3149 102.083 42.6491H102.097Z" fill="#BE7231"/>
<path d="M102.623 42.9262L102.736 42.9828C102.736 42.9828 102.765 42.9262 102.786 42.8909C102.729 42.8979 102.68 42.9192 102.623 42.9262Z" fill="#C68433"/>
<path d="M122.96 61.9975C123.109 63.9316 123.422 65.8444 123.92 67.7999C125.513 67.935 127.148 68.6461 128.72 69.4638C130.782 70.5233 132.823 71.6469 134.835 72.8273C131.991 64.2445 132.354 55.1497 133.221 52.0708C133.968 49.3686 135.937 47.1643 138.234 46.4674C138.362 46.4319 138.512 46.3323 138.618 46.1972C138.625 46.1901 138.625 46.1759 138.64 46.1688C138.661 46.1403 138.675 46.119 138.696 46.0906C138.718 46.0408 138.739 45.9981 138.746 45.9483C138.753 45.8986 138.796 45.7279 138.561 45.5146C138.469 45.4292 138.362 45.3297 138.248 45.2301C136.535 43.7582 133.214 41.8383 130.434 42.8409C130.434 42.8409 130.427 42.8433 130.412 42.848C130.121 42.9476 129.836 43.0898 129.566 43.2604C126.629 45.1235 124.581 48.1243 123.799 51.7223C123.01 55.3915 122.733 58.7194 122.96 61.9904V61.9975Z" fill="#F48C37"/>
<path d="M123.095 51.566C123.906 47.7759 126.075 44.6116 129.175 42.6561C129.196 42.649 129.21 42.6277 129.232 42.6206C129.573 42.4144 129.914 42.2579 130.27 42.1299H130.291C131.052 41.8739 131.849 41.8028 132.631 41.8739C132.737 41.8882 132.844 41.8953 132.944 41.9095C133.171 41.945 133.392 41.9735 133.619 42.0233C133.648 42.0304 133.676 42.0304 133.705 42.0446C133.875 42.0873 134.046 42.1299 134.209 42.1797C134.373 42.2224 134.522 42.2721 134.672 42.329C135.077 42.4784 135.489 42.6419 135.866 42.8268C136.065 42.9263 136.257 43.0117 136.435 43.1254C136.606 43.225 136.776 43.3245 136.94 43.4099C136.961 43.417 136.968 43.4312 136.99 43.4383C137.132 43.5165 137.253 43.6019 137.388 43.6943C137.423 43.7156 137.473 43.7441 137.509 43.7725C138.113 44.185 138.632 44.6045 139.038 44.9743C139.386 45.2942 139.521 45.6996 139.429 46.0978C139.422 46.1333 139.407 46.176 139.386 46.2115C139.315 46.4462 139.159 46.6453 138.981 46.8088C138.803 46.9653 138.604 47.0791 138.419 47.1359C138.291 47.1715 138.163 47.2142 138.035 47.271C137.907 47.3137 137.786 47.3706 137.658 47.4346C137.53 47.4915 137.416 47.5555 137.288 47.6266C137.16 47.6906 137.047 47.7688 136.933 47.847C136.912 47.8541 136.897 47.8755 136.876 47.8826C136.691 48.0106 136.506 48.1457 136.343 48.295C136.236 48.3874 136.122 48.4941 136.016 48.5937C135.888 48.7145 135.76 48.8497 135.639 48.9919C135.447 49.2194 135.255 49.4612 135.084 49.7101C134.935 49.9163 134.807 50.1367 134.679 50.35C134.558 50.5563 134.444 50.7767 134.352 51.0042C134.33 51.0256 134.33 51.0327 134.323 51.054C134.273 51.1678 134.224 51.2816 134.181 51.3953C134.16 51.4238 134.153 51.4522 134.138 51.4807C134.11 51.566 134.067 51.6584 134.039 51.7438C133.989 51.9073 133.939 52.0637 133.889 52.2415C133.228 54.6165 132.439 64.017 135.767 73.3678C135.454 73.1687 135.134 72.9838 134.821 72.806C131.977 64.2233 132.339 55.1285 133.207 52.0495C133.953 49.3474 135.923 47.1431 138.22 46.4462C138.348 46.4106 138.497 46.3111 138.604 46.176C138.611 46.1689 138.611 46.1546 138.625 46.1475C138.647 46.1191 138.661 46.0978 138.682 46.0693C138.703 46.0195 138.725 45.9769 138.732 45.9271C138.739 45.8773 138.782 45.7067 138.547 45.4933C136.947 44.0001 133.385 41.7531 130.419 42.8197C130.419 42.8197 130.412 42.822 130.398 42.8268C130.106 42.9263 129.822 43.0686 129.552 43.2392C126.615 45.1022 124.567 48.103 123.785 51.7011C122.526 57.5391 122.562 62.5095 123.906 67.7716C123.657 67.7502 123.408 67.736 123.173 67.7502C121.851 62.5095 121.837 57.3471 123.095 51.5447V51.566Z" fill="#BE7231"/>
<path d="M52.6553 44.3626L56.4809 60.5326C56.4809 60.5326 56.488 60.5681 56.488 60.5895L57.192 63.5476L57.2844 63.9102C59.5386 64.7208 61.8353 64.7351 64.3597 63.96C65.0352 63.7609 65.8316 63.5049 66.5143 63.832C66.6067 63.8747 66.692 63.9244 66.7774 63.9884C67.4956 64.5289 67.5169 65.5955 67.1187 66.3777C67.0974 66.4132 67.076 66.4559 67.0618 66.4914C66.9836 66.6337 66.8911 66.7545 66.7987 66.8754C67.5027 67.7785 67.3747 69.1224 66.8414 69.99C66.756 70.1322 66.6565 70.2744 66.5498 70.4024C66.884 71.5828 66.5498 72.9267 65.7036 74.0076C65.661 76.6101 63.3571 78.6296 61.0745 79.298C61.0389 79.3051 60.9892 79.3265 60.9465 79.3265L63.6628 90.7962C66.756 89.4096 71.3638 87.2906 71.9825 86.8711C71.9825 86.8711 71.9849 86.8639 71.9896 86.8497C72.0607 86.7431 72.1105 86.6862 72.5087 86.8284L72.53 86.8071C72.53 86.8071 72.5656 86.8355 72.5798 86.8568C73.4402 87.2053 75.7654 88.4639 82.4496 92.0975L86.4672 89.7012C86.5028 89.6727 86.5383 89.6514 86.5668 89.6372C86.5739 89.6372 86.5739 89.6301 86.5881 89.6301L90.8546 87.0844C90.8546 87.0844 90.8759 87.0773 90.883 87.0773C90.9826 87.0204 91.1035 87.0346 91.2102 87.0773L100.916 92.2255L101.279 92.4104L108.269 87.3973C108.383 87.3119 108.532 87.3048 108.653 87.3759L116.247 91.8273L114.199 83.0739L109.521 82.3059C108.689 82.1637 107.821 82.0286 106.961 81.8295C105.453 81.4953 103.946 81.0046 102.623 80.1229C101.293 79.2198 100.12 77.7123 99.7502 76.0555C99.5725 75.2804 99.5654 74.4769 99.8143 73.6734C99.3378 72.3863 99.4303 70.9997 100.092 69.9686C100.035 69.8122 99.9849 69.6629 99.9493 69.4993C99.7076 68.5038 99.992 67.1741 100.945 66.5412C100.881 66.399 100.838 66.2426 100.803 66.0861C100.596 65.2044 100.931 64.1022 101.827 63.7893C102.132 63.6827 102.431 63.6756 102.723 63.7538C103.235 63.8675 103.725 64.2089 104.152 64.5075C105.915 65.7306 107.729 66.4061 109.649 66.5625C108.468 65.6452 107.622 64.28 107.394 62.808C107.217 61.6845 107.522 60.305 108.646 59.8926C108.681 59.8713 108.731 59.8642 108.781 59.857L105.332 45.1092L102.481 43.6159H102.474C102.474 43.6159 102.438 43.6373 102.41 43.6301C102.239 43.6586 102.09 43.5377 102.054 43.3742L97.3681 40.9423L94.3958 43.0684L94.3105 43.1253L90.3711 45.9554C90.3711 45.9554 90.3355 45.9838 90.3071 45.9909C90.2075 46.0336 90.0938 46.0336 90.0013 45.9767L79.9182 40.6294L71.5132 45.6425C71.4065 45.7065 71.2643 45.7065 71.1576 45.6425C67.5524 43.6941 62.2122 40.8 61.1954 40.2952C61.1456 40.3307 61.0887 40.3592 61.0247 40.4089C60.2425 40.8711 58.1875 41.8667 52.705 44.327L52.6553 44.3626Z" fill="#D1D0D5"/>
<path d="M79.8616 40.6577L90.8549 87.0843C90.9545 87.0274 91.0753 87.0416 91.182 87.0843L100.888 92.2325L97.2973 76.6314L90.2505 46.0193C90.1509 46.0619 90.0372 46.0619 89.9447 46.0051L79.8616 40.6577Z" fill="#B0AFB4"/>
<path d="M114.257 83.4435L116.219 91.8414L108.625 87.39C108.504 87.3189 108.362 87.326 108.241 87.4113L107.153 82.7893C109.45 83.4791 111.874 83.7137 114.257 83.4435Z" fill="#B0AFB4"/>
<path d="M106.655 59.9993C106.086 60.7175 105.859 61.6775 106.036 62.5663C106.122 62.9716 106.25 63.4694 105.923 63.7112C105.681 63.9103 105.318 63.8036 105.027 63.6827C104.294 63.4054 103.562 63.0925 102.78 63.0285C102.694 63.0214 102.602 63.0285 102.517 63.0285L97.3257 40.9565L105.304 45.1093L108.518 58.8616C107.793 59.0038 107.117 59.402 106.655 59.9851V59.9993Z" fill="#B0AFB4"/>
<path d="M67.7731 67.0175C67.8584 66.0789 68.3491 65.1331 68.0504 64.2514C67.7944 63.5261 67.0691 63.0923 66.3011 62.9643L60.968 40.4443C61.0391 40.3946 61.096 40.3732 61.1387 40.3306C62.1555 40.8354 67.4958 43.7295 71.1009 45.6779L82.4214 92.1045C75.7372 88.4708 73.4191 87.2193 72.5515 86.8638C72.5444 86.8425 72.5231 86.8282 72.5018 86.814L72.4804 86.8353C72.0822 86.6931 72.0325 86.75 71.9613 86.8567C71.9613 86.8567 71.959 86.8638 71.9542 86.878L67.8228 69.4209C67.83 69.2361 67.8513 69.0512 67.8442 68.8663C67.8157 68.2477 67.702 67.629 67.7588 67.0175H67.7731Z" fill="#B0AFB4"/>
<path d="M105.02 63.69C105.311 63.8109 105.674 63.9104 105.916 63.7184C106.243 63.4766 106.122 62.9789 106.029 62.5736C105.852 61.6847 106.079 60.7177 106.648 60.0066C107.11 59.4235 107.786 59.0324 108.511 58.8831L108.746 59.8857C108.696 59.8928 108.653 59.8999 108.611 59.9212C107.487 60.3337 107.174 61.7132 107.359 62.8367C107.594 64.3157 108.44 65.6739 109.613 66.5912C107.693 66.4347 105.88 65.7592 104.117 64.5362C104.031 64.4793 103.939 64.4153 103.853 64.3584C103.804 64.3299 103.761 64.2944 103.711 64.2659C103.647 64.2233 103.576 64.1806 103.512 64.1451C103.477 64.1237 103.434 64.1024 103.398 64.0811C103.171 63.9531 102.936 63.8464 102.687 63.7895L102.517 63.05C102.602 63.05 102.694 63.0429 102.78 63.05" fill="#9B9AA0"/>
<path d="M99.9638 65.8159C100.042 65.0906 100.156 64.3084 100.632 63.7538C101.094 63.2347 101.806 63.0285 102.509 63.0356L102.68 63.7751C102.389 63.704 102.09 63.704 101.784 63.8107C100.888 64.1235 100.554 65.2257 100.76 66.1075C100.796 66.2639 100.838 66.4132 100.902 66.5625C99.9425 67.1954 99.6652 68.518 99.9069 69.5206C99.9425 69.6842 99.9994 69.8406 100.049 69.99C99.3878 71.021 99.3025 72.4076 99.7718 73.6947C99.0181 76.1835 100.618 78.8145 102.588 80.1371C103.903 81.0189 105.418 81.5095 106.925 81.8437L107.146 82.7894C105.532 82.3059 103.989 81.6019 102.588 80.6775C101.67 80.0873 100.796 79.3834 100.22 78.4661C99.6367 77.5417 99.3736 76.4537 99.2598 75.3729C99.0536 73.4458 99.2812 71.5117 99.5016 69.5918C99.658 68.3331 99.8003 67.0745 99.9567 65.8159H99.9638Z" fill="#B0AFB4"/>
<path d="M108.113 82.0784C108.219 82.0998 108.326 82.114 108.433 82.1353C108.795 82.1993 109.151 82.2562 109.499 82.3131L114.178 83.0811L114.264 83.4366C111.881 83.7068 109.457 83.4722 107.16 82.7824L106.939 81.8367C107.338 81.922 107.729 82.0002 108.12 82.0713L108.113 82.0784Z" fill="#9B9AA0"/>
<path d="M102.78 63.0354C103.562 63.0994 104.294 63.4052 105.027 63.6896L102.78 63.0354Z" fill="#9B9AA0"/>
<path d="M60.9322 79.3336C60.9677 79.3336 61.0175 79.3194 61.0602 79.3051C63.3499 78.6367 65.6467 76.6101 65.6893 74.0147C66.5284 72.9267 66.8697 71.5899 66.5355 70.4095C66.6422 70.2744 66.7417 70.1393 66.8271 69.9971C67.3604 69.1295 67.4884 67.7785 66.7844 66.8825C66.8839 66.7616 66.9693 66.6408 67.0475 66.4985C67.0688 66.463 67.0902 66.4203 67.1044 66.3848L67.8226 69.4282C67.7657 70.5162 67.4884 71.5899 67.1826 72.6352C66.6706 74.4484 66.116 76.3328 64.836 77.7194C63.8405 78.8003 62.4539 79.4971 60.9962 79.6607H60.9891L60.918 79.3407L60.9322 79.3336Z" fill="#B0AFB4"/>
<path d="M57.1992 63.5477L57.2917 63.9103C59.5458 64.7209 61.8426 64.7352 64.3669 63.9601C65.0425 63.761 65.8389 63.505 66.5215 63.8321L66.3153 62.9575C66.1517 62.9361 65.9882 62.9148 65.8389 62.9077C64.9145 62.8935 64.0256 63.2206 63.1368 63.4552C61.2097 63.9459 59.1547 63.9814 57.2063 63.5405L57.1992 63.5477Z" fill="#B0AFB4"/>
<path d="M68.0503 64.2517C68.3489 65.1334 67.8583 66.0863 67.7729 67.0178C67.716 67.6293 67.8298 68.2409 67.8583 68.8666C67.8583 69.0515 67.844 69.2364 67.8369 69.4213L67.1187 66.3778C67.5169 65.5885 67.4956 64.529 66.7774 63.9886C66.6921 63.9175 66.6068 63.8677 66.5143 63.8322L66.3081 62.9575C67.069 63.0926 67.8014 63.5264 68.0574 64.2446L68.0503 64.2517Z" fill="#9B9AA0"/>
<path d="M71.2644 44.9528C64.5873 41.3263 62.2692 40.0676 61.4088 39.7263C61.3875 39.705 61.3804 39.6908 61.359 39.6694L61.3377 39.6979C60.9395 39.5486 60.8897 39.6126 60.8186 39.705C60.8115 39.7121 60.8115 39.7263 60.7973 39.7263C60.1502 40.1672 55.1655 42.4498 52.0865 43.8293C51.9301 43.9004 51.8447 44.071 51.8874 44.2346L55.7415 60.5184L55.9121 61.2579L56.5094 63.7822C56.5806 63.7254 56.6659 63.6969 56.737 63.6969C56.7725 63.6969 56.8152 63.7111 56.8508 63.7182C56.8792 63.7254 57.249 63.896 57.2774 63.9102L56.4881 60.5895C56.4881 60.5895 56.481 60.5539 56.481 60.5326L52.6554 44.3626C58.6071 41.696 60.52 40.7432 61.1457 40.3308C62.1626 40.8356 67.5028 43.7297 71.108 45.6781C71.2146 45.735 71.3568 45.7421 71.4635 45.6781L79.8685 40.665L89.9516 46.0123C90.0725 46.0834 90.2147 46.0763 90.3214 45.991L94.2608 43.1609L94.3461 43.104L97.3185 40.9778L102.004 43.4097L102.339 43.5875L102.431 43.6444H102.438L105.29 45.1306L108.738 59.8926C108.959 59.8215 109.208 59.8073 109.457 59.85L109.428 59.7362L107.21 50.2859V50.2219L106.932 49.0771L106.726 48.2309L106.605 47.6833L106.136 45.6568L105.958 44.9101V44.8603L105.951 44.839V44.8106C105.93 44.775 105.923 44.7466 105.908 44.711C105.901 44.6826 105.88 44.6612 105.851 44.6399C105.851 44.6328 105.844 44.6186 105.83 44.6186C105.809 44.5972 105.795 44.583 105.766 44.5688L105.716 44.5475H105.709L103.633 43.4595H103.626L102.723 42.9831L102.609 42.9262L102.09 42.6489L97.4393 40.2383C97.3256 40.1672 97.1691 40.1885 97.0696 40.2596L94.2253 42.3004L93.6351 42.72L90.0796 45.2657L80.0249 39.9325C79.9112 39.8757 79.7761 39.8685 79.6694 39.9468" fill="#4C4749"/>
<path d="M60.2354 79.5043L63.0513 91.3652V91.3865C63.0513 91.3865 63.0584 91.422 63.0798 91.4434C63.0869 91.4718 63.1082 91.5074 63.1367 91.5287C63.1722 91.5785 63.2291 91.614 63.286 91.6354C63.3215 91.6425 63.3642 91.6567 63.3998 91.6567C63.4495 91.6567 63.5064 91.6496 63.5562 91.6212L63.6131 91.5927C69.7213 88.8621 71.6696 87.888 72.3025 87.4827C73.3265 87.9875 78.6667 90.8745 82.2648 92.83C82.3217 92.8584 82.3785 92.8727 82.4354 92.8727C82.4923 92.8727 82.5634 92.8584 82.6203 92.83L86.0904 90.7607L86.9579 90.2488C86.9579 90.2488 86.9792 90.2274 86.9792 90.2203L91.0324 87.8169L101.108 93.1642C101.229 93.2353 101.379 93.214 101.492 93.1429L108.468 88.144L116.532 92.8655L116.582 92.894C116.66 92.9438 116.752 92.9509 116.838 92.9366C116.866 92.9366 116.887 92.9295 116.916 92.9082C116.923 92.9082 116.937 92.9011 116.937 92.9011C116.973 92.8727 117.015 92.8442 117.044 92.8087C117.051 92.8015 117.065 92.7873 117.072 92.7731C117.079 92.7589 117.094 92.7233 117.101 92.7091C117.108 92.6878 117.108 92.6735 117.108 92.6522C117.115 92.6024 117.122 92.5598 117.108 92.51L115.231 84.4677C114.903 84.0481 114.662 83.6286 114.505 83.1735L114.171 83.1095L116.219 91.8629L108.625 87.4115C108.504 87.3404 108.361 87.3475 108.241 87.4329L101.251 92.446L91.1817 87.1129C91.068 87.056 90.9329 87.0489 90.8262 87.1129L86.5597 89.6586C86.5597 89.6586 86.5526 89.6657 86.5384 89.6657C86.5099 89.687 86.4815 89.7012 86.4388 89.7297L82.4212 92.126C75.737 88.4924 73.4189 87.2409 72.5514 86.8853C72.5443 86.864 72.5229 86.8498 72.5016 86.8356L72.4803 86.8569C72.0821 86.7147 72.0323 86.7716 71.9612 86.8782C71.9612 86.8782 71.9588 86.8853 71.9541 86.8996C71.3354 87.3191 66.7276 89.4381 63.6344 90.8247L60.9181 79.355C60.7261 79.419 60.527 79.4616 60.3208 79.5043C60.2852 79.5043 60.2568 79.5114 60.2141 79.5185L60.2354 79.5043Z" fill="#4C4749"/>
<path d="M100.327 74.7542C100.312 74.9035 100.312 75.06 100.327 75.2164C100.348 75.7071 100.455 76.1764 100.625 76.6244C101.08 77.8048 101.983 78.8643 102.993 79.5398C104.942 80.8482 107.416 81.2535 109.606 81.6162L113.994 82.3343L114.299 82.3841C114.157 81.7228 114.157 81.0402 114.271 80.3504C114.278 80.2864 114.292 80.2082 114.314 80.1442C114.605 78.2314 115.586 76.1977 116.539 74.3133C116.568 74.2565 116.589 74.2067 116.618 74.1498C116.916 73.5525 117.215 72.9623 117.478 72.3934C118.36 70.4948 119.448 69.1651 120.72 68.4469C120.728 67.8994 120.415 67.4087 119.732 66.9039C119.355 66.6265 118.907 66.5341 118.438 66.4346C118.104 66.3634 117.762 66.2781 117.421 66.143C115.117 65.2115 112.991 63.7609 111.292 61.9476L111.135 61.7627C110.808 61.4143 110.509 61.0801 110.14 60.8454C109.976 60.7388 109.805 60.6606 109.649 60.6108C109.393 60.5397 109.137 60.5255 108.916 60.5895C108.895 60.5966 108.881 60.5966 108.86 60.6108C108.618 60.7032 108.433 60.8739 108.305 61.1014C108.042 61.5494 107.971 62.1752 108.063 62.744C108.291 64.0951 109.087 65.3537 110.211 66.1572C110.438 66.3208 110.68 66.4701 110.95 66.5839C110.986 66.6123 111.028 66.6265 111.064 66.6408C111.085 66.6479 111.092 66.6479 111.114 66.6621C111.263 66.7332 111.348 66.8968 111.32 67.0603C111.306 67.1456 111.27 67.2096 111.213 67.2594C111.156 67.3163 111.071 67.3447 110.986 67.3518C110.822 67.3518 110.659 67.3661 110.495 67.3518C108.099 67.3803 105.873 66.6479 103.697 65.1404C103.157 64.7564 102.545 64.344 102.033 64.5217C101.898 64.5644 101.784 64.6497 101.706 64.7635C101.45 65.0622 101.379 65.567 101.471 65.9937C101.514 66.1928 101.592 66.3848 101.692 66.5697C102.097 67.4301 102.965 68.0843 103.79 68.6105C105.404 69.67 107.146 70.5517 108.952 71.2557C109.002 71.277 109.037 71.2984 109.066 71.3268C109.172 71.4263 109.215 71.5757 109.151 71.7179C109.101 71.8601 108.966 71.9454 108.81 71.9383C108.774 71.9383 108.732 71.9383 108.689 71.917C108.469 71.8388 108.255 71.7463 108.042 71.6468C108.042 71.6468 108.035 71.6444 108.021 71.6397C107.395 71.3979 106.79 71.1135 106.179 70.8077H106.172C105.212 70.3313 104.287 69.798 103.391 69.222C102.638 68.7313 101.77 68.0914 101.237 67.2452C100.938 67.4798 100.739 67.8069 100.639 68.1909C100.526 68.582 100.533 69.0229 100.618 69.3927C100.839 70.3455 101.535 71.1561 102.19 71.8317C103.59 73.2823 104.949 74.2565 106.342 74.8467C106.435 74.8893 106.513 74.9675 106.541 75.06C106.577 75.1382 106.577 75.2306 106.541 75.316C106.485 75.4511 106.349 75.5293 106.2 75.5293C106.165 75.5293 106.115 75.5151 106.065 75.508C106.037 75.5008 106.008 75.4866 105.98 75.4653C104.529 74.8395 103.114 73.8085 101.678 72.3223C101.329 71.9597 100.967 71.5757 100.668 71.1277C100.59 71.0281 100.526 70.9215 100.462 70.8148C100.106 71.6326 100.135 72.6636 100.519 73.6165C100.59 73.7871 100.675 73.9649 100.767 74.1285C101.351 75.1453 102.303 76.0199 103.79 76.8875C103.939 76.9728 103.996 77.1506 103.946 77.3141C103.939 77.3354 103.925 77.3639 103.918 77.3781C103.846 77.4919 103.726 77.5559 103.598 77.5559C103.541 77.5559 103.484 77.5417 103.427 77.5061C103.036 77.2786 102.687 77.051 102.367 76.8092C101.471 76.1835 100.81 75.5222 100.341 74.7827L100.327 74.7542Z" fill="#E3C6B3"/>
<path d="M100.632 76.6244C101.087 77.8048 101.99 78.8643 103 79.5398C104.949 80.8482 107.423 81.2535 109.613 81.6162L114.001 82.3344L114.306 82.3842C114.164 81.7229 114.164 81.0402 114.278 80.3505C114.285 80.2865 114.299 80.2083 114.321 80.1443C114.612 78.2314 115.593 76.1977 116.546 74.3134C116.575 74.2565 116.596 74.2067 116.625 74.1498C116.923 73.5525 117.222 72.9623 117.485 72.3935C118.367 70.4949 119.455 69.1651 120.728 68.447C120.187 68.0345 113.624 75.3587 113.162 75.892C110.41 79.0847 106.847 79.5896 103.057 78.3097C102.566 78.139 101.599 77.3355 100.639 76.6244H100.632Z" fill="#D8A589"/>
<path d="M108.063 62.7226C108.291 64.0737 109.087 65.3323 110.21 66.1358C110.438 66.2994 110.68 66.4487 110.95 66.5625C111.327 66.1572 110.794 65.2612 110.466 64.7635C109.663 63.5546 108.895 62.3458 108.305 61.0872C108.042 61.5351 107.971 62.1609 108.063 62.7298V62.7226Z" fill="#D8A589"/>
<path d="M101.464 65.9582C101.507 66.1573 101.585 66.3493 101.684 66.5342C102.09 67.3946 102.957 68.0488 103.782 68.575C105.396 69.6345 107.138 70.5162 108.945 71.2202C108.994 71.2415 109.03 71.2628 109.058 71.2913C109.499 70.4949 108.006 69.7909 107.558 69.5065C106.47 68.8309 105.425 68.063 104.436 67.2452C104.109 66.9608 102.004 65.3609 101.699 64.7351C101.443 65.0338 101.372 65.5386 101.464 65.9653V65.9582Z" fill="#D8A589"/>
<path d="M102.19 71.7963C103.59 73.2469 104.949 74.2211 106.342 74.8113C106.435 74.8539 106.513 74.9322 106.541 75.0246C106.584 74.9677 106.62 74.9037 106.662 74.8326C107.089 74.0575 105.482 73.51 104.956 73.1189C103.981 72.4007 103.1 71.5687 102.332 70.6443C101.685 69.8693 101.116 69.0373 100.646 68.1484C100.533 68.5395 100.54 68.9804 100.625 69.3502C100.846 70.303 101.542 71.1137 102.197 71.7892L102.19 71.7963Z" fill="#D8A589"/>
<path d="M103.782 76.859C103.932 76.9444 103.988 77.1221 103.939 77.2857C104.109 77.2857 104.273 77.243 104.401 77.1292C104.685 76.8875 104.643 76.4253 104.436 76.1195C104.223 75.8208 103.882 75.6289 103.576 75.4226C102.083 74.4413 101.009 72.8485 100.661 71.0993C100.582 70.9997 100.518 70.893 100.454 70.7864C100.099 71.6041 100.127 72.6352 100.511 73.588C100.582 73.7587 100.668 73.9365 100.76 74.1C101.343 75.1169 102.296 75.9915 103.782 76.859Z" fill="#D8A589"/>
<path d="M99.786 73.6946C99.0323 76.1834 100.632 78.8144 102.602 80.137C104.678 81.5308 107.245 81.9503 109.507 82.3201L114.185 83.088L114.52 83.152C114.42 82.9032 114.349 82.6401 114.313 82.3841L114.008 82.3343L109.62 81.6161C107.43 81.2534 104.949 80.8481 103.007 79.5397C102.595 79.2553 102.19 78.914 101.827 78.5158C101.791 78.4802 101.763 78.4376 101.72 78.4091C101.685 78.3593 101.642 78.3238 101.606 78.274C101.507 78.146 101.4 78.0109 101.315 77.89C101.13 77.6198 100.959 77.3496 100.824 77.0581C100.753 76.923 100.689 76.7665 100.632 76.6243C100.59 76.5105 100.547 76.3968 100.511 76.2759C100.454 76.1052 100.412 75.9274 100.383 75.7497C100.362 75.6857 100.355 75.6074 100.348 75.5292C100.334 75.4226 100.319 75.3159 100.326 75.2164C100.312 75.0599 100.312 74.9106 100.326 74.7542C100.426 74.9106 100.533 75.067 100.654 75.2092C100.71 75.2804 100.767 75.3515 100.831 75.4226C100.838 75.4439 100.86 75.4581 100.881 75.4795C100.902 75.5079 100.917 75.5292 100.945 75.5506C101.18 75.8208 101.45 76.0768 101.756 76.3185C101.841 76.3968 101.934 76.4679 102.026 76.5461C102.133 76.6172 102.246 76.7025 102.353 76.7807C102.374 76.8021 102.403 76.8092 102.417 76.8305C102.438 76.8518 102.453 76.859 102.481 76.8803C102.545 76.9301 102.616 76.9656 102.68 77.0154C102.773 77.0865 102.879 77.1505 102.986 77.2145C103.121 77.2998 103.263 77.3923 103.398 77.4776H103.405C103.462 77.5203 103.519 77.5274 103.576 77.5274C103.697 77.5274 103.825 77.4634 103.896 77.3496C103.903 77.3283 103.917 77.2998 103.925 77.2856C103.925 77.2785 103.932 77.2572 103.932 77.2501C103.96 77.1007 103.91 76.9443 103.768 76.8661C102.282 75.9985 101.329 75.1239 100.746 74.1071C100.654 73.9435 100.568 73.7729 100.497 73.5951C100.113 72.6422 100.085 71.6112 100.44 70.7934C100.504 70.9001 100.568 71.0068 100.646 71.1063C100.71 71.2059 100.774 71.2912 100.831 71.3694C101.094 71.7107 101.386 72.0165 101.656 72.3009C102.559 73.2324 103.441 73.9862 104.344 74.5622C104.522 74.683 104.707 74.7897 104.885 74.8964C105.062 74.9959 105.247 75.0955 105.425 75.1808C105.603 75.2804 105.788 75.3586 105.965 75.4368C105.994 75.4581 106.022 75.4652 106.051 75.4795C106.1 75.4866 106.143 75.5008 106.186 75.5008C106.328 75.5008 106.463 75.4226 106.527 75.2875C106.57 75.2021 106.57 75.1097 106.527 75.0315C106.506 74.9817 106.492 74.9319 106.456 74.9035C106.42 74.8679 106.378 74.8324 106.335 74.8181C104.941 74.228 103.583 73.2538 102.182 71.8032C101.528 71.1347 100.831 70.317 100.611 69.3641C100.54 69.0726 100.526 68.7384 100.582 68.4255C100.597 68.3402 100.611 68.2478 100.632 68.1553C100.654 68.07 100.682 67.9847 100.725 67.8993C100.746 67.8353 100.782 67.7642 100.824 67.7002C100.831 67.6647 100.867 67.622 100.895 67.5864C100.938 67.5224 100.974 67.4656 101.03 67.4087C101.087 67.3305 101.158 67.2665 101.237 67.2096C101.77 68.0629 102.637 68.6957 103.391 69.1864C104.138 69.6699 104.892 70.1108 105.681 70.5161C105.844 70.6014 106.001 70.6939 106.172 70.7721H106.179C106.179 70.7721 106.214 70.7934 106.236 70.8005C106.556 70.957 106.883 71.1205 107.203 71.2698C107.366 71.341 107.523 71.4121 107.693 71.4761C107.786 71.5187 107.892 71.5543 107.985 71.5969C107.992 71.6041 108.006 71.6041 108.013 71.6041C108.013 71.6041 108.02 71.6064 108.035 71.6112C108.241 71.7107 108.461 71.8032 108.682 71.8814C108.731 71.9027 108.767 71.9027 108.803 71.9027C108.959 71.9027 109.094 71.8245 109.144 71.6823C109.165 71.6467 109.172 71.5969 109.172 71.5614C109.172 71.5116 109.165 71.4547 109.137 71.4192C109.115 71.3694 109.094 71.3338 109.051 71.2912C109.023 71.2627 108.987 71.2414 108.938 71.2201C107.132 70.5232 105.389 69.6415 103.775 68.5748C102.95 68.0415 102.083 67.3873 101.678 66.534C101.578 66.3492 101.5 66.1572 101.457 65.9581C101.414 65.759 101.407 65.5385 101.443 65.3252C101.457 65.2399 101.464 65.1759 101.493 65.1048C101.514 65.0265 101.542 64.9554 101.571 64.8986C101.592 64.8488 101.614 64.8203 101.649 64.7848C101.649 64.7634 101.67 64.7492 101.692 64.7279C101.72 64.6781 101.763 64.6426 101.806 64.607C101.862 64.5501 101.941 64.5146 102.019 64.4861C102.531 64.3155 103.142 64.7279 103.683 65.1048C105.852 66.6123 108.077 67.3447 110.481 67.3162C110.644 67.3305 110.808 67.3162 110.971 67.3162C111.057 67.3091 111.142 67.2807 111.199 67.2238C111.256 67.174 111.298 67.11 111.306 67.0247C111.334 66.8611 111.256 66.6976 111.099 66.6265C111.078 66.6194 111.071 66.6194 111.05 66.6052C111.014 66.5838 110.971 66.5767 110.936 66.5483C110.801 66.4914 110.673 66.4274 110.559 66.3634C110.474 66.3136 110.395 66.2638 110.324 66.2069C110.289 66.1856 110.239 66.1572 110.203 66.1287C109.08 65.3252 108.276 64.0666 108.056 62.7155C108.027 62.5449 108.013 62.3529 108.02 62.1822C108.02 62.0898 108.035 61.9831 108.042 61.8836C108.042 61.8053 108.056 61.7342 108.077 61.6631C108.084 61.6062 108.099 61.5494 108.12 61.4996C108.141 61.4356 108.148 61.3787 108.177 61.3218C108.205 61.2365 108.248 61.1512 108.298 61.0729C108.326 61.0232 108.355 60.9805 108.397 60.9307C108.397 60.9236 108.404 60.9094 108.419 60.9023C108.44 60.8738 108.468 60.8383 108.497 60.8169C108.596 60.7103 108.717 60.6392 108.852 60.5823C108.874 60.5752 108.888 60.5752 108.909 60.561C109.13 60.497 109.386 60.5112 109.642 60.5823C109.805 60.6321 109.976 60.7103 110.132 60.8169C110.502 61.0516 110.801 61.3858 111.128 61.7342L111.284 61.9191C112.984 63.7395 115.11 65.1901 117.414 66.1145C117.755 66.2567 118.096 66.3349 118.431 66.406C118.9 66.5127 119.348 66.6051 119.725 66.8754C120.407 67.3873 120.72 67.878 120.713 68.4184C120.934 68.2904 121.168 68.1766 121.41 68.0842C121.318 67.4442 120.898 66.854 120.151 66.2923C119.661 65.9296 119.12 65.8087 118.594 65.695C118.281 65.6239 117.976 65.5599 117.691 65.439C115.48 64.5501 113.446 63.1564 111.818 61.4071L111.661 61.2436C111.327 60.8738 110.978 60.497 110.531 60.1983C110.189 59.9708 109.819 59.8428 109.464 59.8072C109.215 59.7645 108.966 59.7788 108.746 59.8499C108.696 59.857 108.653 59.8641 108.611 59.8854C107.487 60.2978 107.174 61.6774 107.359 62.8009C107.594 64.2799 108.44 65.6381 109.613 66.5554C107.693 66.3989 105.88 65.7234 104.117 64.5003C103.448 64.0381 102.645 63.4693 101.784 63.7822C100.888 64.095 100.554 65.1972 100.76 66.079C100.796 66.2354 100.838 66.3847 100.902 66.534C99.9425 67.1669 99.6652 68.4895 99.9069 69.4921C99.9425 69.6557 99.9994 69.8121 100.049 69.9615C99.3878 70.9925 99.3025 72.3791 99.7718 73.6662L99.786 73.6946Z" fill="#6D422F"/>
<path d="M51.5391 70.5946C51.5391 70.9217 51.5462 71.2417 51.5675 71.5688C51.7524 74.4771 52.7835 77.0939 54.1061 77.8903C55.7487 78.8858 57.9744 79.2129 60.072 78.8005C60.2996 78.7579 60.5414 78.701 60.776 78.6441C60.8045 78.637 60.8329 78.6227 60.8614 78.6156C62.5608 78.1108 64.2745 76.7953 64.815 75.046C64.815 75.0389 64.8221 75.0176 64.8221 75.0104C64.8434 74.9607 64.8505 74.918 64.8647 74.8682C64.431 75.2238 63.9261 75.5224 63.3501 75.7855C63.3146 75.8069 63.2719 75.8211 63.2364 75.8282C62.6177 76.1055 61.9066 76.3331 61.096 76.5179C61.0676 76.5251 61.0391 76.5251 61.0107 76.5251C60.8471 76.5251 60.7049 76.4113 60.6622 76.2477C60.648 76.1695 60.6622 76.0913 60.6836 76.0273C60.7262 75.9206 60.8187 75.8353 60.9325 75.814C62.6035 75.4442 63.7768 74.8967 64.6443 74.1003C65.4052 73.4034 65.8674 72.4861 65.9385 71.5901C65.9527 71.455 65.9527 71.3128 65.9456 71.1777C65.9456 71.1279 65.9385 71.0853 65.9456 71.0355C65.4407 71.4764 64.8719 71.8177 64.3314 72.1092C62.6462 73.0194 61.1031 73.5527 59.6312 73.7447C59.489 73.7732 59.3539 73.7874 59.2116 73.7945C59.2045 73.8016 59.1903 73.8016 59.1832 73.8016H59.1476C59.0339 73.8016 58.9414 73.7518 58.8703 73.6594C58.8348 73.6096 58.8063 73.5456 58.7992 73.4745C58.7992 73.4461 58.7992 73.4105 58.8134 73.3821C58.8348 73.2327 58.9628 73.1047 59.1263 73.0834C59.2401 73.0763 59.3539 73.0621 59.4676 73.0407C60.8756 72.8772 62.3688 72.3439 63.9972 71.4693C64.8292 71.0355 65.7323 70.4666 66.2371 69.6276C66.5145 69.1725 66.6567 68.5609 66.5429 68.0205C66.5287 67.8783 66.4789 67.7361 66.4149 67.601C66.3793 67.537 66.3438 67.4659 66.294 67.3948C65.5189 68.0418 64.5092 68.3832 63.6417 68.632C62.248 69.016 60.8187 69.2934 59.3823 69.4569C59.1334 69.4925 58.8774 69.5138 58.6286 69.5422C58.3868 69.5564 58.1521 69.5849 57.9104 69.5991C57.8606 69.5991 57.8179 69.6062 57.7681 69.5991C57.761 69.5991 57.7468 69.5991 57.7468 69.5991C57.5548 69.5991 57.4055 69.4498 57.3913 69.2649C57.3913 69.1867 57.4126 69.1156 57.4624 69.0445C57.5122 68.952 57.6188 68.888 57.7326 68.8738H57.7397C57.9815 68.8596 58.2303 68.8454 58.465 68.8169C60.1432 68.6747 61.8213 68.3761 63.4497 67.9281C64.3883 67.665 65.4123 67.3094 66.0594 66.6197C66.2087 66.4775 66.3296 66.3068 66.4433 66.129C66.742 65.6242 66.7918 64.9131 66.3722 64.5789C66.3722 64.5789 66.3651 64.5718 66.3509 64.5575C65.9171 64.2233 65.2061 64.4438 64.5519 64.65C62.0631 65.4108 59.7592 65.4393 57.4908 64.7211C57.3273 64.6713 56.8935 64.4935 56.6731 64.4082C56.6517 64.4011 56.6375 64.4011 56.6162 64.3869C56.4384 64.3158 56.3318 64.1167 56.4029 63.9318C56.4313 63.8678 56.474 63.8109 56.5238 63.7682L55.9264 61.2439C52.0013 63.8536 51.5533 68.6036 51.5462 70.5804L51.5391 70.5946Z" fill="#E3C6B3"/>
<path d="M51.5674 71.5686C51.7523 74.4769 52.7834 77.0937 54.106 77.8901C55.7486 78.8856 57.9743 79.2127 60.072 78.8003C60.2995 78.7576 60.5413 78.7008 60.7759 78.6439C60.8044 78.6368 60.8328 78.6225 60.8613 78.6154C62.5679 78.1106 64.3029 76.7737 64.822 75.0031V74.9107C63.7909 77.1577 60.8044 77.9683 58.4436 77.2288C56.0828 76.4893 54.2766 74.612 52.7478 72.6637C52.4492 72.2726 52.1434 71.8673 51.7025 71.6397C51.6527 71.6184 51.6101 71.5899 51.5603 71.5686H51.5674Z" fill="#D8A589"/>
<path d="M60.6763 76.0342C60.7189 75.9275 60.8114 75.8422 60.9252 75.8208C62.5962 75.4511 63.7695 74.9035 64.637 74.1071C65.5116 73.3107 66.0023 72.2014 65.9383 71.1846L65.8814 71.2201C65.0494 72.813 63.6557 74.0858 62.006 74.7969C61.7073 74.9249 61.3874 75.0457 61.1314 75.2377C60.8825 75.4226 60.6763 75.7071 60.6763 76.0342Z" fill="#D8A589"/>
<path d="M58.6357 73.1404C58.6499 73.2755 58.6997 73.3893 58.785 73.4888C58.785 73.4604 58.785 73.4248 58.7993 73.3964C58.8206 73.247 58.9486 73.119 59.1121 73.0977C59.2259 73.0906 59.3397 73.0764 59.4534 73.055C60.8614 72.8915 62.3547 72.3582 63.983 71.4836C64.815 71.0498 65.7181 70.4809 66.223 69.6418C66.5643 69.0659 66.7065 68.2481 66.4007 67.6082C64.6444 69.585 62.376 71.1138 59.873 71.9742C59.2899 72.1733 58.5646 72.536 58.6357 73.1475V73.1404Z" fill="#D8A589"/>
<path d="M57.3061 68.7669C57.3203 68.8735 57.3772 68.966 57.4412 69.0442C57.4909 68.9518 57.5976 68.8878 57.7114 68.8735H57.7185C57.9603 68.8593 58.2091 68.8451 58.4438 68.8167C60.1219 68.6744 61.8001 68.3758 63.4285 67.9278C64.3671 67.6647 65.3911 67.3092 66.0382 66.6194C66.1875 66.4772 66.3084 66.3065 66.4221 66.1288C66.7208 65.6239 66.7706 64.9128 66.351 64.5786C65.7893 65.1333 65.3626 66.0648 64.6373 66.3563C63.1227 66.9678 60.4135 67.7643 58.7922 67.814C58.4509 67.8283 58.1025 67.8283 57.7967 67.9705C57.4909 68.1127 57.235 68.4256 57.299 68.7669H57.3061Z" fill="#D8A589"/>
<path d="M55.7487 60.5183L55.9193 61.2579C55.6776 61.4143 55.4571 61.585 55.2438 61.7556C51.9444 64.4293 51.5462 68.7456 51.5462 70.6015C51.5462 70.8006 51.5462 71.0139 51.5533 71.213C51.5604 71.3339 51.5675 71.4548 51.5746 71.5757C51.5817 71.6823 51.5888 71.7748 51.5959 71.8743C51.6031 71.9525 51.6102 72.0379 51.6173 72.1232C51.6457 72.4859 51.7026 72.8343 51.7595 73.1756C51.7666 73.204 51.7808 73.2396 51.7737 73.2823C51.7879 73.4174 51.8164 73.5383 51.8519 73.6734C51.8875 73.844 51.9301 74.0076 51.9657 74.1711C52.0795 74.612 52.2075 75.0386 52.3639 75.4226C52.4279 75.6075 52.499 75.7711 52.5772 75.9346C52.6341 76.0484 52.691 76.1693 52.7337 76.2688C52.9399 76.6528 53.1603 76.9941 53.395 77.2643C53.4732 77.3639 53.5443 77.4421 53.6225 77.5203C53.6865 77.5914 53.7647 77.6483 53.8287 77.7052C53.9212 77.7834 54.0065 77.8403 54.0989 77.9043C55.7415 78.8998 57.9672 79.2269 60.0649 78.8145C60.0934 78.8074 60.1289 78.8074 60.1574 78.8003C60.3565 78.7576 60.5627 78.7149 60.7618 78.658C60.7902 78.6509 60.8187 78.6367 60.8471 78.6296C60.9538 78.6012 61.0604 78.5656 61.1671 78.5229C61.2453 78.5087 61.3093 78.4803 61.3875 78.4376C61.4231 78.4305 61.4658 78.4092 61.5155 78.395C61.6222 78.3523 61.7289 78.3025 61.8355 78.2456C61.9351 78.203 62.0275 78.1532 62.1271 78.0963C62.1342 78.0963 62.1484 78.0892 62.1555 78.0892C62.3475 77.9754 62.5324 77.8687 62.7173 77.7336C62.7386 77.7265 62.7528 77.7052 62.7742 77.6981C62.9377 77.5772 63.1013 77.4492 63.2719 77.307C63.2719 77.307 63.279 77.3046 63.2932 77.2999C63.3288 77.2643 63.3715 77.2217 63.4212 77.1861C63.4568 77.1506 63.4995 77.1079 63.535 77.0723C63.5563 77.051 63.5848 77.0226 63.6132 76.9941C63.6986 76.9088 63.7768 76.8163 63.855 76.731C63.9119 76.667 63.9617 76.5959 64.0185 76.5319C64.0399 76.5106 64.0541 76.4821 64.0754 76.4537C64.1181 76.3968 64.1608 76.3328 64.2034 76.2759C64.2105 76.2688 64.2105 76.2546 64.2248 76.2546C64.2817 76.1622 64.3528 76.0555 64.4025 75.963H64.4096C64.4594 75.8706 64.5092 75.7853 64.5447 75.6857H64.5519C64.5732 75.6288 64.6016 75.5791 64.623 75.5364C64.6301 75.508 64.6514 75.4795 64.6656 75.444C64.6727 75.4226 64.6727 75.4084 64.687 75.38C64.6941 75.3728 64.6941 75.3586 64.7083 75.3444C64.7367 75.2591 64.7652 75.1809 64.8007 75.0955C64.8007 75.0884 64.8007 75.0671 64.8079 75.06C64.8079 75.0529 64.815 75.0315 64.815 75.0244C64.8363 74.9746 64.8434 74.932 64.8576 74.8822C64.559 75.124 64.2319 75.3373 63.8692 75.5364C63.8408 75.5577 63.7981 75.572 63.7626 75.6004C63.7341 75.6075 63.7057 75.6217 63.6843 75.6359C63.5706 75.6999 63.4497 75.7568 63.3359 75.7995C63.3004 75.8208 63.2577 75.8351 63.2221 75.8422C62.6035 76.1195 61.8924 76.347 61.0818 76.5319C61.0533 76.539 61.0249 76.539 60.9964 76.539C60.8329 76.539 60.6907 76.4253 60.648 76.2617C60.6338 76.1835 60.648 76.1053 60.6694 76.0413C60.6765 76.0128 60.6978 75.9844 60.7191 75.9559C60.7405 75.9275 60.7547 75.9062 60.776 75.8991C60.7831 75.8919 60.7973 75.8777 60.8045 75.8706C60.8258 75.8635 60.8329 75.8493 60.8542 75.8493C60.8756 75.8279 60.904 75.8279 60.9182 75.8208C62.5893 75.4511 63.7626 74.9035 64.6301 74.1071C64.7581 73.9933 64.8718 73.8725 64.9785 73.7516C65.0496 73.6734 65.1136 73.588 65.1705 73.5098C65.1918 73.4814 65.2132 73.4529 65.2274 73.4245C65.2772 73.3605 65.3269 73.2894 65.3625 73.2183C65.3696 73.2112 65.3838 73.1898 65.3909 73.1685C65.4123 73.1329 65.4407 73.0903 65.4478 73.0547C65.4976 72.9907 65.5332 72.9125 65.5687 72.8343C65.6114 72.749 65.6469 72.685 65.6683 72.6067C65.6967 72.5285 65.7251 72.4645 65.7465 72.3863C65.7678 72.3507 65.7749 72.3081 65.7749 72.2725C65.7963 72.2441 65.8034 72.2156 65.8034 72.1872C65.8318 72.0734 65.8674 71.9597 65.8745 71.8459C65.8816 71.7961 65.8958 71.7534 65.8958 71.6966C65.9171 71.5259 65.9242 71.3552 65.9171 71.1917C65.9171 71.1419 65.91 71.0992 65.9171 71.0495C65.4123 71.4903 64.8434 71.8317 64.303 72.1232C62.6177 73.0334 61.0747 73.5667 59.6027 73.7587C59.4605 73.7871 59.3254 73.8014 59.1832 73.8085C59.1761 73.8156 59.1619 73.8156 59.1547 73.8156H59.1192C59.041 73.8156 58.9699 73.7942 58.913 73.7374C58.8845 73.7302 58.8632 73.7089 58.849 73.6805C58.8134 73.6307 58.785 73.5667 58.7779 73.4956C58.7779 73.4671 58.7779 73.4316 58.7921 73.4032C58.7921 73.3676 58.8063 73.3392 58.8205 73.3107C58.8703 73.204 58.977 73.1258 59.0979 73.1045C59.2116 73.0974 59.3254 73.0832 59.4392 73.0618C60.8471 72.8983 62.3404 72.365 63.9688 71.4903C64.8007 71.0566 65.7038 70.4877 66.2087 69.6486C66.2585 69.5633 66.3082 69.4709 66.3438 69.3713C66.3936 69.2647 66.422 69.1722 66.4576 69.0655C66.4789 69.0158 66.486 68.9589 66.5002 68.9162C66.55 68.6958 66.5642 68.4682 66.55 68.2478C66.55 68.2265 66.55 68.2194 66.5429 68.2123V68.1838C66.5429 68.1269 66.5429 68.07 66.5144 68.0203C66.5073 67.9563 66.486 67.8923 66.4718 67.8283C66.4718 67.8283 66.4694 67.8212 66.4647 67.8069C66.4433 67.7429 66.422 67.6789 66.3936 67.6149C66.358 67.5509 66.3225 67.4798 66.2727 67.4087C65.4976 68.0558 64.4879 68.3971 63.6203 68.646C63.2079 68.7598 62.7884 68.8736 62.3688 68.9589C62.2906 68.9731 62.2124 68.9944 62.1413 69.0015C61.8497 69.0727 61.5653 69.1224 61.2667 69.1864C60.9396 69.2504 60.6125 69.3002 60.2925 69.3429C60.136 69.3713 59.9867 69.3926 59.8303 69.414C59.6952 69.4282 59.5743 69.4495 59.4392 69.4638C59.4107 69.4638 59.3894 69.4709 59.361 69.4709C59.1121 69.5064 58.8561 69.5278 58.6072 69.5562C58.3654 69.5704 58.1379 69.5989 57.8961 69.6131H57.889C57.8392 69.6131 57.7966 69.6202 57.7468 69.6131C57.7397 69.6131 57.7255 69.6131 57.7255 69.6131C57.5335 69.6131 57.3842 69.4638 57.3699 69.2789C57.3699 69.2433 57.3842 69.1935 57.3913 69.158C57.3984 69.1295 57.4126 69.1011 57.441 69.0727V69.0513C57.4979 68.966 57.5975 68.902 57.7112 68.8949H57.7326C57.9743 68.8807 58.209 68.8664 58.4508 68.838C60.1289 68.6958 61.8071 68.3971 63.4355 67.9492C64.3741 67.686 65.398 67.3305 66.0451 66.6408C66.1945 66.4985 66.3153 66.3279 66.4291 66.1501C66.6851 65.7164 66.7633 65.1119 66.5002 64.7493C66.4647 64.6924 66.4149 64.6426 66.358 64.6C66.358 64.6 66.3509 64.5928 66.3367 64.5786C65.9029 64.2444 65.1918 64.4648 64.5376 64.6711C62.0488 65.4319 59.7449 65.4604 57.4766 64.7422C57.313 64.6924 56.8793 64.5146 56.6588 64.4293C56.6517 64.4222 56.6304 64.4222 56.6233 64.4222C56.6162 64.4222 56.6162 64.4151 56.602 64.4151C56.4242 64.344 56.3175 64.1449 56.3886 63.96C56.41 63.9031 56.4384 63.8675 56.474 63.8249C56.4811 63.8178 56.4953 63.8035 56.5024 63.7964C56.5735 63.7395 56.6588 63.7111 56.73 63.7111C56.7655 63.7111 56.8082 63.7253 56.8437 63.7324C56.8722 63.7395 57.2419 63.9102 57.2704 63.9244C59.5245 64.7351 61.8213 64.7493 64.3456 63.9742C65.0212 63.7751 65.8176 63.5191 66.5002 63.8462C66.5927 63.8889 66.678 63.9386 66.7633 64.0026C67.4815 64.5431 67.5028 65.6026 67.1046 66.3777C67.0833 66.4274 67.062 66.463 67.0478 66.4985C66.9695 66.6408 66.8771 66.7616 66.7847 66.8825C67.4886 67.7856 67.3606 69.1295 66.8273 69.9971C66.742 70.1393 66.6424 70.2815 66.5358 70.4095C66.87 71.5899 66.5358 72.9338 65.6896 74.0147C65.6469 76.6172 63.343 78.6367 61.0604 79.3051C61.0249 79.3122 60.9751 79.3336 60.9324 79.3336C60.7405 79.3976 60.5414 79.4402 60.3351 79.4829C60.2996 79.4829 60.2711 79.49 60.2285 79.4971C59.5316 79.6393 58.8205 79.7033 58.1095 79.6891C56.5237 79.6607 54.9736 79.2554 53.7363 78.5016C52.0084 77.4705 50.8066 74.2067 50.8138 70.5873C50.8209 66.1217 52.6199 62.4596 55.7416 60.5112L55.7487 60.5183Z" fill="#6D422F"/>
<path d="M104.522 16.0686C105.048 15.5353 105.539 14.746 105.894 14.0065C106.1 14.2838 106.399 14.5114 106.762 14.6251C107.373 14.8171 108.098 14.7034 108.753 14.3052C108.888 14.2198 109.016 14.1345 109.13 14.0421C109.094 14.5114 109.229 14.8882 109.514 15.1798C109.777 15.4429 110.125 15.5709 110.53 15.5709C110.623 15.5709 110.722 15.5709 110.815 15.5496C110.879 15.5424 110.95 15.5211 111.028 15.5069C111.142 15.4784 111.27 15.4429 111.391 15.4002C111.455 15.3789 111.519 15.3647 111.583 15.3291C111.682 15.2936 111.775 15.2438 111.874 15.194C112.877 14.6465 113.666 13.8856 114.292 12.8403C114.541 13.2954 114.975 13.6296 115.444 13.7079C115.977 13.8145 116.532 13.651 116.973 13.3239C117.087 13.715 117.343 14.0776 117.691 14.3052C118.487 14.8243 119.305 14.7745 119.831 14.1487C119.888 14.0847 119.931 14.0136 119.966 13.9496C120.955 15.898 122.932 17.2917 124.866 17.9459C124.773 19.0054 125.122 20.0791 125.826 20.8756C126.423 21.5582 127.177 21.9777 127.966 22.1271C127.653 22.4968 127.426 22.9377 127.333 23.4141C127.291 23.6132 127.411 23.7981 127.611 23.8408C127.803 23.8834 127.995 23.7483 128.023 23.5635C128.137 23.0088 128.478 22.511 128.955 22.1555C128.983 22.1342 129.026 22.1057 129.061 22.0844C129.467 21.8142 129.936 21.6506 130.434 21.6435C131.514 21.6364 132.631 22.3475 133.129 23.3999C133.605 24.4025 133.541 25.6825 132.958 26.7349C132.368 27.8015 131.294 28.5695 130.099 28.797C128.898 29.0175 127.625 28.6904 126.693 27.9153C126.53 27.7873 126.316 27.8015 126.188 27.9508C126.06 28.1144 126.075 28.3348 126.238 28.4557C126.302 28.5055 126.373 28.5624 126.437 28.605C126.231 29.3872 126.068 30.1765 125.918 30.9729C125.243 34.5141 125.115 38.1975 125.527 41.76C125.527 41.824 125.534 41.8809 125.541 41.952C125.42 42.1725 125.292 42.3787 125.164 42.5778C125.136 42.6276 125.108 42.6631 125.086 42.6987C124.795 43.1324 124.468 43.5378 124.119 43.9146C123.941 44.1137 123.749 44.2986 123.557 44.4764C123.394 44.6328 123.209 44.7893 123.024 44.9244C122.974 44.9599 122.925 45.0097 122.882 45.0381C122.718 45.1661 122.541 45.287 122.37 45.4008C121.922 45.7066 121.446 45.9697 120.948 46.1759C120.72 46.2754 120.478 46.3679 120.244 46.439C120.137 46.4745 120.03 46.5101 119.924 46.5385C119.846 46.567 119.767 46.5812 119.703 46.6025C119.561 46.6452 119.419 46.6736 119.27 46.7092C116.596 47.2852 113.695 46.6665 111.49 45.0524C111.526 44.1919 111.569 43.2747 111.604 42.3574C111.611 42.3502 111.611 42.336 111.611 42.3289V42.2934C111.611 42.2934 111.611 42.2862 111.611 42.272V42.1085C111.668 41.0845 111.718 40.0748 111.753 39.129V39.0793C111.753 39.0793 111.803 39.0864 111.832 39.0935C111.995 39.1148 112.173 39.129 112.358 39.129C112.358 39.129 112.365 39.129 112.379 39.129C112.55 39.129 112.721 39.129 112.905 39.1077C113.026 39.1006 113.161 39.0935 113.311 39.065C113.538 39.0437 113.773 38.9939 114.022 38.9442C114.079 38.937 114.128 38.9299 114.185 38.9086C114.356 38.8659 114.541 38.8162 114.726 38.7664C114.889 38.7095 115.06 38.6597 115.238 38.5957C115.536 38.4891 115.842 38.3611 116.155 38.2117C116.311 38.1477 116.454 38.0766 116.596 37.9913C117.065 37.7495 117.563 37.4509 118.047 37.1096C118.125 37.0598 118.21 37.01 118.288 36.9318C119.042 36.3914 119.803 35.723 120.528 34.9337C120.663 34.8057 120.784 34.6706 120.898 34.5283C121.026 34.379 121.154 34.2297 121.282 34.0732C121.396 33.9381 121.51 33.803 121.616 33.6608C121.73 33.5115 121.851 33.3479 121.972 33.1915C122.05 33.0777 122.135 32.9711 122.213 32.8502C122.285 32.7577 122.349 32.6511 122.413 32.5444C122.462 32.4662 122.519 32.3951 122.569 32.3169C122.612 32.26 122.64 32.2031 122.676 32.1462C122.861 31.8404 123.038 31.5418 123.23 31.2218C123.301 31.1009 123.365 30.9729 123.429 30.852C123.451 30.8307 123.458 30.8023 123.479 30.7738C123.522 30.6956 123.565 30.6103 123.607 30.5249C123.614 30.4965 123.636 30.4681 123.636 30.4396C123.643 30.4112 123.643 30.3898 123.65 30.3614C123.65 30.2263 123.586 30.1054 123.465 30.0343C123.415 30.0059 123.358 29.9916 123.316 29.9916C123.181 29.9916 123.045 30.0627 122.974 30.1836C122.775 30.5534 122.576 30.916 122.37 31.2645C122.27 31.4351 122.164 31.6058 122.057 31.7764C121.957 31.9471 121.851 32.1107 121.744 32.2671C121.623 32.4378 121.517 32.6013 121.403 32.7577C121.296 32.9 121.197 33.0422 121.09 33.1702C120.983 33.3195 120.862 33.4617 120.756 33.5968C120.564 33.8386 120.358 34.0661 120.158 34.2937C120.009 34.4501 119.867 34.6066 119.718 34.7559C119.561 34.9123 119.426 35.0545 119.277 35.1896C119.127 35.3319 118.985 35.4599 118.843 35.595C118.701 35.723 118.544 35.851 118.395 35.9718C118.082 36.2278 117.762 36.4554 117.449 36.6829C117.186 36.8536 116.937 37.01 116.674 37.1593C116.518 37.2518 116.354 37.3371 116.205 37.4153C116.155 37.4367 116.098 37.458 116.048 37.4864C115.878 37.5718 115.7 37.6429 115.515 37.7353C115.38 37.7922 115.238 37.842 115.088 37.906L114.783 38.0126C114.591 38.0766 114.399 38.1335 114.207 38.1833C113.055 38.482 112.045 38.482 111.27 38.226C108.44 37.3087 106.826 35.3745 105.738 31.5631C105.595 31.0725 105.467 30.5818 105.354 30.0841C105.226 29.5863 105.126 29.0886 105.027 28.5766C105.027 28.5766 105.027 28.5695 105.027 28.5552C104.941 28.1499 104.856 27.7517 104.799 27.3393C104.721 26.8913 104.65 26.422 104.593 25.9598C104.593 25.9385 104.593 25.91 104.586 25.8958C104.572 25.7038 104.543 25.5189 104.529 25.334C104.479 24.8932 104.429 24.4523 104.401 24.0043C104.365 23.6772 104.344 23.3501 104.33 23.0159C104.323 22.9519 104.316 22.8737 104.316 22.7955C104.294 22.3546 104.273 21.9137 104.273 21.4729C104.259 20.9964 104.259 20.52 104.273 20.0294C104.287 18.7139 104.38 17.3841 104.522 16.0544V16.0686ZM128.507 26.4504C128.571 26.5073 128.656 26.5358 128.734 26.5429C128.841 26.5429 128.947 26.5002 129.011 26.4149C129.36 26.0096 129.772 25.6611 130.234 25.3909C130.355 25.7465 130.434 26.1091 130.476 26.4931C130.49 26.678 130.654 26.8131 130.825 26.8131H130.874C131.066 26.7989 131.216 26.6211 131.194 26.4149C131.145 25.9527 131.038 25.4976 130.882 25.0638C131.13 24.9643 131.394 24.879 131.65 24.8292C131.842 24.7865 131.97 24.5945 131.927 24.3954C131.884 24.2034 131.685 24.0825 131.493 24.1323C131.187 24.2034 130.896 24.2959 130.611 24.4025C130.462 24.0968 130.284 23.8052 130.085 23.5208C129.971 23.3643 129.744 23.3217 129.587 23.4426C129.424 23.5563 129.388 23.7839 129.502 23.9403C129.68 24.1821 129.836 24.4452 129.964 24.7154C129.403 25.0425 128.891 25.462 128.471 25.9527C128.343 26.102 128.357 26.3225 128.507 26.4504ZM117.805 23.3004C117.819 22.4328 117.584 21.7217 117.279 21.7146C116.973 21.7146 116.71 22.4115 116.695 23.279C116.681 24.1465 116.916 24.8576 117.222 24.8647C117.527 24.8647 117.791 24.1679 117.805 23.3004ZM115.544 17.7184C115.373 18.1237 115.579 18.6143 115.913 18.913C116.24 19.2045 116.681 19.3396 117.115 19.4534C117.755 19.6169 120.329 20.4845 120.585 19.5743C120.82 18.7636 118.502 17.9388 117.94 17.633C117.542 17.4126 117.122 17.1922 116.674 17.1495C116.226 17.1068 115.714 17.3059 115.536 17.7255L115.544 17.7184ZM109.556 32.196C109.976 32.3382 110.41 32.4022 110.843 32.4093C112.706 32.4449 114.562 31.3569 115.344 29.6361C115.423 29.4583 115.344 29.245 115.16 29.1526C114.982 29.0743 114.768 29.1526 114.69 29.3374C113.887 31.108 111.633 32.1035 109.77 31.5062C109.578 31.4422 109.386 31.556 109.329 31.7409C109.265 31.9329 109.371 32.132 109.556 32.196ZM109.492 28.1428C109.57 28.221 109.663 28.2637 109.755 28.2637C109.841 28.2637 109.926 28.2281 109.997 28.1713C110.139 28.0433 110.154 27.8086 110.026 27.6664L107.899 25.3127C107.615 24.9998 107.608 24.8647 107.629 24.8078C107.672 24.7154 107.899 24.6301 108.006 24.5945L111.412 23.3857C111.547 23.343 111.633 23.215 111.647 23.087L111.817 21.3875C111.832 21.1955 111.689 21.0249 111.49 20.9964C111.298 20.9822 111.113 21.1244 111.099 21.3164L110.95 22.7884L107.764 23.919C107.544 24.0043 107.117 24.1465 106.961 24.5447C106.733 25.1065 107.188 25.6114 107.359 25.7962L109.485 28.1499L109.492 28.1428ZM106.541 23.1012C106.555 22.2337 106.321 21.5226 106.015 21.5155C105.709 21.5084 105.446 22.2124 105.432 23.0799C105.418 23.9474 105.652 24.6585 105.958 24.6656C106.264 24.6656 106.527 23.9688 106.541 23.1012ZM105.524 19.5672C106.47 19.4392 107.366 18.9841 108.098 18.3583C108.34 18.1521 108.575 17.7824 108.362 17.5406C108.184 17.3344 107.658 17.4339 107.011 17.5832C105.937 17.8535 104.557 18.3939 104.55 18.9343C104.55 18.9343 104.536 19.7094 105.524 19.5601V19.5672Z" fill="#E3C6B3"/>
<path d="M111.775 39.1149C112.152 40.1175 113.147 40.8001 114.207 40.9992C115.337 41.1983 116.51 40.9068 117.556 40.4162C119.191 39.6482 120.571 38.3754 121.531 36.8323C122.071 35.9506 123.6 33.0707 122.683 32.1392C119.469 37.2092 115.188 39.1647 112.379 39.122C112.194 39.122 112.016 39.1078 111.853 39.0864L111.775 39.1149Z" fill="#D8A589"/>
<path d="M109.997 28.1714C110.303 28.2141 110.616 28.1856 110.908 28.0648C111.697 27.7377 112.031 26.7919 112.237 25.9671C112.543 24.7298 112.557 22.2054 111.818 21.3877L111.647 23.0872C111.633 23.2223 111.548 23.3432 111.412 23.3858L108.006 24.5947C107.9 24.6302 107.672 24.7156 107.629 24.808C107.608 24.8649 107.615 25 107.9 25.3129L110.026 27.6666C110.154 27.8088 110.147 28.0434 109.997 28.1714Z" fill="#D8A589"/>
<path d="M111.398 15.4C112.713 16.616 115.551 15.2934 117.122 15.3289C120.329 15.3858 123.038 18.0239 124.205 21.0247C125.364 23.9899 124.624 27.2182 124.532 30.3967V30.5034C124.425 34.8908 124.937 39.6124 122.405 43.1962C121.758 44.0993 120.948 45.1375 120.969 46.1757C122.875 45.3508 124.496 43.8646 125.563 41.9447C125.556 41.8807 125.548 41.8167 125.548 41.7527C125.136 38.1902 125.264 34.5139 125.94 30.9656C126.089 30.1621 126.252 29.3728 126.459 28.5977C126.395 28.555 126.324 28.4982 126.26 28.4484C126.096 28.3204 126.082 28.0999 126.21 27.9435C126.338 27.7942 126.558 27.78 126.715 27.908C127.646 28.6759 128.919 29.0101 130.121 28.7897C131.308 28.5621 132.382 27.7942 132.979 26.7276C133.562 25.6752 133.633 24.3952 133.15 23.3926C132.652 22.3402 131.536 21.622 130.455 21.6362C129.957 21.6433 129.488 21.814 129.083 22.0771C129.047 22.1055 129.004 22.134 128.976 22.1482C128.499 22.5037 128.158 23.0015 128.044 23.5561C128.016 23.7481 127.817 23.8761 127.632 23.8335C127.433 23.7908 127.312 23.6059 127.355 23.4068C127.447 22.9304 127.675 22.4824 127.987 22.1197C127.198 21.9704 126.452 21.5509 125.847 20.8682C125.143 20.0718 124.788 18.9981 124.887 17.9386C122.946 17.2844 120.976 15.8907 119.988 13.9423C119.945 14.0063 119.91 14.0774 119.853 14.1414C119.327 14.76 118.502 14.8169 117.712 14.2978C117.364 14.0703 117.108 13.7147 116.994 13.3165C116.56 13.6436 115.999 13.8072 115.465 13.7005C114.996 13.6152 114.562 13.281 114.313 12.833C113.681 13.8854 112.898 14.6463 111.896 15.1867C111.732 15.2791 111.569 15.3502 111.412 15.4H111.398Z" fill="#D8A589"/>
<path d="M116.695 23.2792C116.681 24.1467 116.916 24.8578 117.222 24.8649C117.527 24.8649 117.791 24.1681 117.805 23.3006C117.819 22.433 117.584 21.722 117.279 21.7148C116.973 21.7148 116.71 22.4117 116.695 23.2792Z" fill="#232333"/>
<path d="M105.432 23.0869C105.418 23.9544 105.652 24.6655 105.958 24.6726C106.264 24.6726 106.527 23.9757 106.541 23.1082C106.556 22.2407 106.321 21.5296 106.015 21.5225C105.709 21.5154 105.446 22.2194 105.432 23.0869Z" fill="#232333"/>
<path d="M107.366 25.7961L109.492 28.1498C109.571 28.228 109.663 28.2707 109.755 28.2707C109.841 28.2707 109.926 28.2351 109.997 28.1782C110.139 28.0502 110.154 27.8156 110.026 27.6734L107.899 25.3197C107.615 25.0068 107.608 24.8717 107.629 24.8148C107.672 24.7224 107.899 24.6371 108.006 24.6015L111.412 23.3927C111.547 23.35 111.633 23.222 111.647 23.094L111.818 21.3945C111.832 21.2025 111.69 21.0319 111.49 21.0034C111.298 20.9892 111.114 21.1314 111.099 21.3234L110.95 22.7953L107.764 23.926C107.544 24.0113 107.117 24.1535 106.961 24.5517C106.733 25.1135 107.188 25.6183 107.359 25.8032L107.366 25.7961Z" fill="#6D422F"/>
<path d="M109.556 32.1959C109.976 32.3381 110.41 32.4021 110.843 32.4092C112.706 32.4448 114.562 31.3568 115.344 29.636C115.423 29.4582 115.344 29.2449 115.16 29.1525C114.982 29.0743 114.769 29.1525 114.69 29.3374C113.887 31.108 111.633 32.1035 109.77 31.5062C109.578 31.4422 109.386 31.5559 109.329 31.7408C109.265 31.9328 109.371 32.1319 109.556 32.1959Z" fill="#6D422F"/>
<path d="M128.464 25.9527C128.884 25.462 129.396 25.0425 129.957 24.7154C129.829 24.4452 129.673 24.1821 129.495 23.9403C129.381 23.7839 129.417 23.5563 129.58 23.4426C129.737 23.3217 129.964 23.3643 130.078 23.5208C130.284 23.7981 130.462 24.0897 130.604 24.4025C130.896 24.2959 131.18 24.2034 131.486 24.1323C131.678 24.0896 131.877 24.2034 131.92 24.3954C131.963 24.5945 131.835 24.7865 131.643 24.8292C131.387 24.879 131.123 24.9643 130.875 25.0638C131.031 25.4976 131.138 25.9598 131.187 26.4149C131.202 26.614 131.059 26.7918 130.867 26.8131H130.818C130.647 26.8131 130.483 26.6709 130.469 26.4931C130.427 26.1091 130.348 25.7465 130.227 25.3909C129.765 25.6611 129.36 26.0096 129.004 26.4149C128.933 26.5002 128.827 26.5429 128.727 26.5429C128.649 26.5429 128.564 26.5144 128.5 26.4504C128.35 26.3224 128.336 26.102 128.464 25.9527Z" fill="#6D422F"/>
<path d="M115.913 18.9061C116.241 19.1977 116.681 19.3328 117.115 19.4465C117.755 19.6101 120.329 20.4776 120.585 19.5674C120.82 18.7568 118.502 17.9319 117.94 17.6262C117.542 17.4057 117.122 17.1853 116.674 17.1426C116.226 17.1 115.714 17.2991 115.537 17.7186C115.366 18.1239 115.572 18.6146 115.906 18.9132L115.913 18.9061Z" fill="#232333"/>
<path d="M104.55 18.9415C104.55 18.9415 104.536 19.7166 105.524 19.5673C106.47 19.4393 107.366 18.9842 108.099 18.3584C108.34 18.1522 108.575 17.7824 108.362 17.5407C108.184 17.3345 107.658 17.434 107.011 17.5833C105.937 17.8536 104.557 18.394 104.55 18.9344V18.9415Z" fill="#232333"/>
<path d="M114.733 27.0263C114.711 28.3062 116.389 29.3729 118.48 29.4084C120.571 29.444 122.284 28.4342 122.306 27.1543C122.327 25.8743 120.649 24.8077 118.558 24.7722C116.468 24.7366 114.754 25.7463 114.733 27.0263Z" fill="#F48C37"/>
<path d="M104.536 25.3411C104.65 26.4433 104.813 27.5241 105.034 28.5908C106.236 28.5339 107.188 27.8512 107.203 27.0122C107.217 26.102 106.165 25.3482 104.842 25.3269C104.735 25.3269 104.629 25.3269 104.536 25.3411Z" fill="#F48C37"/>
<path d="M103.555 19.9513C103.484 24.0116 103.988 28.0363 105.062 31.7695C105.873 34.6067 107.217 37.6786 111.057 38.9158H111.064V38.9229C111.028 39.8758 110.978 40.8998 110.936 41.9095C110.929 41.9593 110.921 42.0019 110.921 42.0517C110.907 42.2437 110.907 42.4357 110.9 42.6277C110.857 43.5165 110.822 44.3841 110.786 45.1947C110.786 45.3156 110.829 45.4222 110.921 45.4933C112.685 46.8444 114.889 47.5768 117.094 47.6195C117.876 47.6337 118.665 47.5626 119.433 47.3919C122.299 46.7733 124.773 44.8676 126.231 42.1655C126.238 42.1441 126.252 42.137 126.252 42.1157C126.274 42.0588 126.281 42.0019 126.274 41.945C126.245 41.7602 126.231 41.5824 126.217 41.3975C125.769 37.2803 126.068 32.9996 127.084 28.9891C127.76 29.3376 128.507 29.5295 129.275 29.5438C129.602 29.5438 129.922 29.5295 130.242 29.4656C131.642 29.2025 132.887 28.2994 133.591 27.055C134.281 25.8035 134.359 24.2747 133.783 23.0516C133.164 21.7432 131.834 20.8543 130.426 20.897C129.815 20.9041 129.218 21.1032 128.706 21.4374H128.699C128.428 21.6223 128.172 21.8356 127.973 22.0916C127.66 22.4614 127.433 22.9023 127.34 23.3787C127.298 23.5778 127.419 23.7627 127.618 23.8053C127.81 23.848 128.002 23.7129 128.03 23.528C128.144 22.9734 128.485 22.4756 128.962 22.1201C128.99 22.0987 129.033 22.0703 129.068 22.049C129.474 21.7788 129.943 21.6152 130.441 21.6081C131.522 21.601 132.638 22.3121 133.136 23.3645C133.612 24.3671 133.548 25.647 132.965 26.6994C132.375 27.7661 131.301 28.534 130.106 28.7616C128.905 28.982 127.632 28.6549 126.7 27.8798C126.537 27.7518 126.324 27.7661 126.196 27.9154C126.068 28.0789 126.082 28.2994 126.245 28.4203C126.309 28.47 126.38 28.5269 126.444 28.5696C126.238 29.3518 126.075 30.1411 125.925 30.9375C125.25 34.4787 125.122 38.1621 125.534 41.7246C125.534 41.7886 125.541 41.8455 125.548 41.9166C125.413 42.1726 125.25 42.4286 125.093 42.6632C124.802 43.097 124.475 43.5023 124.126 43.8792C123.949 44.0783 123.757 44.2632 123.565 44.4409C123.401 44.5974 123.216 44.7538 123.031 44.8889C122.953 44.9529 122.875 45.0098 122.797 45.0667C122.711 45.1307 122.633 45.1947 122.548 45.2445C122.441 45.3298 122.334 45.4009 122.221 45.4649C122.093 45.5502 121.972 45.6213 121.837 45.6996C121.559 45.8702 121.261 46.0124 120.962 46.1404C120.734 46.24 120.493 46.3324 120.258 46.4035C120.151 46.4391 120.045 46.4746 119.938 46.5031C119.86 46.5315 119.782 46.5457 119.718 46.5671C119.575 46.6097 119.433 46.6382 119.284 46.6737C116.61 47.2497 113.709 46.6311 111.505 45.0169C111.54 44.1565 111.583 43.2392 111.618 42.3219C111.625 42.3148 111.625 42.3006 111.625 42.2935V42.2579C111.625 42.2579 111.625 42.2508 111.625 42.2366V42.073C111.682 41.0491 111.732 40.0393 111.768 39.0936V39.0438C111.768 39.0438 111.817 39.0509 111.846 39.0581C112.009 39.0794 112.187 39.0936 112.372 39.0936H112.457C112.457 39.0936 112.507 39.0936 112.536 39.0936C112.785 39.0936 113.041 39.0865 113.318 39.0438C113.432 39.0296 113.545 39.0083 113.666 38.9941C113.78 38.9798 113.908 38.9514 114.029 38.9229C114.086 38.9158 114.136 38.9087 114.192 38.8874C114.271 38.8661 114.356 38.8518 114.441 38.8234C114.505 38.8021 114.584 38.7878 114.662 38.7594C114.768 38.731 114.882 38.6954 114.996 38.6527C115.06 38.6314 115.138 38.6101 115.209 38.5816C115.337 38.539 115.458 38.4892 115.593 38.4323C115.615 38.4252 115.643 38.411 115.672 38.3967H115.693C115.693 38.3967 115.743 38.3683 115.771 38.3541H115.778C115.835 38.3327 115.885 38.3185 115.942 38.283C115.963 38.283 115.992 38.2616 116.006 38.2545C116.034 38.2474 116.063 38.2332 116.091 38.219C116.255 38.1479 116.418 38.0625 116.596 37.9701C116.624 37.9488 116.653 37.9417 116.681 37.9203C116.745 37.8848 116.823 37.8492 116.895 37.8065C116.916 37.7994 116.93 37.7852 116.951 37.771C117.087 37.707 117.229 37.6217 117.364 37.5292C117.442 37.4794 117.52 37.4368 117.599 37.3799C117.627 37.3728 117.648 37.3515 117.677 37.3301C117.698 37.323 117.727 37.3017 117.748 37.2803C117.769 37.2732 117.798 37.2519 117.819 37.2306C117.975 37.1381 118.139 37.0244 118.295 36.8964C118.48 36.7541 118.672 36.619 118.857 36.4697H118.864C119.056 36.3133 119.241 36.1639 119.426 35.9933C119.483 35.9364 119.54 35.8937 119.604 35.8369C119.654 35.7871 119.703 35.7515 119.753 35.6946C119.867 35.588 119.995 35.4813 120.116 35.3533C120.144 35.3249 120.173 35.2893 120.215 35.2467C120.365 35.1044 120.507 34.948 120.656 34.7844C120.685 34.756 120.713 34.7276 120.734 34.6991C120.742 34.6778 120.763 34.6707 120.784 34.6493C120.962 34.4502 121.133 34.2511 121.303 34.0378C121.417 33.9027 121.531 33.7676 121.637 33.6254C121.879 33.3125 122.114 32.9854 122.356 32.637C122.398 32.5801 122.434 32.5161 122.477 32.4592C122.555 32.3454 122.633 32.2317 122.704 32.1179C122.889 31.8121 123.067 31.5135 123.259 31.1935C123.33 31.0726 123.394 30.9446 123.458 30.8237C123.479 30.8024 123.486 30.7739 123.508 30.7455C123.55 30.6673 123.593 30.582 123.636 30.4966C123.643 30.4682 123.664 30.4397 123.664 30.4113C123.671 30.3828 123.671 30.3615 123.678 30.3331C123.678 30.198 123.614 30.0771 123.493 30.006C123.444 29.9775 123.387 29.9633 123.344 29.9633C123.209 29.9633 123.074 30.0344 123.003 30.1553C122.804 30.5251 122.605 30.8877 122.398 31.2361C122.299 31.4068 122.192 31.5775 122.085 31.7481C121.986 31.9188 121.879 32.0823 121.773 32.2388C121.652 32.4094 121.545 32.573 121.431 32.7294C121.325 32.8716 121.225 33.0139 121.118 33.1418C121.012 33.2912 120.891 33.4334 120.784 33.5685C120.592 33.8103 120.386 34.0378 120.187 34.2654C120.038 34.4218 119.895 34.5782 119.746 34.7276C119.59 34.884 119.454 35.0262 119.305 35.1613C119.156 35.3035 119.014 35.4315 118.871 35.5666C118.729 35.6946 118.573 35.8226 118.423 35.9435C118.111 36.1995 117.791 36.427 117.478 36.6546C117.215 36.8253 116.966 36.9888 116.703 37.131C116.546 37.2235 116.383 37.3088 116.233 37.387C116.184 37.4083 116.127 37.4297 116.077 37.4581C115.906 37.5434 115.728 37.6146 115.544 37.707C115.408 37.7639 115.266 37.8137 115.117 37.8777L114.811 37.9843C114.619 38.0483 114.427 38.1052 114.235 38.155C113.083 38.4536 112.073 38.4536 111.298 38.1976C108.468 37.2803 106.854 35.3462 105.766 31.5348C105.624 31.0442 105.496 30.5535 105.382 30.0558C105.254 29.558 105.155 29.0602 105.055 28.5483C105.005 28.278 104.948 28.0078 104.899 27.7447C104.892 27.6665 104.87 27.5812 104.856 27.4959C104.828 27.311 104.792 27.1332 104.771 26.9412C104.728 26.6852 104.692 26.4363 104.657 26.1732C104.65 26.095 104.643 26.0097 104.621 25.9315C104.621 25.9101 104.621 25.8817 104.614 25.8675C104.6 25.6755 104.572 25.4906 104.557 25.3057C104.508 24.8649 104.458 24.424 104.429 23.976C104.394 23.6489 104.372 23.3218 104.358 22.9876C104.351 22.9236 104.344 22.8454 104.344 22.7672C104.323 22.3263 104.301 21.8854 104.301 21.4445C104.287 20.9681 104.287 20.4917 104.301 20.001C104.316 18.6855 104.408 17.3558 104.55 16.0261C104.515 16.0617 104.479 16.0901 104.451 16.1185C104.301 16.2608 104.074 16.2465 103.946 16.1114C103.882 16.0403 103.846 15.9479 103.846 15.8625C103.69 17.2065 103.612 18.5647 103.583 19.9086L103.555 19.9513Z" fill="#6D422F"/>
<path d="M94.2323 42.3004L97.0766 40.2596C97.1833 40.1885 97.3397 40.1672 97.4464 40.2383L102.097 42.6489C102.239 42.3146 102.481 42.016 102.822 41.8027C103.249 41.5111 103.739 41.3974 104.216 41.2978C104.251 41.2978 104.28 41.2907 104.323 41.2836C105.965 41.0063 107.537 41.0063 109.3 41.2765C109.478 41.2978 109.613 41.4613 109.606 41.6462C109.592 41.76 109.542 41.8524 109.457 41.9093C109.492 41.9093 109.521 41.9022 109.563 41.9022H109.627C110.068 41.8951 110.488 41.9022 110.914 41.9235H110.921C110.971 40.9138 111.014 39.8899 111.049 38.937L111.042 38.9299C108.397 38.0695 106.939 36.3558 106.015 34.4359C105.603 33.5683 105.297 32.6653 105.048 31.7835C103.974 28.0432 103.469 24.0256 103.54 19.9653C103.562 18.6214 103.647 17.2632 103.803 15.9193V15.8837C103.803 15.8837 103.818 15.8339 103.825 15.8197C103.825 15.8126 103.832 15.7913 103.832 15.7842C103.832 15.7842 103.834 15.7771 103.839 15.7628C103.839 15.7628 103.882 15.7059 103.896 15.6775C103.896 15.6775 103.903 15.6704 103.917 15.6562C104.614 15.002 105.275 13.7505 105.588 12.8474C105.645 12.6767 105.83 12.5772 106.015 12.6127C106.193 12.6554 106.306 12.8261 106.285 13.0181C106.221 13.4305 106.577 13.8358 106.968 13.9567C107.373 14.0847 107.892 13.9994 108.369 13.7007C108.831 13.4234 109.222 12.9967 109.599 12.5843C109.727 12.4492 109.926 12.4279 110.068 12.5274C110.217 12.6341 110.26 12.8261 110.182 12.9896C109.769 13.8145 109.705 14.3833 110.011 14.6891C110.338 15.0304 111 14.8527 111.512 14.5753C112.678 13.9354 113.488 13.0038 114.135 11.5746C114.164 11.4963 114.192 11.4252 114.235 11.3541C114.335 11.1835 114.534 11.1195 114.704 11.2119C114.875 11.2901 114.946 11.4963 114.875 11.6741C114.854 11.7239 114.825 11.7808 114.804 11.8234C114.754 12.0154 114.768 12.2216 114.868 12.435C115.003 12.7336 115.273 12.9612 115.558 13.0181C116.098 13.1105 116.702 12.7621 116.966 12.2216C116.987 12.1576 117.015 12.0865 117.044 12.0297C117.122 11.859 117.328 11.7737 117.506 11.859C117.677 11.9301 117.769 12.1292 117.698 12.2999C117.677 12.3639 117.655 12.4207 117.627 12.4776C117.492 12.9185 117.677 13.4518 118.054 13.7078C118.281 13.8571 118.857 14.1487 119.255 13.6794C119.49 13.4163 119.469 12.8901 119.412 12.4421C119.369 12.2572 119.341 12.0794 119.326 11.8874C119.298 11.6954 119.44 11.5177 119.632 11.4892C119.824 11.4608 120.002 11.603 120.037 11.795L120.052 11.923C120.08 12.051 120.094 12.1932 120.123 12.3354C120.663 14.8882 123.067 16.6801 125.342 17.3557C125.513 17.4054 125.627 17.5832 125.591 17.761C125.42 18.6854 125.719 19.7022 126.345 20.4062C126.985 21.1315 127.81 21.5084 128.67 21.4799H128.677C129.189 21.1457 129.786 20.9466 130.398 20.9395C131.806 20.8969 133.136 21.7786 133.754 23.0941C134.323 24.3172 134.252 25.846 133.562 27.0975C133.136 27.8441 132.517 28.477 131.77 28.9107C131.287 29.1952 130.768 29.4014 130.213 29.5081C129.893 29.5721 129.573 29.5934 129.246 29.5863C128.485 29.5721 127.731 29.3801 127.056 29.0316C126.039 33.0492 125.747 37.3228 126.188 41.44C126.217 41.44 126.252 41.44 126.281 41.4542C127.682 41.568 128.876 41.8311 130.234 42.1653H130.256C132.745 41.3262 135.532 42.5066 137.473 43.8079C138.078 44.2203 138.597 44.6399 139.002 45.0096C139.35 45.3296 139.486 45.735 139.393 46.1332C139.386 46.1687 139.372 46.2114 139.35 46.2469C141.427 47.6051 145.117 50.0939 148.602 52.8956C148.63 52.8671 148.68 52.8387 148.73 52.8316C150.138 49.7241 149.647 45.8416 147.457 43.2035C147.08 42.7555 146.66 42.3289 146.234 41.9093C145.679 41.3547 145.103 40.7929 144.627 40.1316C143.965 39.2214 142.593 37.3371 143.589 35.9007C145.949 32.5088 145.508 27.3677 142.6 24.4309C142.138 23.9758 141.619 23.5421 141.114 23.1225C139.898 22.1199 138.639 21.0746 138.12 19.5245C137.829 18.6498 137.829 17.7325 137.829 16.8508C137.829 16.5379 137.829 16.2322 137.815 15.9264C137.687 12.9612 136.264 10.0386 134.003 8.1187C131.529 6.02101 128.172 4.87617 125.449 5.21038C125.342 5.2246 125.235 5.19615 125.164 5.11794C123.92 3.98731 122.505 2.70026 120.82 2.15272C119.298 1.66919 117.257 1.91095 116.297 3.30468C116.24 3.39712 116.119 3.454 116.006 3.46111C115.892 3.44689 115.778 3.39712 115.714 3.30468C114.825 2.03895 113.048 1.83274 111.668 2.18117C110.217 2.55804 109.051 3.91621 108.895 5.40237C108.873 5.58014 108.753 5.72236 108.525 5.72236C105.439 5.65836 102.986 8.58802 101.976 11.3826C101.08 13.8358 101.023 16.545 100.973 19.1618L100.959 19.9084C100.959 20.1644 100.952 20.4133 100.938 20.6622L100.916 21.5226C100.845 24.5803 100.767 28.0361 98.3992 29.9631C91.1533 35.8794 93.2652 40.5796 94.1825 42.3146L94.2323 42.3004Z" fill="#323147"/>
<path d="M126.224 41.4118C127.667 41.5256 128.883 41.7958 130.27 42.13H130.291C132.78 41.2909 135.568 42.4713 137.509 43.7726C137.53 43.6019 137.544 43.4384 137.537 43.2677C137.516 41.5682 136.563 39.9825 135.269 38.8732C134.423 38.1408 133.377 37.5506 132.851 36.5693C132.204 35.3534 132.467 33.8886 132.538 32.5091C132.595 31.3358 132.346 29.9989 131.799 28.8896C131.315 29.167 130.796 29.3661 130.242 29.4727C129.922 29.5367 129.602 29.5581 129.274 29.551C128.514 29.5367 127.76 29.3447 127.084 28.9963C126.067 33.0139 125.776 37.2875 126.217 41.4047L126.224 41.4118Z" fill="#232333"/>
<path d="M104.216 41.2977C104.251 41.2977 104.28 41.2906 104.323 41.2835C105.965 41.0062 107.537 41.0062 109.3 41.2764C109.478 41.2977 109.613 41.4613 109.606 41.6462C109.592 41.7599 109.542 41.8524 109.457 41.9093C109.492 41.9093 109.521 41.9022 109.563 41.9022H109.627C110.068 41.895 110.488 41.9022 110.914 41.9235H110.921C110.971 40.9137 111.014 39.8898 111.049 38.9369L111.042 38.9298C108.397 38.0694 106.939 36.3557 106.015 34.4358C104.707 35.1184 104.422 37.5717 104.365 39.7476C104.344 40.2667 104.308 40.8 104.202 41.3048L104.216 41.2977Z" fill="#232333"/>
<path d="M93.6422 42.72L94.2324 42.3004C93.3151 40.5654 91.2103 35.8651 98.4491 29.9489C100.817 28.0219 100.895 24.566 100.966 21.5084L100.988 20.648C101.002 20.3991 101.009 20.1502 101.009 19.8942L101.023 19.1476C101.08 16.5308 101.137 13.8145 102.026 11.3684C103.043 8.5738 105.489 5.64415 108.575 5.70814C108.802 5.70814 108.923 5.57304 108.945 5.38816C109.094 3.90199 110.267 2.54383 111.718 2.16695C113.09 1.81852 114.875 2.02474 115.764 3.29046C115.828 3.39001 115.942 3.43979 116.056 3.4469C116.169 3.43979 116.283 3.3829 116.347 3.29046C117.307 1.88963 119.348 1.64786 120.87 2.13851C122.555 2.68604 123.97 3.9731 125.214 5.10372C125.292 5.18194 125.392 5.21038 125.499 5.19616C128.222 4.86195 131.571 6.0068 134.053 8.10449C136.314 10.0244 137.736 12.947 137.864 15.9122C137.879 16.2179 137.872 16.5237 137.879 16.8366C137.879 17.7183 137.879 18.6356 138.17 19.5103C138.689 21.0604 139.948 22.1057 141.164 23.1083C141.676 23.5279 142.188 23.9545 142.65 24.4167C145.551 27.3535 145.999 32.4946 143.638 35.8865C142.636 37.3229 144.008 39.2072 144.677 40.1174C145.153 40.7787 145.729 41.3405 146.284 41.8951C146.703 42.3147 147.13 42.7413 147.507 43.1893C149.697 45.8274 150.195 49.7099 148.78 52.8173C148.73 52.8245 148.68 52.8529 148.652 52.8813C148.865 53.0591 149.078 53.2298 149.284 53.4075C150.977 50.0157 150.486 45.6639 148.054 42.7271C147.663 42.2507 147.222 41.8169 146.789 41.3831C146.227 40.8285 145.701 40.3023 145.253 39.6908C144.406 38.5104 143.603 37.1878 144.229 36.2918C146.824 32.5728 146.355 27.1331 143.162 23.9047C142.686 23.4283 142.145 22.9803 141.626 22.5466C140.431 21.5582 139.301 20.6338 138.853 19.2898C138.597 18.5218 138.597 17.697 138.597 16.8295C138.597 16.5166 138.59 16.1966 138.583 15.8766C138.448 12.7194 136.933 9.60487 134.515 7.55696C131.941 5.38104 128.457 4.1722 125.584 4.46375C124.311 3.30468 122.875 2.02474 121.097 1.46298C119.462 0.93678 117.3 1.15722 116.063 2.51538C114.918 1.29232 113.019 1.09322 111.547 1.48431C109.898 1.91096 108.589 3.32602 108.283 5.00417C105.02 5.11083 102.424 8.19693 101.365 11.1266C100.433 13.6936 100.376 16.4739 100.319 19.1476C100.312 19.6454 100.305 20.1431 100.284 20.6409L100.262 21.5084C100.191 24.4025 100.12 27.6877 98.0154 29.4014C92.7605 33.6892 91.3028 38.1762 93.6565 42.7342L93.6422 42.72Z" fill="#232333"/>
<path d="M148.7 53.8475C148.637 53.798 148.566 53.7485 148.509 53.699C148.559 53.7697 148.622 53.8263 148.7 53.8475Z" fill="#922428"/>
<path d="M103.818 15.9052C103.818 15.9905 103.853 16.0901 103.917 16.1541C104.045 16.2892 104.28 16.3034 104.422 16.1612C104.451 16.1327 104.479 16.1043 104.522 16.0688C105.048 15.5354 105.539 14.7461 105.894 14.0066C106.1 14.2839 106.399 14.5115 106.762 14.6253C107.373 14.8172 108.099 14.7035 108.753 14.3053C108.888 14.2199 109.016 14.1346 109.13 14.0422C109.094 14.5115 109.229 14.8884 109.514 15.1799C109.777 15.443 110.125 15.571 110.53 15.571C110.623 15.571 110.722 15.571 110.815 15.5497C110.879 15.5426 110.95 15.5212 111.028 15.507C111.142 15.4786 111.27 15.443 111.391 15.4003C111.448 15.379 111.519 15.3648 111.583 15.3292C111.682 15.2937 111.775 15.2439 111.874 15.1941C112.877 14.6466 113.666 13.8857 114.292 12.8404C114.541 13.2955 114.975 13.6297 115.444 13.708C115.977 13.8146 116.532 13.6511 116.973 13.324C117.087 13.7151 117.343 14.0777 117.691 14.3053C118.488 14.8244 119.305 14.7746 119.831 14.1488C119.888 14.0848 119.931 14.0137 119.967 13.9497C120.955 15.8981 122.932 17.2918 124.866 17.946C124.773 19.0055 125.122 20.0793 125.826 20.8757C126.423 21.5583 127.177 21.9778 127.966 22.1272C128.172 21.8712 128.421 21.6579 128.692 21.473C127.831 21.5085 127.006 21.1317 126.366 20.3992C125.741 19.7024 125.442 18.6784 125.613 17.754C125.641 17.5762 125.534 17.3985 125.364 17.3487C123.088 16.6661 120.685 14.8812 120.144 12.3285C120.116 12.1862 120.102 12.044 120.073 11.916L120.059 11.788C120.023 11.596 119.846 11.4609 119.654 11.4823C119.462 11.5107 119.327 11.6885 119.348 11.8805C119.362 12.0725 119.391 12.2574 119.433 12.4351C119.49 12.8831 119.511 13.4093 119.277 13.6724C118.879 14.1417 118.296 13.8431 118.075 13.7008C117.698 13.4449 117.513 12.9044 117.648 12.4707C117.677 12.4138 117.698 12.3569 117.72 12.2929C117.791 12.1222 117.698 11.9231 117.528 11.852C117.35 11.7738 117.144 11.852 117.065 12.0227C117.037 12.0796 117.008 12.1436 116.987 12.2147C116.717 12.7551 116.12 13.1107 115.579 13.0111C115.295 12.9471 115.032 12.7267 114.889 12.428C114.79 12.2147 114.776 12.0085 114.825 11.8165C114.847 11.7667 114.875 11.7098 114.897 11.6672C114.968 11.4894 114.897 11.2832 114.726 11.2049C114.555 11.1125 114.356 11.1765 114.257 11.3472C114.214 11.4112 114.185 11.4894 114.157 11.5676C113.51 12.9969 112.699 13.9284 111.533 14.5684C111.021 14.8457 110.36 15.0235 110.033 14.6821C109.734 14.3835 109.791 13.8075 110.203 12.9827C110.282 12.8191 110.239 12.6271 110.09 12.5205C109.947 12.4209 109.748 12.4493 109.62 12.5773C109.243 12.9898 108.852 13.4164 108.39 13.6937C107.914 13.9924 107.402 14.0777 106.989 13.9497C106.598 13.8288 106.243 13.4235 106.307 13.0111C106.328 12.8191 106.214 12.6484 106.036 12.6058C105.859 12.5631 105.674 12.6698 105.61 12.8404C105.297 13.7435 104.636 14.995 103.939 15.6492C103.939 15.6492 103.932 15.6563 103.917 15.6705C103.917 15.6705 103.868 15.7274 103.861 15.7559C103.861 15.7559 103.858 15.763 103.853 15.7772C103.853 15.7772 103.846 15.8057 103.846 15.8128C103.839 15.8412 103.825 15.8768 103.825 15.9194L103.818 15.9052Z" fill="#232333"/>
<path d="M64.7742 144.237L63.0107 144.239L63.0373 169.603L64.8008 169.601L64.7742 144.237Z" fill="#B0AFB4"/>
<path d="M46.7627 144.377L45.177 144.379L45.2034 169.615L46.7891 169.613L46.7627 144.377Z" fill="#B0AFB4"/>
<path d="M63.2365 169.101H64.815L64.7866 144.227H63.208L63.2365 169.101Z" fill="#4C4749"/>
<path d="M45.2177 169.122L45.1892 144.376L46.775 144.369L46.8034 169.115H45.2177V169.122ZM69.0674 138.972H64.0969L48.5669 138.993H42.7858C41.3921 139 40.2686 140.145 40.2686 141.532C40.2686 142.933 41.3992 144.063 42.7929 144.063H44.3502L44.3786 169.947H47.6425L47.614 144.056H51.7241L61.6792 144.042H62.369L62.3974 169.925H65.6471L65.6186 144.035H69.0745C70.4753 144.035 71.6059 142.897 71.5988 141.496C71.5988 140.103 70.4682 138.965 69.0674 138.965V138.972ZM69.0745 143.196H61.8855L50.4441 143.217H42.7929C41.8614 143.224 41.1076 142.463 41.1076 141.532C41.1076 140.6 41.8614 139.839 42.7858 139.839L48.6949 139.761H63.4143L69.0674 139.811C70.006 139.811 70.7598 140.572 70.7598 141.503C70.7598 142.435 70.006 143.196 69.0674 143.196H69.0745Z" fill="#4C4749"/>
<path d="M69.0743 139.819C69.0743 139.819 63.4212 139.783 63.4212 139.769H48.7018L42.7927 139.847C41.8612 139.847 41.1074 140.615 41.1146 141.539C41.1146 142.471 41.8683 143.232 42.7998 143.232H50.4511L61.8924 143.21H69.0814C70.02 143.203 70.7738 142.435 70.7738 141.511C70.7738 140.579 70.02 139.819 69.0814 139.819H69.0743Z" fill="#D2D0D6"/>
<path d="M64.6819 144.379L63.0962 144.381L63.1226 169.617L64.7083 169.616L64.6819 144.379Z" fill="#B0AFB4"/>
</g>
<defs>
<clipPath id="clip0_274_2349">
<rect width="214" height="161" fill="white"/>
</clipPath>
</defs>
</svg>
