<svg width="205" height="161" viewBox="0 0 205 161" fill="none" xmlns="http://www.w3.org/2000/svg">
<g clip-path="url(#clip0_274_2232)">
<path d="M162.352 138.107C169.973 130.486 169.973 118.13 162.352 110.509C154.731 102.889 142.375 102.889 134.755 110.509C127.134 118.13 127.134 130.486 134.755 138.107C142.375 145.728 154.731 145.728 162.352 138.107Z" fill="#E6E6E6"/>
<path d="M182.737 89.9597H101.568C101.513 89.9597 101.468 89.9154 101.468 89.8596V27.57C101.468 27.5142 101.513 27.47 101.568 27.47H182.737C182.793 27.47 182.837 27.5142 182.837 27.57V89.8596C182.837 89.9154 182.793 89.9597 182.737 89.9597ZM101.67 89.7596H182.637V27.67H101.67V89.7577V89.7596Z" fill="white"/>
<path d="M182.955 13.7417H101.362V27.4526H182.955V13.7417Z" fill="#F48C37"/>
<path d="M137.8 33.335H127.246V43.8894H137.8V33.335Z" fill="#E6E6E6"/>
<path d="M154.269 33.335H143.715V43.8894H154.269V33.335Z" fill="#E6E6E6"/>
<path d="M170.738 33.335H160.184V43.8894H170.738V33.335Z" fill="#E6E6E6"/>
<path d="M121.33 51.0466H110.776V61.601H121.33V51.0466Z" fill="#E6E6E6"/>
<path d="M137.8 51.0466H127.246V61.601H137.8V51.0466Z" fill="#E6E6E6"/>
<path d="M154.269 51.0466H143.715V61.601H154.269V51.0466Z" fill="#E6E6E6"/>
<path d="M170.738 51.0466H160.184V61.601H170.738V51.0466Z" fill="#E6E6E6"/>
<path d="M121.33 68.7585H110.776V79.313H121.33V68.7585Z" fill="#E6E6E6"/>
<path d="M137.8 68.7585H127.246V79.313H137.8V68.7585Z" fill="#E6E6E6"/>
<path d="M154.269 68.7585H143.715V79.313H154.269V68.7585Z" fill="#E6E6E6"/>
<path d="M110.778 20.047C111.546 20.047 112.169 19.4244 112.169 18.6563C112.169 17.8883 111.546 17.2656 110.778 17.2656C110.01 17.2656 109.387 17.8883 109.387 18.6563C109.387 19.4244 110.01 20.047 110.778 20.047Z" fill="#11161A"/>
<path d="M110.195 18.6159C107.891 18.6159 106.017 16.4288 106.017 13.7417C106.017 11.0545 107.891 8.86743 110.195 8.86743C112.499 8.86743 114.373 11.0545 114.373 13.7417C114.373 13.7974 114.329 13.8417 114.273 13.8417C114.217 13.8417 114.173 13.7974 114.173 13.7417C114.173 11.1641 112.39 9.06748 110.197 9.06748C108.004 9.06748 106.221 11.1641 106.221 13.7417C106.221 16.3192 108.004 18.4158 110.197 18.4158C110.253 18.4158 110.297 18.4601 110.297 18.5159C110.297 18.5716 110.253 18.6159 110.197 18.6159H110.195Z" fill="#11161A"/>
<path d="M126.059 20.047C126.827 20.047 127.449 19.4244 127.449 18.6563C127.449 17.8883 126.827 17.2656 126.059 17.2656C125.291 17.2656 124.668 17.8883 124.668 18.6563C124.668 19.4244 125.291 20.047 126.059 20.047Z" fill="#11161A"/>
<path d="M125.476 18.6159C123.173 18.6159 121.298 16.4288 121.298 13.7417C121.298 11.0545 123.171 8.86743 125.476 8.86743C127.78 8.86743 129.654 11.0545 129.654 13.7417C129.654 13.7974 129.609 13.8417 129.554 13.8417C129.498 13.8417 129.454 13.7974 129.454 13.7417C129.454 11.1641 127.671 9.06748 125.478 9.06748C123.285 9.06748 121.502 11.1641 121.502 13.7417C121.502 16.3192 123.285 18.4158 125.478 18.4158C125.533 18.4158 125.578 18.4601 125.578 18.5159C125.578 18.5716 125.533 18.6159 125.478 18.6159H125.476Z" fill="#11161A"/>
<path d="M141.339 20.047C142.107 20.047 142.73 19.4244 142.73 18.6563C142.73 17.8883 142.107 17.2656 141.339 17.2656C140.571 17.2656 139.948 17.8883 139.948 18.6563C139.948 19.4244 140.571 20.047 141.339 20.047Z" fill="#11161A"/>
<path d="M140.757 18.6159C138.454 18.6159 136.579 16.4288 136.579 13.7417C136.579 11.0545 138.452 8.86743 140.757 8.86743C143.061 8.86743 144.934 11.0545 144.934 13.7417C144.934 13.7974 144.89 13.8417 144.834 13.8417C144.779 13.8417 144.734 13.7974 144.734 13.7417C144.734 11.1641 142.951 9.06748 140.758 9.06748C138.566 9.06748 136.783 11.1641 136.783 13.7417C136.783 16.3192 138.566 18.4158 140.758 18.4158C140.814 18.4158 140.858 18.4601 140.858 18.5159C140.858 18.5716 140.814 18.6159 140.758 18.6159H140.757Z" fill="#11161A"/>
<path d="M156.62 20.047C157.388 20.047 158.01 19.4244 158.01 18.6563C158.01 17.8883 157.388 17.2656 156.62 17.2656C155.852 17.2656 155.229 17.8883 155.229 18.6563C155.229 19.4244 155.852 20.047 156.62 20.047Z" fill="#11161A"/>
<path d="M156.037 18.6159C153.732 18.6159 151.859 16.4288 151.859 13.7417C151.859 11.0545 153.732 8.86743 156.037 8.86743C158.341 8.86743 160.215 11.0545 160.215 13.7417C160.215 13.7974 160.17 13.8417 160.115 13.8417C160.059 13.8417 160.015 13.7974 160.015 13.7417C160.015 11.1641 158.232 9.06748 156.039 9.06748C153.846 9.06748 152.063 11.1641 152.063 13.7417C152.063 16.3192 153.846 18.4158 156.039 18.4158C156.095 18.4158 156.139 18.4601 156.139 18.5159C156.139 18.5716 156.095 18.6159 156.039 18.6159H156.037Z" fill="#11161A"/>
<path d="M171.902 20.047C172.67 20.047 173.293 19.4244 173.293 18.6563C173.293 17.8883 172.67 17.2656 171.902 17.2656C171.134 17.2656 170.511 17.8883 170.511 18.6563C170.511 19.4244 171.134 20.047 171.902 20.047Z" fill="white"/>
<path d="M171.319 18.6159C169.017 18.6159 167.141 16.4288 167.141 13.7417C167.141 11.0545 169.015 8.86743 171.319 8.86743C173.623 8.86743 175.497 11.0545 175.497 13.7417C175.497 13.7974 175.453 13.8417 175.397 13.8417C175.341 13.8417 175.297 13.7974 175.297 13.7417C175.297 11.1641 173.514 9.06748 171.321 9.06748C169.128 9.06748 167.345 11.1641 167.345 13.7417C167.345 16.3192 169.128 18.4158 171.321 18.4158C171.377 18.4158 171.421 18.4601 171.421 18.5159C171.421 18.5716 171.377 18.6159 171.321 18.6159H171.319Z" fill="white"/>
<path d="M144.205 42.8447C138.813 45.3261 134.497 49.2655 130.706 53.578C128.619 52.297 126.457 51.1524 124.081 50.385L123.889 50.5908C126.001 52.4797 129.44 57.3751 131.619 59.2467C135.899 54.861 140.279 47.517 144.418 43.0313L144.205 42.8466V42.8447Z" fill="#2E37DB"/>
<path d="M58.914 64.9114C60.6778 73.5596 51.4757 68.8951 50.4062 64.5825C50.1542 63.5669 51.5315 56.5345 51.6815 55.5054L57.6079 57.2827C58.0407 59.8256 58.4812 62.3666 58.914 64.9114Z" fill="#FF938C"/>
<path d="M58.1985 60.5643C55.7845 64.6557 52.2779 57.9906 52.4202 56.6788L57.8388 56.5095C58.0004 57.6502 58.0369 59.4198 58.1985 60.5624V60.5643Z" fill="#11161A"/>
<path d="M67.633 45.1625C68.087 50.3849 66.1057 57.0634 61.6124 59.4736C60.3217 60.1661 59.0791 60.1353 58.2673 60.1141C53.3623 59.9891 47.6552 55.6342 46.5223 49.5655C45.5259 44.2316 47.9457 36.9337 53.5893 35.6257C57.8115 34.6466 64.2726 35.9835 66.2115 39.5266C67.131 41.2078 67.4195 42.7043 67.633 45.1606V45.1625Z" fill="#FF938C"/>
<path d="M50.9795 39.1401C52.0548 40.7808 53.5974 41.0232 55.5652 41.3425C54.6977 40.6596 53.609 40.1384 53.4358 38.8304C57.0713 40.9828 59.7777 41.5522 63.4632 39.4959C64.4808 39.9422 66.7774 41.4579 67.0871 42.2677C67.7854 40.652 67.695 38.8515 66.4658 36.701C67.9316 34.6563 70.0705 29.7994 68.1816 28.1144C66.008 30.4399 60.3086 25.2753 57.5445 25.1098C53.859 24.2327 48.7309 26.239 49.4003 30.3745C48.502 29.7975 48.025 28.6568 48.2539 27.6316C47.6479 28.476 47.3556 29.5282 47.4383 30.5554C46.0764 30.5784 42.9334 34.2524 42.5102 35.3122C40.6655 39.2228 41.3869 47.8306 47.571 48.827C47.5672 48.827 48.1019 47.8056 48.1519 47.7132C48.427 47.1208 48.9829 46.7476 49.2118 46.1282C50.4563 43.6911 51.2449 41.9099 50.9833 39.1381L50.9795 39.1401Z" fill="#11161A"/>
<path d="M48.0976 54.0878C49.7452 53.4355 50.4046 51.1988 49.5704 49.092C48.7362 46.9851 46.7244 45.806 45.0769 46.4583C43.4293 47.1106 42.77 49.3473 43.6041 51.4542C44.4383 53.561 46.4501 54.7401 48.0976 54.0878Z" fill="#FF938C"/>
<path d="M62.5551 52.6316C62.5859 53.2086 62.332 53.9588 61.8819 54.607C61.3548 55.3668 60.5546 55.99 59.6352 56.0362C58.7253 56.0824 57.879 55.5611 57.2731 54.8744C56.7383 54.2685 56.394 53.5337 56.3613 52.947C58.4676 53.5068 60.5335 53.4048 62.557 52.6296L62.5551 52.6316Z" fill="white"/>
<path d="M61.8817 54.6072C61.3547 55.3669 60.5545 55.9902 59.635 56.0363C58.7252 56.0825 57.8789 55.5612 57.2729 54.8745C57.825 54.5552 58.654 54.3302 59.587 54.2821C60.4852 54.2359 61.3027 54.3629 61.8836 54.6072H61.8817Z" fill="white"/>
<path d="M51.2543 44.724C51.2312 44.724 51.2081 44.7163 51.1908 44.701C51.1485 44.6663 51.1427 44.6029 51.1774 44.5586C51.5409 44.122 52.0391 43.795 52.5854 43.6372C53.1297 43.4795 53.728 43.4872 54.2685 43.6623C54.8013 43.8334 55.261 44.1528 55.7073 44.4605C55.7534 44.4913 55.765 44.5548 55.7323 44.6009C55.7015 44.6471 55.638 44.6586 55.5919 44.6259C55.1591 44.3259 54.7109 44.0162 54.2069 43.8546C53.7049 43.693 53.149 43.6834 52.6431 43.8315C52.1372 43.9796 51.6717 44.2836 51.3351 44.6894C51.3159 44.7125 51.287 44.726 51.2581 44.726L51.2543 44.724Z" fill="#11161A"/>
<path d="M59.0293 51.6584C58.9927 51.6584 58.9581 51.6392 58.9388 51.6046C58.9138 51.5546 58.9331 51.4949 58.9831 51.4699C59.3332 51.291 59.6948 51.1045 59.9525 50.8082C60.1776 50.5505 60.3353 50.135 60.1795 49.7868C60.0891 49.5868 59.9141 49.4387 59.7275 49.2829C59.6756 49.2386 59.6236 49.1963 59.5736 49.1521C58.7311 48.3981 58.3752 47.1612 58.6888 46.0744C58.7042 46.0206 58.76 45.9898 58.8138 46.0052C58.8677 46.0206 58.8984 46.0764 58.8831 46.1302C58.5907 47.1439 58.9235 48.298 59.7102 49.002C59.7583 49.0444 59.8083 49.0867 59.8583 49.129C60.0526 49.2925 60.2545 49.4618 60.3642 49.7041C60.5335 50.0811 60.4315 50.5659 60.1064 50.939C59.8237 51.2641 59.4274 51.468 59.0773 51.6469C59.062 51.6546 59.0466 51.6584 59.0312 51.6584H59.0293Z" fill="#11161A"/>
<path d="M50.6543 47.919C50.6543 47.919 52.3355 51.2448 56.773 47.8613C56.773 47.8613 55.3169 44.9606 52.9798 45.2337C50.6428 45.5069 50.6543 47.919 50.6543 47.919Z" fill="white"/>
<path d="M50.6542 48.0191C50.5984 48.0191 50.5542 47.9748 50.5542 47.919C50.5542 47.894 50.5696 45.4146 52.9682 45.1338C55.3496 44.8549 56.8018 47.694 56.8634 47.8152C56.8884 47.8652 56.8691 47.9248 56.8191 47.9498C56.7691 47.9748 56.7095 47.9556 56.6845 47.9056C56.671 47.8767 55.2322 45.0703 52.9932 45.3338C50.7735 45.5935 50.7562 47.8248 50.7562 47.919C50.7562 47.9748 50.7119 48.0191 50.6561 48.021L50.6542 48.0191Z" fill="#11161A"/>
<path d="M56.0633 47.1438C56.1767 48.1056 55.442 48.9827 54.4244 49.102C53.4069 49.2212 52.4913 48.5364 52.3778 47.5747C52.2643 46.6129 52.9991 45.7358 54.0166 45.6165C55.0342 45.4973 55.9498 46.182 56.0633 47.1438Z" fill="#11161A"/>
<path d="M52.2356 46.8514C52.2106 46.6417 52.3626 46.4513 52.5722 46.4263C52.7819 46.4013 52.9723 46.5513 52.9973 46.7629C53.0223 46.9726 52.8704 47.163 52.6607 47.188C52.451 47.213 52.2606 47.063 52.2356 46.8514Z" fill="white"/>
<path d="M50.5294 48.0286C50.2331 48.0286 49.8888 47.8863 49.7369 47.7593C49.6946 47.7228 49.6888 47.6593 49.7253 47.617C49.7619 47.5747 49.8234 47.5689 49.8677 47.6055C50.0081 47.7228 50.3928 47.8651 50.6352 47.819C50.689 47.8094 50.7429 47.844 50.7525 47.8978C50.7621 47.9517 50.7275 48.0056 50.6736 48.0152C50.6275 48.0248 50.5794 48.0286 50.5294 48.0286Z" fill="#11161A"/>
<path d="M61.3606 44.2336C61.3337 44.2336 61.3068 44.222 61.2875 44.2009C61.2491 44.1605 61.2529 44.097 61.2933 44.0585C61.6896 43.6911 62.0993 43.3103 62.6013 43.0621C63.1111 42.8121 63.7016 42.7178 64.2632 42.7967C64.8249 42.8755 65.3673 43.1275 65.7886 43.5065C65.829 43.543 65.8328 43.6065 65.7963 43.6488C65.7597 43.6892 65.6963 43.693 65.654 43.6565C65.2616 43.3026 64.7576 43.0679 64.2363 42.9948C63.7131 42.9217 63.1649 43.0102 62.6917 43.2429C62.2147 43.4776 61.8165 43.8469 61.4318 44.2066C61.4126 44.2239 61.3876 44.2336 61.3626 44.2336H61.3606Z" fill="#11161A"/>
<path d="M66.8774 46.5996C66.8774 46.5996 65.6906 50.1331 60.8145 47.419C60.8145 47.419 61.8378 44.3394 64.1922 44.274C66.5446 44.2086 66.8793 46.5976 66.8793 46.5976L66.8774 46.5996Z" fill="white"/>
<path d="M60.8141 47.5208C60.8045 47.5208 60.793 47.5208 60.7834 47.515C60.7314 47.4977 60.7026 47.44 60.7199 47.388C60.7622 47.2592 61.7932 44.2411 64.1899 44.1738C66.6039 44.1103 66.9752 46.559 66.979 46.584C66.9867 46.6398 66.9483 46.6898 66.8944 46.6975C66.8386 46.7033 66.7886 46.6667 66.7809 46.6129C66.7674 46.5186 66.4328 44.3104 64.1976 44.3758C61.9432 44.4373 60.9238 47.4207 60.9141 47.4515C60.9007 47.4938 60.8603 47.5208 60.818 47.5208H60.8141Z" fill="#11161A"/>
<path d="M63.0822 46.384C63.1091 47.3824 63.9574 48.1691 64.9769 48.1402C65.9963 48.1114 66.8004 47.2804 66.7735 46.2821C66.7465 45.2838 65.8982 44.4971 64.8788 44.5259C63.8593 44.5548 63.0553 45.3857 63.0822 46.384Z" fill="#11161A"/>
<path d="M63.6015 45.076C63.3842 45.0529 63.1918 45.2106 63.1687 45.4261C63.1457 45.6434 63.3034 45.8358 63.5188 45.8589C63.7362 45.8819 63.9285 45.7242 63.9516 45.5088C63.9747 45.2914 63.817 45.0991 63.6015 45.076Z" fill="white"/>
<path d="M66.9063 46.7014C66.8947 46.7014 66.8832 46.7014 66.8716 46.7014C66.8158 46.6994 66.7735 46.6514 66.7755 46.5956C66.7774 46.5398 66.8255 46.4975 66.8813 46.4994C67.0717 46.5071 67.2583 46.4128 67.4333 46.2147C67.4699 46.1724 67.5333 46.1686 67.5756 46.207C67.618 46.2436 67.6199 46.307 67.5833 46.3494C67.3737 46.584 67.1467 46.7033 66.9043 46.7033L66.9063 46.7014Z" fill="#11161A"/>
<path d="M80.5594 85.5991C87.1455 92.0525 93.901 101.62 101.068 109.662C111.738 123.41 96.1534 134.564 84.1891 122.823C76.0429 114.827 69.3721 108.524 64.7768 98.0751C60.9605 89.4 70.1819 75.4313 80.5594 85.5991Z" fill="#FF938C"/>
<path d="M71.115 67.5466C78.3533 70.0395 96.219 90.0769 96.9807 96.9631C97.0731 97.7941 80.8847 118.564 80.8847 118.564L58.4409 100.306L71.117 67.5447L71.115 67.5466Z" fill="#2E37DB"/>
<path d="M75.0522 89.1614L86.0625 112.132L80.2919 119.792L75.6909 116.372L75.0522 89.1614Z" fill="#11161A"/>
<path d="M77.5029 122.927C76.8508 128.819 64.8941 129.455 57.3789 129.873C48.9077 129.84 38.3956 130.742 30.5149 129.009C29.0569 128.494 28.022 72.3016 35.9046 67.4101C39.2612 65.3269 50.4061 64.5806 50.4061 64.5806C50.4831 66.6234 58.9716 72.9883 58.9139 64.9095C64.0113 64.2632 70.9725 66.8619 73.5443 69.0008C79.8034 74.2021 78.0126 122.198 77.5029 122.927Z" fill="#2E37DB"/>
<path d="M48.9807 102.788C48.9557 102.788 48.9307 102.778 48.9115 102.761L39.7132 94.1106C39.6728 94.0722 39.6709 94.0087 39.7093 93.9683C39.7478 93.9279 39.8113 93.926 39.8517 93.9645L48.9769 102.547L56.9634 94.3761C56.9826 94.3549 57.0096 94.3472 57.0384 94.3453C57.0673 94.3453 57.0923 94.3588 57.1115 94.3799L64.1208 102.536L71.2706 94.7493C71.2898 94.7281 71.3168 94.7166 71.3437 94.7166C71.3725 94.7166 71.3995 94.7281 71.4168 94.7493L77.9029 101.786C77.9414 101.826 77.9376 101.889 77.8972 101.928C77.8568 101.966 77.7933 101.962 77.7548 101.922L71.3437 94.9666L64.192 102.757C64.1728 102.778 64.1458 102.79 64.117 102.79C64.0881 102.79 64.0612 102.776 64.042 102.755L57.0288 94.5954L49.05 102.759C49.0308 102.778 49.0038 102.79 48.9788 102.79L48.9807 102.788Z" fill="#11161A"/>
<path d="M64.352 113.24C64.3251 113.24 64.2982 113.229 64.2808 113.207L56.6791 105.04L48.0309 113.211C47.9924 113.248 47.9328 113.248 47.8943 113.211L39.7193 105.611C39.6789 105.573 39.677 105.51 39.7135 105.469C39.752 105.429 39.8155 105.427 39.8559 105.463L47.9616 112.998L56.6156 104.821C56.6348 104.802 56.6598 104.794 56.6887 104.794C56.7156 104.794 56.7406 104.805 56.7599 104.827L64.3578 112.992L72.1077 105.196C72.1269 105.177 72.1519 105.167 72.1789 105.167C72.2058 105.167 72.2308 105.179 72.25 105.196L79.2728 112.232C79.3113 112.271 79.3113 112.336 79.2728 112.375C79.2344 112.413 79.1709 112.413 79.1305 112.375L72.1789 105.409L64.4251 113.207C64.4059 113.227 64.3809 113.236 64.3539 113.236L64.352 113.24Z" fill="#11161A"/>
<path d="M39.8343 89.8596L41.4886 118.564L60.0756 127.255L32.8442 125.762C34.1869 116.254 35.8834 99.131 39.8343 89.8577V89.8596Z" fill="#11161A"/>
<path d="M112.855 85.6605C112.855 85.6605 109.599 107.439 106.35 118.17C102.205 131.858 83.7255 128.815 87.4763 110.845C89.85 100.239 95.8668 90.0057 98.2404 79.3975C104.074 80.2842 112.855 85.6586 112.855 85.6586V85.6605Z" fill="#FF938C"/>
<path d="M124.277 76.3794C124.31 72.1649 120.767 72.4996 120.767 72.4996C121.396 67.2734 116.014 67.962 116.014 67.962C116.014 67.962 124.264 59.5273 121.463 58.2116C116.368 55.8188 108.129 68.3198 107.06 68.2813C105.646 67.8793 105.66 59.4485 101.807 61.7336C98.9118 63.4513 98.1597 80.7727 98.1597 80.7727L110.363 93.1987C110.363 93.1987 125.368 88.3264 126.618 81.5594C127.422 77.2065 124.277 76.3794 124.277 76.3794Z" fill="#FF938C"/>
<path d="M112.467 78.3993C111.063 78.3993 110.441 77.5337 110.218 77.1028C109.737 76.1718 109.839 74.9466 110.441 74.4253C113.815 71.5054 115.881 68.4623 115.9 68.4316C115.931 68.3854 115.995 68.3739 116.039 68.4046C116.085 68.4354 116.097 68.4989 116.066 68.545C116.045 68.5758 113.965 71.6381 110.57 74.5772C110.034 75.0427 109.953 76.1564 110.393 77.0105C110.918 78.028 112.024 78.4166 113.427 78.0723C116.801 77.2471 120.08 72.796 120.113 72.7499C120.146 72.7056 120.209 72.696 120.253 72.7287C120.297 72.7614 120.307 72.8249 120.274 72.8691C120.242 72.9153 116.92 77.4241 113.473 78.2666C113.098 78.3589 112.761 78.3974 112.461 78.3974L112.467 78.3993Z" fill="#11161A"/>
<path d="M115.341 82.6386C114.231 82.6386 113.405 82.3097 112.886 81.6595C111.944 80.4785 112.33 78.6646 112.419 78.3126C112.432 78.2587 112.486 78.226 112.54 78.2395C112.594 78.253 112.626 78.3068 112.613 78.3607C112.561 78.5665 112.14 80.4015 113.044 81.5326C113.538 82.152 114.35 82.4597 115.448 82.4347C117.353 82.3982 123.758 76.7526 123.823 76.6949C123.866 76.6584 123.929 76.6622 123.966 76.7045C124.002 76.7468 123.998 76.8103 123.956 76.8469C123.691 77.0815 117.429 82.5982 115.452 82.6367C115.416 82.6367 115.377 82.6367 115.341 82.6367V82.6386Z" fill="#11161A"/>
<path d="M117.789 86.0818C116.931 86.0818 115.9 85.472 115.36 84.6045C114.923 83.9005 114.919 83.1734 115.354 82.6117C115.389 82.5675 115.45 82.5598 115.495 82.5944C115.539 82.629 115.547 82.6906 115.512 82.7348C114.993 83.4081 115.3 84.1294 115.529 84.4987C116.087 85.397 117.251 86.0202 118.068 85.8548C120.24 85.4182 123.068 83.3157 123.096 83.2946C123.141 83.2619 123.204 83.2715 123.237 83.3157C123.269 83.36 123.262 83.4235 123.216 83.4562C123.098 83.5446 120.323 85.6086 118.107 86.0529C118.005 86.0741 117.897 86.0837 117.787 86.0837L117.789 86.0818Z" fill="#11161A"/>
<path d="M107.287 76.7065C107.287 76.7065 107.268 76.7065 107.26 76.7027C107.206 76.6873 107.175 76.6315 107.191 76.5777C107.876 74.2059 107.87 71.5938 107.175 69.2259C107.16 69.1721 107.191 69.1163 107.243 69.1009C107.297 69.0855 107.352 69.1163 107.368 69.1682C108.072 71.5726 108.077 74.2252 107.383 76.6334C107.37 76.6777 107.331 76.7065 107.287 76.7065Z" fill="#11161A"/>
<path d="M38.8092 92.7065C38.8034 94.1819 34.0254 123.173 31.3286 135.872C25.5907 156.048 3.0085 153.213 5.14554 130.077C6.82285 111.928 8.29051 104.05 15.1594 92.1276C20.8627 82.2291 33.4464 76.0334 38.8092 92.7046V92.7065Z" fill="#FF938C"/>
<path d="M38.3359 66.6177C43.966 81.6943 35.6968 113.977 35.6968 113.977C24.1998 115.395 12.0778 111.88 7.86523 109.628C7.86523 109.628 12.3047 81.0057 25.6194 71.338C29.5684 68.47 38.0069 66.887 38.3378 66.6177H38.3359Z" fill="#2E37DB"/>
<path d="M61.9031 123.798C49.1771 122.862 36.451 121.927 23.7249 120.99C2.21793 119.824 -0.00375175 150.133 19.2681 153.473C32.3885 154.579 47.8594 154.513 62.207 151.659C62.1051 142.372 62.0051 133.085 61.9031 123.798Z" fill="#FF938C"/>
<path d="M32.2865 108.083C24.6231 108.083 16.8809 105.923 10.414 101.893C10.3679 101.864 10.3525 101.801 10.3813 101.755C10.4102 101.709 10.4736 101.693 10.5198 101.722C18.4621 106.669 28.3375 108.783 37.6089 107.523C37.6647 107.514 37.7147 107.554 37.7224 107.61C37.7301 107.666 37.6916 107.716 37.6358 107.724C35.8681 107.964 34.0792 108.083 32.2865 108.083Z" fill="#11161A"/>
<path d="M68.9219 126.299C68.9219 127.226 69.674 127.978 70.6011 127.978H150.845C151.576 127.978 152.222 127.505 152.445 126.811L165.383 86.3511C165.729 85.2681 164.921 84.1602 163.783 84.1602H109.941C109.212 84.1602 108.566 84.6314 108.343 85.3258L96.084 123.454C95.8609 124.148 95.2146 124.62 94.4856 124.62H70.603C69.6759 124.62 68.9238 125.372 68.9238 126.299H68.9219Z" fill="#0062B0"/>
<path d="M96.9806 127.759C96.9806 127.759 74.258 128.04 72.4075 127.759C72.4075 127.759 71.338 124.889 72.5422 124.62C75.1216 124.043 80.5556 124.183 80.5556 124.183C80.6364 119.801 71.8632 114.604 66.3176 116.114C57.1578 118.609 45.6243 125.433 42.9121 126.853C40.4154 131.494 38.64 143.949 40.6558 150.66C40.6558 150.66 46.8958 158.326 54.3821 159.968C61.4876 161.446 70.4455 158.06 71.9632 151.453C75.0331 152.415 79.6823 148.906 79.1649 145.249C82.5234 145.907 87.5746 140.493 87.2341 137.752C90.0309 139.419 101.893 131.046 96.9787 127.761L96.9806 127.759Z" fill="#FF938C"/>
<path d="M86.9765 137.684H69.1703C69.1146 137.684 69.0703 137.64 69.0703 137.584C69.0703 137.528 69.1146 137.484 69.1703 137.484H86.9765C87.0322 137.484 87.0765 137.528 87.0765 137.584C87.0765 137.64 87.0322 137.684 86.9765 137.684Z" fill="#11161A"/>
<path d="M79.14 145.303H61.3339C61.2781 145.303 61.2339 145.259 61.2339 145.203C61.2339 145.148 61.2781 145.103 61.3339 145.103H79.14C79.1958 145.103 79.24 145.148 79.24 145.203C79.24 145.259 79.1958 145.303 79.14 145.303Z" fill="#11161A"/>
<path d="M71.5726 151.703H53.7665C53.7107 151.703 53.6665 151.659 53.6665 151.603C53.6665 151.547 53.7107 151.503 53.7665 151.503H71.5726C71.6284 151.503 71.6727 151.547 71.6727 151.603C71.6727 151.659 71.6284 151.703 71.5726 151.703Z" fill="#11161A"/>
<path d="M58.2082 72.7768C55.0478 72.7768 51.0276 70.7571 48.1443 66.6254C48.1135 66.5792 48.1231 66.5177 48.1693 66.485C48.2154 66.4542 48.277 66.4638 48.3097 66.51C52.478 72.4864 58.3601 73.4654 61.005 71.8747C62.8843 70.7456 63.1728 68.445 61.7763 65.7252C61.7513 65.6752 61.7706 65.6155 61.8206 65.5905C61.8706 65.5655 61.9302 65.5847 61.9552 65.6348C63.4036 68.4604 63.0882 70.8591 61.1089 72.0497C60.3029 72.5345 59.3065 72.7787 58.2082 72.7787V72.7768Z" fill="#11161A"/>
<path d="M185.313 81.5179L179.115 86.1125L180.428 87.8834L186.626 83.2888L185.313 81.5179Z" fill="#F48C37"/>
<path d="M190.358 77.774L192.295 80.6035C194.571 83.9273 193.721 88.4669 190.397 90.7424L190.052 90.979L179.875 76.112L180.219 75.8754C183.543 73.5999 188.083 74.4501 190.358 77.774Z" fill="#F48C37"/>
<path d="M149.715 73.1507L147.75 74.1504L151.25 81.0266L153.214 80.0269L149.715 73.1507Z" fill="#F48C37"/>
<path d="M178.963 116.048C188.482 106.53 188.482 91.0979 178.963 81.5796C169.445 72.0614 154.013 72.0614 144.495 81.5796C134.976 91.0979 134.976 106.53 144.495 116.048C154.013 125.567 169.445 125.567 178.963 116.048Z" fill="#F48C37"/>
<path d="M175.994 113.079C183.873 105.201 183.873 92.4272 175.994 84.5488C168.116 76.6704 155.342 76.6704 147.464 84.5488C139.585 92.4272 139.585 105.201 147.464 113.079C155.342 120.958 168.116 120.958 175.994 113.079Z" fill="white"/>
<path d="M159.032 116.251C159.224 115.452 158.736 114.65 157.937 114.456C157.139 114.264 156.337 114.752 156.143 115.55C155.948 116.349 156.439 117.151 157.237 117.345C158.035 117.537 158.837 117.049 159.032 116.251Z" fill="#F48C37"/>
<path d="M148.254 108.16C148.368 107.695 148.081 107.227 147.616 107.114C147.15 107 146.683 107.287 146.569 107.752C146.456 108.218 146.742 108.685 147.208 108.799C147.673 108.912 148.141 108.626 148.254 108.16Z" fill="#F48C37"/>
<path d="M171.075 112.29C170.61 112.176 170.142 112.463 170.029 112.929C169.915 113.394 170.202 113.861 170.667 113.975C171.133 114.088 171.6 113.802 171.714 113.336C171.827 112.871 171.541 112.403 171.075 112.29Z" fill="#F48C37"/>
<path d="M175.205 89.4691C175.091 89.9346 175.378 90.402 175.843 90.5155C176.309 90.629 176.776 90.3424 176.89 89.8769C177.003 89.4114 176.716 88.944 176.251 88.8305C175.785 88.717 175.318 89.0036 175.205 89.4691Z" fill="#F48C37"/>
<path d="M152.384 85.3392C152.85 85.4527 153.317 85.1661 153.431 84.7006C153.544 84.2351 153.257 83.7677 152.792 83.6542C152.326 83.5407 151.859 83.8273 151.746 84.2928C151.632 84.7583 151.919 85.2257 152.384 85.3392Z" fill="#F48C37"/>
<path d="M179.165 101.512C178.367 101.32 177.565 101.809 177.37 102.607C177.178 103.405 177.667 104.207 178.465 104.401C179.263 104.594 180.065 104.105 180.26 103.307C180.452 102.509 179.963 101.707 179.165 101.512Z" fill="#F48C37"/>
<path d="M164.427 81.3788C164.235 82.177 164.723 82.9792 165.522 83.1734C166.32 83.3658 167.122 82.8772 167.316 82.0789C167.509 81.2807 167.02 80.4786 166.222 80.2843C165.424 80.0919 164.621 80.5805 164.427 81.3788Z" fill="#F48C37"/>
<path d="M144.294 96.1168C145.092 96.3091 145.894 95.8206 146.088 95.0223C146.281 94.224 145.792 93.4219 144.994 93.2277C144.195 93.0353 143.393 93.5239 143.199 94.3221C143.007 95.1204 143.495 95.9225 144.294 96.1168Z" fill="#F48C37"/>
<path d="M160.53 98.5232C160.374 99.1695 160.77 99.8177 161.415 99.9755C162.061 100.131 162.711 99.735 162.867 99.0906C163.023 98.4443 162.627 97.7942 161.982 97.6384C161.336 97.4826 160.686 97.8788 160.53 98.5232Z" fill="#666666"/>
<g style="mix-blend-mode:overlay">
<path d="M160.69 98.7848C160.846 98.1385 161.496 97.7422 162.142 97.9C162.412 97.9654 162.637 98.1173 162.796 98.3174C162.65 97.9904 162.36 97.7307 161.983 97.6384C161.336 97.4826 160.686 97.8788 160.53 98.5232C160.44 98.9002 160.536 99.2772 160.761 99.5581C160.655 99.3234 160.625 99.0541 160.69 98.7848Z" fill="#999999"/>
</g>
<path d="M174.239 91.4793C174.395 91.2369 174.624 90.9157 174.949 90.5618C174.493 90.7137 174.106 90.7926 173.823 90.8349C173.327 90.9119 173.06 90.8945 172.916 91.0811C172.827 91.1965 172.816 91.3485 172.841 91.5024L161.24 99.0368L161.63 99.6408L173.231 92.1064C173.362 92.191 173.506 92.2429 173.645 92.2083C173.873 92.1525 173.966 91.9025 174.239 91.4793Z" fill="#FFCC00"/>
<path d="M161.74 99.283L161.938 98.4482L153.129 96.3515C153.096 96.1688 153.027 96.0034 152.888 95.9111C152.661 95.761 152.376 95.888 151.805 96.0072C151.48 96.0746 151.028 96.1457 150.474 96.1611C150.963 96.4266 151.334 96.692 151.594 96.8978C152.049 97.2595 152.246 97.5037 152.517 97.471C152.682 97.4518 152.819 97.3345 152.93 97.1864L161.74 99.283Z" fill="#F48C37"/>
<path d="M160.53 98.5232C160.374 99.1695 160.77 99.8177 161.415 99.9755C162.061 100.131 162.711 99.735 162.867 99.0906C163.023 98.4443 162.627 97.7942 161.982 97.6384C161.336 97.4826 160.686 97.8788 160.53 98.5232Z" fill="#F48C37"/>
<path d="M146.86 67.5428L143.865 69.2124C140.347 71.1744 139.083 75.6159 141.045 79.1359L141.249 79.5014L156.985 70.7282L156.781 70.3627C154.819 66.8446 150.378 65.5808 146.858 67.5428H146.86Z" fill="#F48C37"/>
<path d="M172.181 125.695C172.137 125.695 172.096 125.664 172.085 125.62C172.071 125.566 172.102 125.512 172.156 125.497C178.767 123.756 184.393 118.709 186.84 112.326C186.859 112.274 186.917 112.249 186.969 112.269C187.021 112.288 187.046 112.348 187.027 112.398C184.557 118.839 178.877 123.933 172.206 125.691C172.198 125.693 172.189 125.695 172.181 125.695Z" fill="#11161A"/>
<path d="M180.383 125.906C180.348 125.906 180.316 125.889 180.296 125.858C180.267 125.81 180.283 125.749 180.331 125.72C181.65 124.922 182.826 123.921 183.824 122.744C183.861 122.702 183.924 122.696 183.966 122.733C184.009 122.769 184.014 122.833 183.978 122.875C182.966 124.068 181.774 125.083 180.435 125.891C180.419 125.901 180.4 125.906 180.383 125.906Z" fill="#11161A"/>
<path d="M173.572 73.2479C173.554 73.2479 173.535 73.2422 173.52 73.2325C170.044 71.0897 165.656 70.5877 161.786 71.8899C161.734 71.9072 161.677 71.8784 161.659 71.8264C161.642 71.7745 161.671 71.7168 161.723 71.6995C165.649 70.3799 170.098 70.8877 173.626 73.0613C173.674 73.0902 173.687 73.1517 173.658 73.1998C173.639 73.2306 173.606 73.2479 173.572 73.2479Z" fill="#11161A"/>
<path d="M169.909 68.6585C169.894 68.6585 169.878 68.6547 169.865 68.6489C168.805 68.1218 167.584 67.9603 166.424 68.193C166.37 68.2046 166.316 68.168 166.304 68.1141C166.293 68.0603 166.329 68.0064 166.383 67.9949C167.587 67.7525 168.855 67.9218 169.953 68.4681C170.003 68.4931 170.023 68.5527 169.999 68.6027C169.982 68.6373 169.946 68.6585 169.909 68.6585Z" fill="#11161A"/>
<path d="M175.182 141.71C176.331 141.71 177.263 140.779 177.263 139.629C177.263 138.48 176.331 137.548 175.182 137.548C174.032 137.548 173.101 138.48 173.101 139.629C173.101 140.779 174.032 141.71 175.182 141.71Z" fill="#2E37DB"/>
<path d="M197.206 6.82276C193.676 10.3524 180.735 4.99156 180.735 0C180.735 4.99156 167.793 10.3524 164.264 6.82276C167.793 10.3524 162.432 23.2939 157.441 23.2939C162.432 23.2939 167.793 36.2354 164.264 39.7651C167.793 36.2354 180.735 41.5963 180.735 46.5879C180.735 41.5963 193.676 36.2354 197.206 39.7651C193.676 36.2354 199.037 23.2939 204.029 23.2939C199.037 23.2939 193.676 10.3524 197.206 6.82276Z" fill="#2E37DB"/>
<path d="M168.268 19.7298L168.745 14.0823H173.637V14.9883H169.499L169.174 18.8699C169.694 18.4448 170.29 18.2333 170.963 18.2333C171.848 18.2333 172.55 18.5737 173.067 19.2546C173.585 19.9356 173.843 20.8416 173.843 21.9707C173.843 23.1806 173.589 24.1231 173.079 24.8021C172.569 25.4811 171.846 25.8197 170.907 25.8197C170.053 25.8197 169.361 25.535 168.832 24.9637C168.301 24.3943 168.003 23.6095 167.934 22.6131H168.776C168.851 23.3902 169.07 23.9808 169.436 24.3847C169.801 24.7886 170.292 24.9906 170.907 24.9906C171.581 24.9906 172.09 24.729 172.438 24.2039C172.787 23.6788 172.96 22.9382 172.96 21.9803C172.96 21.1282 172.766 20.4376 172.375 19.9106C171.985 19.3835 171.459 19.12 170.796 19.12C170.415 19.12 170.086 19.1796 169.809 19.2989C169.532 19.4181 169.253 19.6336 168.967 19.9471L168.266 19.724L168.268 19.7298Z" fill="white"/>
<path d="M182.376 20.8281C182.376 22.4727 182.122 23.7153 181.616 24.5598C181.11 25.4023 180.364 25.8254 179.377 25.8254C178.39 25.8254 177.657 25.4042 177.146 24.5655C176.634 23.7249 176.372 22.5112 176.363 20.9262V18.8892C176.363 17.2773 176.615 16.0462 177.119 15.1979C177.623 14.3497 178.371 13.9246 179.362 13.9246C180.352 13.9246 181.079 14.3343 181.589 15.1537C182.099 15.9731 182.36 17.1676 182.376 18.7372V20.83V20.8281ZM181.485 18.7565C181.485 17.4312 181.308 16.4328 180.956 15.7596C180.604 15.0864 180.071 14.7498 179.362 14.7498C178.652 14.7498 178.156 15.071 177.798 15.7154C177.44 16.3597 177.253 17.3177 177.236 18.5891V20.9339C177.236 22.2265 177.417 23.2267 177.78 23.9346C178.144 24.6425 178.675 24.9964 179.375 24.9964C180.075 24.9964 180.571 24.6617 180.929 23.9904C181.287 23.321 181.472 22.3362 181.481 21.0378V18.7565H181.485Z" fill="white"/>
<path d="M185.026 16.3096C185.026 15.6248 185.205 15.0554 185.563 14.5996C185.921 14.1437 186.381 13.9148 186.942 13.9148C187.504 13.9148 187.96 14.1418 188.323 14.5957C188.687 15.0497 188.868 15.6344 188.868 16.35V16.9232C188.868 17.6022 188.689 18.1677 188.331 18.6217C187.973 19.0756 187.515 19.3026 186.96 19.3026C186.404 19.3026 185.942 19.0795 185.575 18.6313C185.209 18.1831 185.026 17.5984 185.026 16.877V16.3115V16.3096ZM185.727 16.9251C185.727 17.406 185.838 17.8061 186.061 18.1235C186.284 18.4409 186.583 18.6005 186.96 18.6005C187.337 18.6005 187.625 18.4409 187.842 18.1196C188.06 17.8003 188.169 17.3887 188.169 16.8847V16.3134C188.169 15.8364 188.06 15.4382 187.839 15.1151C187.619 14.7919 187.321 14.6303 186.944 14.6303C186.567 14.6303 186.277 14.7919 186.057 15.1151C185.838 15.4382 185.727 15.8479 185.727 16.3461V16.9251ZM187.215 24.7096L186.683 24.3192L191.432 15.267L191.972 15.6575L187.215 24.7096ZM189.895 22.8246C189.895 22.1398 190.074 21.5724 190.431 21.1184C190.789 20.6645 191.247 20.4375 191.803 20.4375C192.359 20.4375 192.821 20.6606 193.188 21.1088C193.553 21.557 193.736 22.1475 193.736 22.8784V23.444C193.736 24.1384 193.553 24.7096 193.188 25.1578C192.822 25.606 192.367 25.8291 191.82 25.8291C191.274 25.8291 190.81 25.606 190.445 25.1578C190.079 24.7096 189.897 24.123 189.897 23.3959V22.8227L189.895 22.8246ZM190.587 23.4478C190.587 23.9287 190.699 24.3307 190.922 24.65C191.145 24.9693 191.443 25.1309 191.82 25.1309C192.197 25.1309 192.488 24.9712 192.707 24.6539C192.926 24.3365 193.038 23.921 193.038 23.4074V22.8284C193.038 22.3264 192.928 21.9205 192.707 21.6147C192.488 21.3069 192.186 21.155 191.805 21.155C191.424 21.155 191.137 21.3088 190.918 21.6147C190.699 21.9224 190.587 22.3399 190.587 22.8688V23.4478Z" fill="white"/>
<path d="M177.444 33.4308C177.444 34.3176 177.249 35.0043 176.861 35.4871C176.472 35.9718 175.928 36.2142 175.226 36.2142C174.524 36.2142 173.985 35.9718 173.591 35.4871C173.197 35.0023 172.997 34.3214 172.995 33.4443V31.9497C172.995 31.0668 173.191 30.3801 173.585 29.8896C173.978 29.401 174.522 29.1567 175.218 29.1567C175.915 29.1567 176.47 29.403 176.861 29.8935C177.251 30.384 177.446 31.0745 177.446 31.9651V33.4327L177.444 33.4308ZM176.901 31.9401C176.901 31.188 176.757 30.6244 176.467 30.2474C176.178 29.8704 175.761 29.6819 175.216 29.6819C174.672 29.6819 174.281 29.8665 173.985 30.2358C173.689 30.6052 173.539 31.1572 173.533 31.8939V33.4327C173.533 34.1868 173.683 34.7542 173.981 35.1331C174.28 35.5121 174.695 35.7025 175.228 35.7025C175.761 35.7025 176.192 35.514 176.476 35.137C176.761 34.76 176.903 34.1925 176.903 33.4347V31.9439L176.901 31.9401Z" fill="white"/>
<path d="M182.545 32.9213H179.904V36.1201H179.365V29.2512H182.941V29.761H179.904V32.4116H182.545V32.9213Z" fill="white"/>
<path d="M187.766 32.9213H185.125V36.1201H184.586V29.2512H188.162V29.761H185.125V32.4116H187.766V32.9213Z" fill="white"/>
<path d="M21.0147 37.9955C17.9505 37.9955 14.971 37.0415 12.4319 35.218C9.22922 32.9174 7.11526 29.507 6.47858 25.6157C5.84189 21.7244 6.75749 17.8177 9.05803 14.617C11.3586 11.4143 14.769 9.30032 18.6603 8.66364C22.5516 8.02695 26.4583 8.94255 29.659 11.2431C32.8617 13.5436 34.9757 16.954 35.6124 20.8453C36.0528 23.5306 35.7432 26.2755 34.7218 28.7876L37.5205 35.7335C37.534 35.7662 37.5282 35.8027 37.509 35.8296C37.4878 35.8585 37.4532 35.872 37.4205 35.87L29.6148 35.2507C27.7644 36.5702 25.685 37.4281 23.4345 37.7955C22.6266 37.9282 21.8187 37.9936 21.0166 37.9936L21.0147 37.9955ZM21.0782 8.66556C20.2876 8.66556 19.4893 8.73096 18.693 8.85984C14.8555 9.48883 11.4913 11.5739 9.22153 14.7324C6.95176 17.8908 6.04771 21.7436 6.6767 25.583C7.30569 29.4204 9.3908 32.7847 12.5492 35.0545C15.7077 37.3242 19.5605 38.2264 23.3999 37.5993C25.6331 37.2338 27.6932 36.3817 29.5263 35.0679C29.5455 35.0545 29.5686 35.0468 29.5936 35.0487L37.2743 35.6565L34.5217 28.8222C34.5121 28.7972 34.5121 28.7703 34.5217 28.7472C35.5431 26.2601 35.8528 23.5383 35.4162 20.8761C34.7872 17.0387 32.7021 13.6744 29.5436 11.4047C27.0411 9.60616 24.1 8.66556 21.0782 8.66556Z" fill="#141855"/>
<path d="M17.0849 29.4089C18.1832 30.2014 19.3527 30.4342 20.5665 31.0247C37.0953 24.1019 27.1372 11.6413 20.8761 19.4681C15.3421 11.8644 6.13036 22.2611 17.0849 29.4089Z" fill="#2E37DB"/>
<path d="M110.982 139.341C112.753 138.81 114.138 136.932 114.529 134.526L114.742 133.212L114.956 134.526C115.346 136.932 116.731 138.81 118.503 139.341L119.47 139.629L118.503 139.918C116.731 140.448 115.346 142.326 114.956 144.732L114.742 146.046L114.529 144.732C114.138 142.326 112.753 140.448 110.982 139.918L110.014 139.629L110.982 139.341Z" fill="#FFCC00"/>
<path d="M82.302 52.1603C84.0736 51.6295 85.4585 49.7521 85.849 47.3458L86.0625 46.032L86.276 47.3458C86.6665 49.7521 88.0514 51.6295 89.823 52.1603L90.7905 52.4489L89.823 52.7374C88.0514 53.2683 86.6665 55.1457 86.276 57.552L86.0625 58.8658L85.849 57.552C85.4585 55.1457 84.0736 53.2683 82.302 52.7374L81.3345 52.4489L82.302 52.1603Z" fill="#FFCC00"/>
</g>
<defs>
<clipPath id="clip0_274_2232">
<rect width="204.029" height="160.309" fill="white"/>
</clipPath>
</defs>
</svg>
