<svg width="198" height="148" viewBox="0 0 198 148" fill="none" xmlns="http://www.w3.org/2000/svg">
<g clip-path="url(#clip0_274_2098)">
<path d="M131.639 147.283H3.86809C3.69769 147.283 3.55859 147.145 3.55859 146.973C3.55859 146.802 3.69653 146.664 3.86809 146.664H131.64C131.81 146.664 131.949 146.802 131.949 146.973C131.949 147.145 131.812 147.283 131.64 147.283H131.639Z" fill="#02002A"/>
<path d="M178.47 58.2439C178.47 80.0672 163.68 98.4363 143.573 103.866C139.633 104.938 135.487 105.506 131.208 105.506C106.001 105.506 85.4003 85.7656 84.0279 60.8996C83.9769 60.0174 83.9502 59.1365 83.9502 58.2439C83.9502 38.2869 96.3218 21.2184 113.818 14.2925C119.202 12.1573 125.065 10.9866 131.206 10.9866C143.964 10.9866 155.542 16.0405 164.045 24.2554C172.94 32.8516 178.468 44.9033 178.468 58.2439H178.47Z" fill="#8D8DFF"/>
<path d="M178.47 58.2427C178.47 76.9421 167.612 93.1042 151.855 100.766C149.222 102.046 146.451 103.089 143.574 103.866C141.541 103.232 139.516 102.605 137.483 101.97C136.42 101.638 135.355 101.305 134.407 100.724C132.863 99.7878 131.77 98.2937 130.715 96.8262C129.053 94.5334 127.352 92.156 126.702 89.3972C125.845 85.7934 126.72 81.4906 124.226 78.7539C122.376 76.7173 119.296 76.3765 116.559 76.6292C113.816 76.8819 111.06 77.589 108.343 77.1334C105.63 76.6744 102.905 74.5346 103.012 71.7874C103.092 69.7357 104.751 68.0155 106.658 67.2551C108.561 66.4947 110.674 66.5179 112.723 66.6048C119.502 66.8993 126.867 67.7246 132.55 64.0142C138.752 59.971 140.786 51.9833 142.353 44.7491C143.92 37.5148 146.041 29.5237 152.316 25.5988C155.775 23.4358 160.174 23.0498 164.049 24.2576C170.278 30.2771 174.856 37.9924 177.038 46.6559C177.975 50.3629 178.471 54.246 178.471 58.2427H178.47Z" fill="#404AFF"/>
<path d="M122.442 20.1114C121.377 21.0793 120.873 22.5955 121.037 24.0247C121.202 25.4551 121.997 26.78 123.111 27.6911C124.389 28.7355 126.019 29.2409 127.41 30.1288C128.801 31.0167 130.024 32.5699 129.68 34.1846C129.379 35.6011 127.936 36.7452 128.158 38.1756C128.32 39.2188 129.403 39.9433 130.458 39.9711C131.514 40.0001 132.512 39.4738 133.335 38.812C134.158 38.1501 134.854 37.3445 135.664 36.6664C136.473 35.9883 137.444 35.4272 138.5 35.3936C138.99 35.3786 139.497 35.4759 139.961 35.3183C140.688 35.0725 141.081 34.282 141.248 33.5332C141.58 32.0483 141.306 30.4371 140.502 29.1458C139.597 27.6934 138.017 26.5227 137.882 24.8164C137.82 24.0305 138.089 23.262 138.232 22.4877C138.376 21.7133 138.368 20.8312 137.852 20.2366C137.234 19.5237 136.156 19.4947 135.213 19.5226C132.734 19.5933 129.943 20.043 127.488 19.7103C126.746 19.6095 126.146 19.1516 125.388 19.0902C124.328 19.0056 123.224 19.3997 122.439 20.1114H122.442Z" fill="#404AFF"/>
<path d="M113.928 47.1521C110.799 49.1887 106.869 49.6744 103.156 49.2872C100.821 49.0449 98.5106 48.4828 96.1633 48.5187C93.8172 48.5604 91.3215 49.3127 89.9027 51.1847C87.938 53.7731 88.448 57.8626 85.9732 59.9665C85.4064 60.4463 84.741 60.7558 84.0293 60.8996C83.9783 60.0175 83.9517 59.1365 83.9517 58.244C83.9517 38.2869 96.3233 21.2184 113.819 14.2925C113.974 15.8237 113.196 17.4952 113.025 19.0114C112.814 20.8579 112.861 22.7346 113.16 24.5649C113.495 26.6073 114.139 28.5975 115.093 30.4336C116.326 32.8111 118.063 35.0076 118.533 37.6378C119.183 41.3146 117.052 45.1154 113.927 47.1521H113.928Z" fill="#404AFF"/>
<path d="M61.3516 87.5842C61.3516 87.5842 43.7105 131.352 39.1284 132.369C34.5463 133.386 8.45729 130.148 5.46552 127.936C2.4726 125.724 -0.184172 105.149 0.0105651 97.6664C0.0337481 96.8261 0.102138 96.061 0.20878 95.3736V95.3655C1.04916 89.9384 4.17191 89.0134 4.17191 89.0134L3.65261 76.9826C11.3262 60.263 51.267 62.9302 51.267 62.9302L61.3528 87.5842H61.3516Z" fill="#404AFF"/>
<path d="M15.5811 124.171C11.5763 124.171 7.63402 123.187 4.24466 121.312C4.09513 121.23 4.04065 121.041 4.12411 120.893C4.20641 120.743 4.39535 120.69 4.54373 120.772C8.61118 123.022 13.5016 123.954 18.3156 123.395C20.4368 123.149 22.1686 121.493 22.5279 119.367C23.3625 114.42 22.9707 109.118 22.6265 104.441L21.8603 94.042C21.8475 93.8716 21.9762 93.7233 22.1454 93.7105C22.3158 93.6966 22.4642 93.8253 22.4769 93.9957L23.2431 104.394C23.5909 109.106 23.985 114.448 23.1376 119.469C22.7331 121.865 20.7799 123.732 18.3874 124.01C17.4532 124.117 16.5154 124.171 15.5823 124.171H15.5811Z" fill="#02002A"/>
<path d="M3.65123 77.291C3.53763 77.291 3.42752 77.2273 3.37419 77.1183C3.29885 76.9653 3.36144 76.7798 3.51445 76.7045C3.59559 76.6639 11.6807 72.7472 21.3943 74.4697L50.4519 66.3904C50.6153 66.3452 50.7869 66.4402 50.8321 66.606C50.8773 66.7706 50.7811 66.941 50.6165 66.9862L21.4905 75.0852C21.4453 75.0979 21.399 75.1002 21.3526 75.0921C11.8151 73.3743 3.86451 77.2215 3.78569 77.2609C3.74165 77.2829 3.69528 77.2933 3.64891 77.2933L3.65123 77.291Z" fill="#02002A"/>
<path d="M0.208511 95.3656C-0.281809 90.6641 4.06036 89.0158 4.17164 89.0134C2.94526 89.4933 20.4971 85.8768 22.0562 93.9224C22.7737 97.6271 4.1531 101.273 0.208511 95.3644V95.3656Z" fill="#02002A"/>
<path d="M11.7827 51.3527C11.7827 51.3527 17.8323 46.0832 27.6549 45.8885C37.4776 45.6938 40.2097 45.7587 41.6401 49.4007C43.0716 53.0439 46.1283 64.0373 46.1283 64.0373L23.3487 69.6963L11.7827 51.3527Z" fill="#404AFF"/>
<path d="M23.3486 70.0058C23.2095 70.0058 23.0832 69.9119 23.0484 69.7716C23.0067 69.6059 23.1087 69.4378 23.2733 69.3972L46.0529 63.7382C46.2187 63.6954 46.3867 63.7985 46.4273 63.9643C46.469 64.13 46.367 64.2981 46.2024 64.3387L23.4228 69.9977C23.3973 70.0034 23.373 70.0069 23.3475 70.0069L23.3486 70.0058Z" fill="#02002A"/>
<path d="M23.3486 69.6963C23.3486 69.6963 24.7929 48.6207 11.7826 51.3528C10.0682 52.1526 7.70123 58.9765 8.34224 66.0033C8.49525 67.6783 9.87927 68.9742 11.5589 69.0646L23.3486 69.6963Z" fill="#02002A"/>
<path d="M81.9864 146.725L80.6672 123.412L36.7181 124.259L35.7954 146.725H81.9864Z" fill="#02002A"/>
<path d="M118.108 74.9264C117.779 75.5152 117.306 76.111 116.644 76.7033C114.538 78.5835 110.789 83.0624 109.964 84.0605L97.3442 75.0411L97.5355 75.1709L113.254 54.0257C113.953 53.212 115.034 52.9443 115.99 53.2352C116.391 53.3569 116.762 53.5795 117.08 53.8959C117.898 54.7293 118.062 56.0056 117.478 57.014L113.167 64.4778C113.167 64.4778 115.418 64.9368 115.586 67.1067C115.586 67.1067 115.601 67.1067 115.636 67.1102C115.949 67.1288 117.569 67.3745 117.772 69.8852C118.276 70.0463 119.564 72.3577 118.108 74.9264Z" fill="white"/>
<path d="M109.964 84.3698C109.901 84.3698 109.839 84.3513 109.784 84.3119L97.1646 75.2925C97.0266 75.194 96.9942 75.0027 97.0904 74.8637C97.175 74.7431 97.3292 74.7014 97.4602 74.7535L113.006 53.8413C113.771 52.9499 114.971 52.6022 116.08 52.9383C116.537 53.0786 116.947 53.3267 117.298 53.6767C118.214 54.6098 118.396 56.0449 117.744 57.1692L113.627 64.2968C114.301 64.5461 115.617 65.2288 115.864 66.8296C116.406 66.9304 117.816 67.4138 118.064 69.6962C118.36 69.9129 118.617 70.3673 118.776 70.7719C119.027 71.4129 119.491 73.1145 118.377 75.0793C118.015 75.7272 117.502 76.3508 116.85 76.9351C114.664 78.8871 110.652 83.7149 110.203 84.2586C110.141 84.3327 110.053 84.371 109.964 84.371V84.3698ZM97.9679 75.1071L109.909 83.6419C110.837 82.528 114.402 78.2913 116.438 76.4737C117.038 75.9359 117.509 75.3656 117.838 74.7767C117.838 74.7767 117.838 74.7756 117.838 74.7744C118.725 73.2107 118.487 71.8568 118.268 71.1892C118.051 70.5319 117.752 70.2155 117.673 70.1795C117.554 70.1413 117.473 70.037 117.464 69.9118C117.28 67.6375 115.893 67.4381 115.617 67.4208C115.463 67.4115 115.29 67.2863 115.277 67.1321C115.13 65.2265 113.186 64.7988 113.104 64.7814C113.007 64.7617 112.926 64.6956 112.885 64.6052C112.844 64.5148 112.849 64.4104 112.899 64.3247L117.21 56.8609C117.723 55.9753 117.578 54.8463 116.86 54.1137C116.584 53.8378 116.26 53.6408 115.901 53.5318C115.028 53.2664 114.081 53.5399 113.489 54.2285L97.969 75.1082L97.9679 75.1071Z" fill="#02002A"/>
<path d="M111.429 74.5056C111.429 74.5056 109.972 79.2407 114.466 77.3084C114.466 77.3084 115.841 76.8262 118.11 74.9275C119.564 72.36 118.278 70.044 117.773 69.8887L111.43 74.5056H111.429Z" fill="white"/>
<path d="M112.657 78.079C112.174 78.079 111.783 77.9469 111.486 77.6803C110.434 76.7356 111.104 74.5089 111.133 74.4138C111.153 74.3501 111.193 74.2944 111.247 74.255L117.59 69.6381C117.669 69.5813 117.77 69.5639 117.862 69.5929C118.236 69.7077 118.574 70.2652 118.766 70.7497C119.023 71.3931 119.498 73.1017 118.377 75.0792C118.358 75.1116 118.335 75.1406 118.306 75.1638C116.02 77.0764 114.625 77.5794 114.567 77.5992C113.825 77.9179 113.186 78.079 112.655 78.079H112.657ZM111.697 74.6932C111.531 75.2982 111.305 76.6869 111.9 77.2213C112.32 77.5991 113.167 77.5308 114.344 77.0242C114.377 77.0126 115.707 76.5258 117.868 74.7268C118.722 73.1816 118.487 71.8463 118.268 71.1844C118.108 70.7022 117.904 70.4043 117.778 70.2687L111.697 74.6943V74.6932Z" fill="#02002A"/>
<path d="M108.739 71.7457C108.76 71.7434 108.781 71.7457 108.798 71.7434C110.847 71.6275 115.582 67.108 115.582 67.108C115.417 64.9345 113.167 64.479 113.167 64.479L107.668 68.6091C106.32 69.6187 107.052 71.8025 108.739 71.7469V71.7457Z" fill="white"/>
<path d="M108.679 72.0562C107.813 72.0562 107.072 71.53 106.78 70.6989C106.474 69.8272 106.75 68.9103 107.482 68.362L112.981 64.232C113.052 64.1786 113.141 64.1589 113.228 64.1763C113.253 64.181 115.709 64.7072 115.891 67.0858C115.898 67.1785 115.863 67.2689 115.796 67.3327C115.599 67.5205 110.953 71.9322 108.815 72.0539C108.811 72.0539 108.772 72.0562 108.768 72.0562L108.739 71.7479L108.749 72.0574C108.726 72.0574 108.702 72.0585 108.679 72.0585V72.0562ZM113.235 64.8139L107.853 68.8558C107.231 69.3218 107.201 70.03 107.363 70.4937C107.529 70.9666 107.971 71.4616 108.728 71.4372C108.741 71.4372 108.758 71.4372 108.763 71.4372C110.326 71.348 113.877 68.2913 115.26 66.9884C115.063 65.4549 113.673 64.9402 113.235 64.815V64.8139Z" fill="#02002A"/>
<path d="M109.772 74.2065C111.975 75.9209 117.773 69.8899 117.773 69.8899C117.57 67.3745 115.949 67.1323 115.637 67.1125C115.637 67.1125 107.588 72.5084 109.772 74.2077V74.2065Z" fill="white"/>
<path d="M110.737 74.8195C110.304 74.8195 109.913 74.7083 109.581 74.4498C109.243 74.1867 109.072 73.825 109.087 73.4019C109.167 71.1381 114.82 67.2862 115.464 66.8539C115.521 66.8156 115.588 66.7982 115.656 66.8017C115.88 66.8168 117.852 67.0266 118.08 69.863C118.087 69.9511 118.056 70.0381 117.994 70.1018C117.467 70.6501 113.373 74.8184 110.737 74.8184V74.8195ZM115.715 67.43C113.975 68.6088 109.762 71.8023 109.705 73.4239C109.697 73.6488 109.778 73.8192 109.961 73.9618C111.555 75.2021 115.814 71.4534 117.452 69.7761C117.245 67.831 116.123 67.4902 115.717 67.43H115.715Z" fill="#02002A"/>
<path d="M97.0591 75.7887L99.5223 64.6053C99.9674 62.8283 101.739 61.7201 103.532 62.098L109.448 63.3429C110.054 63.4705 110.407 64.1057 110.195 64.6876C109.678 66.104 108.259 66.9827 106.761 66.8158L103.786 66.4831L104.181 68.1708C104.7 70.3883 104.408 72.717 103.358 74.7374L103.062 75.3054" fill="white"/>
<path d="M97.059 76.0983C97.037 76.0983 97.0149 76.096 96.9918 76.0913C96.8248 76.0543 96.7194 75.8897 96.7565 75.7227L99.2196 64.5393C99.71 62.5826 101.631 61.3817 103.594 61.7956L109.511 63.0405C109.887 63.1193 110.211 63.3581 110.397 63.6942C110.584 64.0316 110.615 64.4315 110.483 64.7931C109.915 66.3475 108.37 67.3038 106.725 67.1219L104.184 66.8379L104.48 68.099C105.015 70.386 104.713 72.7947 103.63 74.8789L103.335 75.4469C103.256 75.5987 103.069 75.6578 102.917 75.579C102.765 75.5002 102.706 75.3136 102.785 75.1617L103.081 74.5937C104.096 72.6406 104.379 70.3837 103.877 68.2404L103.482 66.5527C103.459 66.4553 103.485 66.3522 103.551 66.2768C103.617 66.2015 103.717 66.1644 103.817 66.1748L106.792 66.5075C108.154 66.6594 109.432 65.8677 109.901 64.581C109.972 64.3874 109.955 64.1741 109.855 63.9945C109.755 63.8148 109.582 63.6873 109.382 63.6456L103.464 62.4006C101.828 62.0575 100.226 63.0579 99.8189 64.6807L97.358 75.8549C97.3268 75.9998 97.1981 76.0971 97.0567 76.0971L97.059 76.0983Z" fill="#02002A"/>
<path d="M111.871 84.8324L98.3978 109.143C96.9152 111.979 94.2364 113.997 91.1021 114.639C90.3869 114.784 89.6729 114.857 88.9623 114.857C85.8396 114.857 82.8327 113.484 80.7845 111.035L65.9949 92.1432L64.4741 75.0144L76.1421 75.798C79.2382 76.0125 81.9738 77.888 83.2883 80.6977L89.4909 88.0908L96.979 73.8425L111.872 84.8336L111.871 84.8324Z" fill="#F48C37"/>
<path d="M98.3982 109.453C98.3472 109.453 98.2962 109.44 98.2487 109.413C98.0991 109.331 98.0458 109.142 98.1281 108.993L111.469 84.9193L97.0826 74.3027L87.4361 92.4863C87.3561 92.637 87.1684 92.6949 87.0177 92.6149C86.867 92.535 86.809 92.3483 86.889 92.1965L96.7035 73.6965C96.7452 73.6165 96.8206 73.5597 96.9087 73.54C96.9956 73.5203 97.0884 73.54 97.1602 73.5921L112.053 84.5832C112.178 84.6759 112.215 84.8463 112.14 84.9819L98.6671 109.293C98.6103 109.395 98.5048 109.452 98.3959 109.452L98.3982 109.453Z" fill="#02002A"/>
<path d="M81.9992 130.009L35.5243 130.811L34.8149 84.6676C34.7407 79.2695 39.0493 74.8288 44.4463 74.7418C48.9125 74.6688 53.1712 74.6201 55.4002 74.6468C62.711 74.7349 70.752 75.5451 70.752 75.5451C75.8152 76.673 79.4004 81.0488 79.4004 86.0934L81.9992 130.009Z" fill="#F48C37"/>
<path d="M49.3472 110.402C49.3472 110.402 43.453 120.05 31.6157 127.058L33.9885 130.812C33.9885 130.812 53.1759 118.589 54.2354 112.405C55.296 106.221 49.3472 110.403 49.3472 110.403V110.402Z" fill="#02002A"/>
<path d="M32.5778 76.0148C32.5963 76.5422 33.0252 76.9699 33.5526 76.9919C35.857 77.0882 42.8049 80.4624 46.9987 91.3781C51.6168 103.4 46.9987 112.389 46.9987 112.389L54.794 114.466C54.794 114.466 57.4067 102.5 53.8285 90.663C51.1589 81.8302 43.7068 75.1118 36.8608 72.5501C36.8608 72.5501 32.4537 72.4504 32.5778 76.0148Z" fill="#404AFF"/>
<path d="M46.999 112.698C46.9515 112.698 46.9028 112.687 46.8576 112.663C46.7057 112.586 46.6454 112.399 46.7231 112.247C46.7683 112.158 51.2206 103.23 46.7092 91.4881C42.7252 81.1184 35.9963 77.4033 33.5389 77.3001C32.8504 77.2711 32.2917 76.7113 32.2673 76.0239C32.2326 75.012 32.534 74.1751 33.1634 73.5375C34.4836 72.1999 36.7683 72.237 36.8669 72.2393C37.0372 72.2428 37.1729 72.3842 37.1682 72.5546C37.1648 72.725 37.0315 72.8629 36.8529 72.8571C36.8332 72.8571 34.7329 72.827 33.6015 73.9734C33.0973 74.4846 32.8562 75.1673 32.8852 76.0019C32.8979 76.367 33.1958 76.6661 33.5644 76.6811C36.256 76.7936 43.1518 80.5063 47.2853 91.2644C51.8999 103.276 47.3189 112.436 47.2714 112.528C47.2169 112.634 47.1079 112.696 46.9967 112.696L46.999 112.698Z" fill="#02002A"/>
<path d="M82.0006 130.319C81.8383 130.319 81.7027 130.192 81.6922 130.028L79.3937 91.785C79.3832 91.6146 79.513 91.4686 79.6834 91.4581C79.8515 91.4454 79.9999 91.5775 80.0103 91.7479L82.3089 129.991C82.3193 130.161 82.1895 130.307 82.0191 130.317C82.0133 130.317 82.0064 130.317 82.0006 130.317V130.319Z" fill="#02002A"/>
<path d="M66.73 116.637C66.7416 116.938 66.657 117.229 66.4935 117.471C66.2571 117.83 65.8745 118.147 65.4086 118.196L64.1891 118.131C64.1045 118.112 64.0129 118.101 63.9214 118.101L58.8918 117.853L64.1891 118.132C64.8383 118.266 65.3321 118.866 65.3506 119.55C65.3622 119.856 65.2706 120.142 65.106 120.387C65.106 120.387 65.106 120.395 65.1025 120.402C64.7896 120.873 64.2309 121.124 63.6698 121.097L58.7481 120.88L61.3886 121.009C62.1722 121.018 62.7993 121.686 62.8179 122.465C62.8329 122.771 62.7414 123.054 62.5814 123.299C62.3519 123.662 61.9624 123.976 61.4999 124.024L47.7744 123.627L48.3992 109.318L48.4027 109.322L57.3687 107.151C58.2473 106.746 59.279 107.192 59.5699 108.106C59.7194 108.576 59.6429 109.076 59.3937 109.458C59.2442 109.676 59.0576 109.853 58.8246 109.986L55.2057 111.58L64.2204 112.089C64.9924 112.1 65.623 112.723 65.6415 113.499C65.6566 113.805 65.565 114.092 65.4086 114.328C65.1721 114.694 64.7861 115.012 64.319 115.058L59.0413 114.802L65.3054 115.223C66.0855 115.235 66.7114 115.857 66.7311 116.637H66.73Z" fill="white"/>
<path d="M61.4977 124.334C61.4977 124.334 61.4919 124.334 61.4884 124.334L47.7629 123.936C47.6806 123.934 47.6018 123.898 47.545 123.838C47.4882 123.778 47.4592 123.696 47.4627 123.614L48.0875 109.306C48.0933 109.183 48.1698 109.075 48.2845 109.031C48.3147 109.019 48.346 109.012 48.3773 109.01L57.2656 106.859C57.7617 106.64 58.3274 106.638 58.8223 106.856C59.3196 107.075 59.6987 107.497 59.8633 108.013C60.036 108.557 59.956 109.161 59.6523 109.629C59.4715 109.893 59.2466 110.102 58.9777 110.256L56.5064 111.346L64.2367 111.782C65.1687 111.795 65.9268 112.547 65.95 113.492C65.9673 113.841 65.8688 114.193 65.666 114.5C65.564 114.657 65.4469 114.796 65.3182 114.915H65.3252C66.2548 114.929 67.0152 115.681 67.0396 116.628C67.0535 116.995 66.9526 117.347 66.7486 117.645C66.4252 118.135 65.9476 118.45 65.4411 118.503C65.4249 118.505 65.4086 118.506 65.3912 118.505L65.295 118.499C65.5153 118.792 65.6486 119.154 65.659 119.54C65.6718 119.882 65.5779 120.22 65.3866 120.52C65.3843 120.527 65.3808 120.533 65.3785 120.539C64.9948 121.118 64.3411 121.441 63.6537 121.405L62.7264 121.364C62.9663 121.664 63.1147 122.045 63.1251 122.457C63.1425 122.803 63.0428 123.155 62.8376 123.468C62.5316 123.953 62.0425 124.277 61.5301 124.332C61.5197 124.333 61.5081 124.334 61.4977 124.334ZM48.0944 123.328L61.4838 123.715C61.8025 123.673 62.1132 123.458 62.3172 123.133C62.4551 122.923 62.5177 122.704 62.5073 122.481C62.4911 121.842 61.988 121.324 61.3841 121.318L58.7308 121.188C58.5604 121.18 58.4294 121.035 58.4375 120.865C58.4456 120.694 58.5894 120.564 58.7598 120.57L63.6815 120.788C64.1394 120.808 64.5729 120.608 64.8221 120.262C64.8291 120.246 64.8383 120.229 64.8488 120.214C64.9832 120.014 65.0493 119.789 65.0412 119.562C65.0261 119.03 64.6436 118.553 64.1475 118.44L58.8757 118.163C58.7053 118.153 58.5743 118.009 58.5836 117.838C58.5917 117.668 58.74 117.536 58.9081 117.545L63.9365 117.793C64.0258 117.8 64.1278 117.803 64.2298 117.825L65.397 117.888C65.8422 117.829 66.1296 117.46 66.234 117.301C66.3661 117.109 66.4287 116.885 66.4206 116.65C66.4206 116.649 66.4206 116.648 66.4206 116.646C66.4055 116.032 65.9129 115.543 65.2997 115.534L59.0194 115.113C58.8502 115.101 58.7215 114.956 58.7319 114.786C58.7412 114.617 58.8849 114.486 59.0553 114.495L64.3086 114.75C64.6216 114.711 64.9345 114.493 65.1478 114.162C65.28 113.962 65.3426 113.741 65.3321 113.517C65.3171 112.897 64.8256 112.41 64.2147 112.401L55.1861 111.892C55.0435 111.884 54.9253 111.779 54.8998 111.638C54.8743 111.496 54.9485 111.357 55.0795 111.299L58.6983 109.706C58.8594 109.612 59.0125 109.469 59.1365 109.287C59.337 108.979 59.3892 108.571 59.2733 108.202C59.1608 107.85 58.9128 107.574 58.572 107.424C58.23 107.274 57.8382 107.277 57.4951 107.435C57.4766 107.443 57.458 107.45 57.4383 107.454L48.6949 109.571L48.0933 123.329L48.0944 123.328Z" fill="#02002A"/>
<path d="M81.4103 119.35C79.6438 98.7863 63.4563 72.549 58.6006 72.2418L62.2426 69.6963C70.1156 72.5095 79.0746 91.588 81.9864 101.983C84.1575 109.722 81.4103 119.35 81.4103 119.35Z" fill="#404AFF"/>
<path d="M58.9904 81.7062C55.4086 81.7062 50.2492 78.1661 49.5908 74.538L51.1452 62.4956L63.03 64.9727L64.0303 74.7154C64.0303 74.7154 65.2428 80.8728 58.9904 81.7073V81.7062Z" fill="white"/>
<path d="M58.9902 82.0155C55.3412 82.0155 49.9812 78.4164 49.2869 74.5935C49.2811 74.5622 49.28 74.5297 49.2846 74.4984L50.839 62.456C50.8506 62.3703 50.8958 62.2937 50.9665 62.2439C51.0372 62.1941 51.1242 62.1755 51.2088 62.1929L63.0935 64.67C63.2257 64.6978 63.3242 64.8068 63.3381 64.9412L64.3385 74.6839C64.357 74.772 64.8798 77.5389 63.3358 79.6937C62.4178 80.9746 60.97 81.7559 59.033 82.0144C59.0191 82.0155 59.0064 82.0167 58.9925 82.0167L58.9902 82.0155ZM49.9036 74.5286C50.5736 78.0014 55.6333 81.3826 58.9693 81.3965C60.7208 81.1589 62.019 80.4646 62.8316 79.3321C64.2214 77.3928 63.7311 74.7998 63.7264 74.7743L62.7446 65.2287L51.4082 62.8664L49.9036 74.5286Z" fill="#02002A"/>
<path d="M51.1114 63.9109C47.9434 57.9204 48.8348 50.8345 48.8348 50.8345L62.9846 44.8406C63.2871 45.1025 71.5669 48.8605 72.2775 59.2952C72.8594 67.8474 66.2545 72.0945 56.5826 69.1665" fill="white"/>
<path d="M62.3254 70.402C60.5287 70.402 58.5686 70.0901 56.496 69.463C56.3326 69.4132 56.2398 69.2405 56.2897 69.077C56.3395 68.9136 56.5111 68.8209 56.6757 68.8707C61.7052 70.3927 66.0207 70.0021 68.8259 67.7684C71.1349 65.93 72.2233 63.0066 71.9718 59.317C71.5603 53.2778 68.4039 48.2854 63.0823 45.2588C63.0336 45.231 62.993 45.2078 62.9594 45.1881L49.125 51.0476C49.0183 52.1685 48.5744 58.45 51.3865 63.7658C51.4664 63.9165 51.4085 64.1043 51.2578 64.1831C51.1071 64.2631 50.9205 64.2051 50.8405 64.0545C47.6633 58.0477 48.5222 50.8668 48.5315 50.7949C48.5454 50.686 48.6161 50.5921 48.7181 50.5492L62.869 44.5552C62.978 44.5089 63.1031 44.5297 63.1924 44.6062C63.2144 44.6213 63.2863 44.6607 63.3906 44.7198C68.8977 47.8519 72.1654 53.0205 72.5908 59.2741C72.8562 63.1758 71.689 66.28 69.213 68.2517C67.421 69.6786 65.0644 70.4008 62.3277 70.4008L62.3254 70.402Z" fill="#02002A"/>
<path d="M57.7591 41.8812C57.7591 41.8812 53.6384 39.622 51.3375 40.9736C49.0365 42.3252 50.9051 46.4471 50.9051 46.4471C50.9051 46.4471 47.3766 45.4027 45.0537 49.2905C42.7308 53.1794 48.5532 59.6915 48.5532 59.6915L52.6589 57.6978C52.6589 57.6978 52.7273 58.4431 53.9027 57.5657C55.078 56.6882 54.7651 52.8456 56.1085 52.12C56.1085 52.12 67.1309 56.5653 72.8768 48.4721C78.6227 40.379 70.7602 35.9081 62.9058 36.7242C55.0514 37.5402 57.758 41.8824 57.758 41.8824L57.7591 41.8812Z" fill="#02002A"/>
<path d="M62.5116 56.4413C61.7176 56.2709 60.8726 56.6418 60.3672 57.3814L62.5116 56.4413Z" fill="white"/>
<path d="M60.3672 57.6908C60.307 57.6908 60.2467 57.6734 60.1934 57.6363C60.0519 57.5401 60.016 57.3477 60.1134 57.2063C60.6918 56.3613 61.6597 55.9428 62.5777 56.1387C62.7446 56.1746 62.8513 56.3392 62.8154 56.5062C62.7794 56.6731 62.6148 56.7797 62.4479 56.7438C61.7756 56.5989 61.0592 56.9188 60.6234 57.5563C60.5631 57.6433 60.4669 57.6908 60.3684 57.6908H60.3672Z" fill="#02002A"/>
<path d="M67.6977 57.2355C67.8554 57.8406 68.3167 58.2474 68.727 58.1408C69.1339 58.0342 69.3356 57.4523 69.1745 56.8437C69.0122 56.2352 68.5509 55.8283 68.144 55.9349C67.7337 56.0451 67.5354 56.627 67.6977 57.2344V57.2355Z" fill="#02002A"/>
<path d="M61.4999 58.9846C61.6622 59.5932 62.1224 59.9965 62.5327 59.8887C62.9396 59.7821 63.1378 59.2014 62.9801 58.5917C62.8179 57.9831 62.3565 57.5762 61.9473 57.6875C61.5405 57.7942 61.3423 58.3749 61.4999 58.9846Z" fill="#02002A"/>
<path d="M68.7064 54.6921C67.9124 54.5217 67.0674 54.8926 66.562 55.6321L68.7064 54.6921Z" fill="white"/>
<path d="M66.5621 55.9406C66.5018 55.9406 66.4415 55.9232 66.3882 55.8861C66.2468 55.7899 66.2108 55.5975 66.3082 55.456C66.8866 54.611 67.8533 54.1926 68.7726 54.3885C68.9395 54.4244 69.0461 54.589 69.0102 54.7559C68.9742 54.9228 68.8108 55.0283 68.6427 54.9935C67.9716 54.851 67.2541 55.1686 66.8182 55.8061C66.758 55.893 66.6617 55.9406 66.5632 55.9406H66.5621Z" fill="#02002A"/>
<path d="M52.8434 57.7917C52.8434 57.7917 49.0994 54.5403 47.1891 55.3702C45.2788 56.2002 46.5029 63.0531 48.8745 63.5376C51.2461 64.0209 53.0544 62.9684 53.0544 62.9684" fill="white"/>
<path d="M50.1446 63.9757C49.7273 63.9757 49.281 63.9363 48.8127 63.8412C47.2768 63.5283 46.2301 61.0477 45.9902 58.7584C45.7897 56.84 46.1907 55.4675 47.0659 55.0873C49.1315 54.1902 52.8871 57.4207 53.0459 57.5587C53.1746 57.6711 53.1885 57.8658 53.0761 57.9945C52.9648 58.1232 52.7689 58.1371 52.6402 58.0258C51.6399 57.1576 48.7316 55.0375 47.3116 55.6553C46.7158 55.9138 46.4376 57.1077 46.6045 58.6946C46.819 60.737 47.7486 62.9939 48.9356 63.2362C51.1554 63.6894 52.8813 62.7134 52.8987 62.703C53.0459 62.6172 53.236 62.6682 53.3207 62.8154C53.4064 62.9626 53.3566 63.1515 53.2094 63.2373C53.1468 63.2744 51.9146 63.9769 50.1434 63.9769L50.1446 63.9757Z" fill="#02002A"/>
<path d="M48.9313 60.5712C48.8224 60.5712 48.7157 60.5133 48.6601 60.4101C48.4167 59.965 48.2625 59.4619 48.2161 58.9565C48.1755 58.5184 48.2636 58.1996 48.485 57.984C48.6717 57.802 48.9545 57.7139 49.2408 57.7464C49.4483 57.7707 49.6558 57.853 49.8749 57.9991C50.1496 58.181 50.3895 58.4256 50.568 58.7038C50.6608 58.8476 50.619 59.0388 50.4753 59.1304C50.3316 59.2231 50.1403 59.1814 50.0476 59.0377C49.9154 58.8313 49.7369 58.6505 49.5318 58.5149C49.395 58.4245 49.2756 58.3735 49.1678 58.3607C49.0681 58.3468 48.9696 58.3746 48.9162 58.4268C48.8386 58.5021 48.8096 58.6656 48.8316 58.8997C48.871 59.3217 48.9985 59.7424 49.2026 60.1145C49.2849 60.264 49.2292 60.4518 49.0797 60.5341C49.0322 60.5596 48.9823 60.5724 48.9313 60.5724V60.5712Z" fill="#02002A"/>
<path d="M65.8641 58.8164C66.1434 59.6811 66.4228 60.547 66.701 61.4117C66.869 61.9334 67.0394 62.4758 66.927 62.9975C66.8157 63.5191 66.337 64.0117 65.6948 64.0291" fill="white"/>
<path d="M65.6958 64.3374C65.5289 64.3374 65.391 64.2041 65.3863 64.036C65.3817 63.8657 65.5162 63.7231 65.6877 63.7196C66.1896 63.7068 66.5455 63.3046 66.6255 62.9325C66.7217 62.4828 66.5548 61.9646 66.4076 61.5068L65.5706 58.9114C65.5185 58.7492 65.6077 58.5753 65.77 58.522C65.9323 58.4698 66.1062 58.5591 66.1595 58.7213L66.9964 61.3167C67.168 61.8476 67.3615 62.4492 67.2306 63.0612C67.0984 63.679 66.5316 64.3154 65.7051 64.3374C65.7028 64.3374 65.6993 64.3374 65.697 64.3374H65.6958Z" fill="#02002A"/>
<path d="M62.6926 66.366C62.1373 66.366 61.5798 66.1863 61.1323 65.8583C60.6258 65.4873 60.256 64.9228 60.1192 64.3096C60.0822 64.1427 60.1876 63.9781 60.3534 63.941C60.5191 63.9039 60.6849 64.0094 60.722 64.1752C60.8263 64.6446 61.1092 65.0758 61.4963 65.3598C61.8846 65.6438 62.3819 65.7818 62.8595 65.74C63.0287 65.7261 63.1794 65.8513 63.1945 66.0205C63.2095 66.1898 63.0832 66.3405 62.914 66.3555C62.8398 66.3625 62.7656 66.366 62.6914 66.366H62.6926Z" fill="#02002A"/>
<path d="M49.609 107.75V124.508C42.8871 124.63 33.4783 124.638 25.4639 124.626C20.7555 124.623 17.7672 123.079 15.7224 118.836C12.4015 111.93 22.4409 93.4948 28.5867 84.0663C29.951 81.9717 31.9181 79.4877 35.7978 78.5337C36.535 78.3529 37.307 78.6705 37.7115 79.3138L42.7724 87.3606L33.4783 107.206L49.609 107.749V107.75Z" fill="#F48C37"/>
<path d="M33.4773 107.517C33.4333 107.517 33.3893 107.508 33.3464 107.488C33.1922 107.415 33.125 107.232 33.198 107.076L42.4944 87.2319C42.5674 87.0777 42.7517 87.0105 42.9059 87.0835C43.06 87.1565 43.1273 87.3397 43.0542 87.495L33.7579 107.34C33.7057 107.452 33.5944 107.517 33.4773 107.517Z" fill="#02002A"/>
<path d="M30.2146 124.94C28.5767 124.94 26.9829 124.939 25.4656 124.937C25.2952 124.937 25.1561 124.798 25.1572 124.627C25.1572 124.457 25.2963 124.319 25.4667 124.319C33.0047 124.328 42.49 124.325 49.3012 124.207V108.05L29.6675 107.517C29.4971 107.512 29.3626 107.37 29.3673 107.199C29.3719 107.029 29.5226 106.884 29.6849 106.899L49.6188 107.441C49.7857 107.445 49.9201 107.582 49.9201 107.75V124.511C49.9201 124.679 49.7845 124.817 49.6164 124.821C44.136 124.919 36.838 124.943 30.2158 124.943L30.2146 124.94Z" fill="#02002A"/>
<path d="M33.4773 107.517C33.4333 107.517 33.3893 107.508 33.3464 107.488C33.1922 107.415 33.125 107.232 33.198 107.076L42.4944 87.2319C42.5674 87.0777 42.7517 87.0105 42.9059 87.0835C43.06 87.1565 43.1273 87.3397 43.0542 87.495L33.7579 107.34C33.7057 107.452 33.5944 107.517 33.4773 107.517Z" fill="#02002A"/>
<path d="M30.2146 124.94C28.5767 124.94 26.9829 124.939 25.4656 124.937C25.2952 124.937 25.1561 124.798 25.1572 124.627C25.1572 124.457 25.2963 124.319 25.4667 124.319C33.0047 124.328 42.49 124.325 49.3012 124.207V108.05L29.6675 107.517C29.4971 107.512 29.3626 107.37 29.3673 107.199C29.3719 107.029 29.5226 106.884 29.6849 106.899L49.6188 107.441C49.7857 107.445 49.9201 107.582 49.9201 107.75V124.511C49.9201 124.679 49.7845 124.817 49.6164 124.821C44.136 124.919 36.838 124.943 30.2158 124.943L30.2146 124.94Z" fill="#02002A"/>
<path d="M178.47 58.2426C178.47 76.942 167.612 93.104 151.856 100.766C150.538 100.59 149.234 100.33 147.954 99.9476C144.813 98.9994 141.828 97.234 139.948 94.5471C138.58 92.594 137.853 89.9917 138.786 87.7939C139.524 86.0552 141.164 84.859 142.864 84.0336C144.565 83.2083 146.395 82.6612 148.042 81.7292C151.852 79.5698 154.363 75.2821 154.378 70.9028C154.39 67.9296 153.35 65.063 152.849 62.1327C152.348 59.2012 152.501 55.8802 154.504 53.679C156.652 51.3248 160.214 50.9886 163.397 51.1683C166.577 51.3514 169.898 51.8719 172.856 50.6907C175.087 49.7958 175.791 48.253 177.037 46.6545C177.974 50.3615 178.47 54.2447 178.47 58.2414V58.2426Z" fill="#2E37DB"/>
<path d="M118.688 132.271C118.465 132.271 118.282 132.093 118.276 131.87C118.27 131.642 118.45 131.452 118.677 131.447C120.605 131.394 122.223 131.204 123.488 130.879C123.708 130.823 123.933 130.954 123.99 131.175C124.046 131.396 123.913 131.62 123.693 131.677C122.368 132.018 120.688 132.219 118.698 132.271C118.695 132.271 118.69 132.271 118.687 132.271H118.688ZM113.743 132.152C113.733 132.152 113.725 132.152 113.716 132.152C112.189 132.054 110.524 131.899 108.767 131.69C108.54 131.663 108.379 131.458 108.406 131.232C108.433 131.006 108.636 130.845 108.864 130.87C110.607 131.077 112.258 131.231 113.771 131.328C113.998 131.343 114.17 131.539 114.155 131.766C114.141 131.984 113.959 132.152 113.744 132.152H113.743ZM103.911 131.018C103.89 131.018 103.869 131.016 103.847 131.013C102.276 130.77 100.632 130.49 98.9578 130.181C98.7341 130.139 98.5857 129.925 98.6274 129.701C98.6692 129.477 98.8836 129.33 99.1073 129.37C100.773 129.678 102.411 129.956 103.973 130.198C104.198 130.233 104.352 130.444 104.318 130.669C104.286 130.873 104.11 131.018 103.911 131.018ZM128.214 129.95C128.065 129.95 127.921 129.87 127.848 129.73C127.743 129.528 127.821 129.279 128.022 129.173C129.621 128.334 130.861 127.34 131.71 126.215C131.846 126.034 132.105 125.997 132.287 126.134C132.469 126.271 132.505 126.529 132.368 126.711C131.446 127.933 130.113 129.007 128.406 129.903C128.345 129.935 128.28 129.95 128.215 129.95H128.214ZM94.1763 129.231C94.1485 129.231 94.1195 129.229 94.0917 129.222C92.4202 128.872 90.7452 128.498 89.2487 128.142C89.0274 128.09 88.8906 127.867 88.9427 127.646C88.9961 127.424 89.2186 127.288 89.4389 127.34C90.9284 127.694 92.5964 128.066 94.2598 128.415C94.4823 128.462 94.6249 128.681 94.5785 128.903C94.5379 129.098 94.3664 129.231 94.1751 129.231H94.1763ZM137.335 128.55C137.335 128.55 137.324 128.55 137.319 128.55C136.009 128.499 134.61 128.408 132.782 128.259L132.364 128.224C132.137 128.204 131.969 128.005 131.989 127.778C132.009 127.551 132.208 127.385 132.435 127.402L132.85 127.437C134.665 127.587 136.054 127.676 137.351 127.727C137.578 127.736 137.756 127.927 137.746 128.155C137.738 128.377 137.555 128.551 137.335 128.551V128.55ZM142.279 128.523C142.062 128.523 141.88 128.354 141.867 128.135C141.854 127.908 142.027 127.713 142.254 127.699C143.737 127.612 145.097 127.45 146.411 127.203C146.638 127.16 146.865 127.115 147.091 127.066C147.314 127.019 147.533 127.16 147.581 127.383C147.628 127.605 147.487 127.824 147.264 127.872C147.031 127.922 146.797 127.969 146.563 128.013C145.214 128.267 143.82 128.433 142.302 128.522C142.294 128.522 142.286 128.522 142.278 128.522L142.279 128.523ZM127.541 127.358C127.497 127.358 127.452 127.351 127.407 127.336C126.986 127.191 126.581 127.024 126.205 126.84C125.009 126.255 123.957 125.375 123.242 124.361C123.111 124.174 123.155 123.918 123.342 123.786C123.528 123.655 123.784 123.699 123.917 123.885C124.553 124.788 125.494 125.574 126.568 126.099C126.914 126.269 127.286 126.423 127.676 126.556C127.891 126.63 128.006 126.864 127.932 127.08C127.873 127.25 127.713 127.358 127.542 127.358H127.541ZM151.896 126.414C151.734 126.414 151.581 126.317 151.515 126.159C151.428 125.948 151.529 125.708 151.739 125.621C153.238 125.003 154.692 124.249 156.06 123.38C156.252 123.257 156.506 123.314 156.629 123.506C156.751 123.699 156.694 123.954 156.503 124.076C155.094 124.972 153.597 125.747 152.053 126.383C152.002 126.404 151.948 126.415 151.896 126.415V126.414ZM133.445 122.256C133.235 122.256 133.055 122.096 133.034 121.882C132.89 120.343 132.125 118.833 130.991 117.843C130.819 117.693 130.802 117.432 130.951 117.261C131.101 117.089 131.362 117.072 131.533 117.221C132.842 118.364 133.688 120.035 133.855 121.805C133.876 122.032 133.71 122.232 133.483 122.254C133.47 122.256 133.456 122.257 133.444 122.257L133.445 122.256ZM160.199 121.128C160.088 121.128 159.978 121.084 159.897 120.996C159.742 120.829 159.753 120.568 159.92 120.413C161.123 119.301 162.216 118.083 163.165 116.794C163.301 116.611 163.558 116.571 163.741 116.707C163.925 116.842 163.964 117.1 163.828 117.283C162.848 118.614 161.72 119.87 160.478 121.018C160.4 121.091 160.299 121.127 160.199 121.127V121.128ZM122.968 119.856C122.913 119.856 122.856 119.845 122.801 119.82C122.594 119.728 122.5 119.484 122.593 119.275C123.292 117.704 124.81 116.446 126.555 115.99C126.775 115.932 127 116.065 127.058 116.285C127.115 116.505 126.984 116.73 126.763 116.788C125.255 117.181 123.946 118.262 123.346 119.61C123.278 119.763 123.127 119.855 122.97 119.855L122.968 119.856ZM166.012 113.203C165.954 113.203 165.896 113.19 165.841 113.164C165.633 113.069 165.543 112.825 165.638 112.618C166.307 111.16 166.831 109.614 167.193 108.021C167.244 107.799 167.466 107.661 167.687 107.711C167.91 107.762 168.048 107.982 167.998 108.204C167.622 109.852 167.081 111.454 166.388 112.963C166.318 113.115 166.169 113.204 166.012 113.204V113.203ZM168.207 103.625C168.207 103.625 168.2 103.625 168.196 103.625C167.969 103.619 167.788 103.43 167.794 103.203C167.799 103.008 167.801 102.812 167.801 102.617C167.801 101.185 167.672 99.7531 167.421 98.3633C167.38 98.1395 167.528 97.9251 167.752 97.8845C167.977 97.844 168.19 97.9923 168.232 98.216C168.494 99.6545 168.626 101.136 168.626 102.618C168.626 102.82 168.624 103.022 168.619 103.225C168.613 103.448 168.43 103.627 168.208 103.627L168.207 103.625ZM166.428 93.9654C166.267 93.9654 166.114 93.8704 166.048 93.7127C165.62 92.6939 165.114 91.7086 164.541 90.7859C164.271 90.3501 163.98 89.9142 163.675 89.4911C163.542 89.3057 163.585 89.0483 163.769 88.9162C163.954 88.7829 164.212 88.8258 164.344 89.0101C164.66 89.4494 164.962 89.9003 165.241 90.3524C165.836 91.3121 166.363 92.3357 166.807 93.394C166.896 93.6038 166.797 93.8449 166.587 93.9341C166.535 93.9562 166.481 93.9666 166.428 93.9666V93.9654ZM160.759 85.9453C160.656 85.9453 160.553 85.907 160.473 85.8305C159.385 84.7838 158.163 83.751 156.734 82.673C156.552 82.5362 156.517 82.2777 156.653 82.0958C156.79 81.9138 157.049 81.8778 157.231 82.0146C158.686 83.1123 159.934 84.166 161.044 85.2359C161.208 85.3935 161.213 85.6543 161.055 85.8189C160.973 85.9024 160.866 85.9453 160.758 85.9453H160.759ZM152.928 79.9235C152.85 79.9235 152.771 79.9015 152.702 79.8551C151.701 79.1956 150.691 78.5488 149.682 77.9043L148.546 77.1763C148.355 77.0535 148.299 76.7984 148.422 76.6072C148.545 76.4159 148.8 76.3603 148.991 76.4832L150.125 77.2099C151.136 77.8568 152.15 78.5059 153.154 79.1677C153.344 79.2929 153.396 79.5491 153.271 79.7392C153.192 79.8598 153.06 79.9247 152.927 79.9247L152.928 79.9235ZM144.649 74.5045C144.568 74.5045 144.487 74.4813 144.415 74.4315C143.059 73.4937 141.705 72.5177 140.389 71.5301C140.207 71.3933 140.17 71.1348 140.307 70.9529C140.444 70.7709 140.702 70.7338 140.884 70.8706C142.192 71.8524 143.538 72.8214 144.884 73.7534C145.072 73.8832 145.119 74.1394 144.989 74.3271C144.909 74.443 144.78 74.5045 144.649 74.5045ZM136.739 68.5673C136.648 68.5673 136.556 68.5372 136.479 68.4746C135.203 67.4371 133.929 66.358 132.691 65.2684C132.521 65.1177 132.504 64.858 132.654 64.6865C132.805 64.5149 133.066 64.4987 133.236 64.6494C134.466 65.732 135.732 66.8031 137 67.8336C137.176 67.9773 137.203 68.237 137.06 68.4132C136.979 68.5128 136.86 68.565 136.74 68.565L136.739 68.5673ZM129.314 62.032C129.212 62.032 129.11 61.9949 129.03 61.9184C128.152 61.0827 127.273 60.2226 126.42 59.3625C126.114 59.0542 125.808 58.7401 125.505 58.419C125.348 58.2532 125.355 57.9924 125.52 57.8359C125.685 57.6783 125.946 57.6864 126.103 57.851C126.402 58.1663 126.703 58.4769 127.006 58.7806C127.854 59.6349 128.726 60.4904 129.599 61.3203C129.763 61.4768 129.77 61.7388 129.613 61.9034C129.532 61.988 129.423 62.0309 129.314 62.0309V62.032ZM122.653 54.7387C122.522 54.7387 122.393 54.6761 122.313 54.5602C121.238 52.9999 120.498 51.522 120.053 50.0395C119.987 49.8216 120.111 49.5909 120.329 49.526C120.548 49.4611 120.776 49.5839 120.843 49.8019C121.263 51.2009 121.967 52.6047 122.993 54.0919C123.121 54.2796 123.075 54.5358 122.887 54.6656C122.815 54.7155 122.734 54.7387 122.653 54.7387ZM120.155 45.4446C120.13 45.4446 120.103 45.4423 120.077 45.4377C119.854 45.3948 119.708 45.1792 119.749 44.9554C120.055 43.3547 120.744 41.7898 121.797 40.3026C121.929 40.1172 122.186 40.0731 122.371 40.2041C122.557 40.3362 122.601 40.5924 122.47 40.779C121.486 42.1688 120.844 43.6259 120.56 45.1108C120.521 45.3078 120.349 45.4458 120.155 45.4458V45.4446ZM125.594 37.4453C125.469 37.4453 125.345 37.3885 125.264 37.2796C125.128 37.0976 125.165 36.8391 125.347 36.7023C126.572 35.7877 127.985 34.952 129.668 34.1487C129.873 34.0513 130.12 34.1371 130.218 34.3434C130.316 34.5486 130.229 34.7955 130.023 34.8929C128.39 35.673 127.022 36.4809 125.841 37.363C125.767 37.4187 125.681 37.4453 125.594 37.4453ZM134.406 33.0197C134.24 33.0197 134.083 32.9188 134.021 32.7554C133.939 32.5433 134.045 32.3045 134.257 32.2222L135.033 31.9243C135.245 31.842 135.484 31.9486 135.566 32.1619C135.647 32.374 135.542 32.6128 135.33 32.694L134.554 32.9919C134.505 33.0104 134.456 33.0197 134.406 33.0197Z" fill="#02002A"/>
<path d="M132.409 0.309419C125.64 0.366218 120.17 5.8687 120.17 12.6497C120.17 16.5491 121.979 20.0254 124.801 22.2869C127.244 24.2424 129.248 27.1727 130.651 29.9315C130.963 30.5435 131.586 30.9353 132.272 30.9353C132.937 30.9353 133.544 30.569 133.865 29.986C135.353 27.2782 137.409 24.4023 139.907 22.5292C142.925 20.2677 144.872 16.6557 144.852 12.5883C144.82 5.7864 139.209 0.25378 132.408 0.30826L132.409 0.309419Z" fill="#F48C37"/>
<path d="M132.273 31.2449C131.471 31.2449 130.744 30.7951 130.377 30.0718C130.299 29.92 130.359 29.7333 130.512 29.6557C130.665 29.578 130.851 29.6395 130.928 29.7913C131.19 30.306 131.706 30.6259 132.273 30.6259C132.84 30.6259 133.327 30.3233 133.594 29.8365C134.857 27.5391 136.944 24.3642 139.723 22.2812C142.805 19.971 144.562 16.4379 144.544 12.5884C144.529 9.38332 143.254 6.36837 140.955 4.09875C138.654 1.82798 135.613 0.603917 132.411 0.616668C125.832 0.671148 120.48 6.06815 120.48 12.6475C120.48 12.8179 120.342 12.957 120.17 12.957C119.999 12.957 119.861 12.819 119.861 12.6475C119.861 5.73199 125.489 0.0579575 132.406 0C132.441 0 132.476 0 132.511 0C135.847 0 138.996 1.29825 141.39 3.66059C143.807 6.04612 145.147 9.2164 145.163 12.5872C145.181 16.635 143.334 20.3489 140.094 22.7773C137.403 24.793 135.369 27.8915 134.136 30.1356C133.759 30.8195 133.046 31.2449 132.273 31.2449Z" fill="#02002A"/>
<path d="M136.849 16.9882C139.245 14.5926 139.245 10.7087 136.849 8.31309C134.454 5.91753 130.57 5.91752 128.174 8.31308C125.778 10.7086 125.778 14.5926 128.174 16.9882C130.57 19.3837 134.454 19.3837 136.849 16.9882Z" fill="white"/>
<path d="M197.055 45.0376C196.451 41.6494 193.785 39.0958 190.587 39.0958C189.825 39.0958 189.09 39.2395 188.409 39.5096C187.08 34.1172 182.674 30.1553 177.443 30.1553C172.211 30.1553 168.03 33.9179 166.585 39.0993C166.507 39.097 166.43 39.0946 166.352 39.0946C163.154 39.0946 160.488 41.6482 159.884 45.0364H197.055V45.0376Z" fill="#E6F3FC"/>
<path d="M140.347 95.4431C139.995 93.4656 138.438 91.9749 136.572 91.9749C136.127 91.9749 135.698 92.0595 135.3 92.2172C134.524 89.0701 131.952 86.7576 128.9 86.7576C125.848 86.7576 123.405 88.9542 122.561 91.9784C122.516 91.9772 122.471 91.9761 122.426 91.9761C120.56 91.9761 119.003 93.4667 118.65 95.4442H140.349L140.347 95.4431Z" fill="white"/>
<path d="M112.613 33.9596C112.061 30.8589 109.622 28.5232 106.696 28.5232C105.998 28.5232 105.326 28.6553 104.702 28.9022C103.485 23.9689 99.4536 20.3442 94.6687 20.3442C89.8837 20.3442 86.0573 23.7869 84.7347 28.5278C84.664 28.5255 84.5933 28.5232 84.5215 28.5232C81.5958 28.5232 79.1569 30.86 78.604 33.9596H112.613Z" fill="#E6F3FC"/>
<path d="M150.257 116.119L148.409 117.282C147.542 117.823 146.402 117.563 145.859 116.702L144.696 114.854C144.153 113.993 144.413 112.852 145.274 112.311L147.124 111.142C147.985 110.599 149.126 110.859 149.674 111.721L150.836 113.576C151.378 114.437 151.118 115.576 150.257 116.119Z" fill="#F48C37"/>
</g>
<defs>
<clipPath id="clip0_274_2098">
<rect width="197.055" height="147.283" fill="white"/>
</clipPath>
</defs>
</svg>
